/* XPM */
static char *a5353723642515_563274d9dff381721836915[] = {
/* columns rows colors chars-per-pixel */
"50 50 236 2 ",
"   c None",
".  c #672B28",
"X  c #6C352A",
"o  c #78392A",
"O  c #763130",
"+  c #5C4C36",
"@  c #5E4E38",
"#  c #564634",
"$  c #5F5038",
"%  c #654B3A",
"&  c #64543C",
"*  c #665C39",
"=  c #774332",
"-  c #5E6926",
";  c #5D6529",
":  c #626B2B",
">  c #61652D",
",  c #676733",
"<  c #746F3D",
"1  c #797939",
"2  c #6F7D28",
"3  c #6D5B43",
"4  c #685740",
"5  c #715E48",
"6  c #75634B",
"7  c #7B6A4C",
"8  c #7A654E",
"9  c #7D7649",
"0  c #7E6B52",
"q  c #786A52",
"w  c #7F7E58",
"e  c #87392E",
"r  c #8D3332",
"t  c #8D3D30",
"y  c #943B33",
"u  c #9A3B31",
"i  c #953533",
"p  c #8D342C",
"a  c #B33D38",
"s  c #A2561F",
"d  c #AE601E",
"f  c #944A29",
"g  c #97582C",
"h  c #9B4432",
"j  c #9C4A39",
"k  c #955C36",
"l  c #894D2F",
"z  c #A45F2A",
"x  c #A14533",
"c  c #A44B32",
"v  c #A94C33",
"b  c #B74A3A",
"n  c #AB5531",
"m  c #B8523A",
"M  c #A04C2E",
"N  c #9B662D",
"B  c #9C6D30",
"V  c #A6632D",
"C  c #A96B2C",
"Z  c #A8782B",
"A  c #B4732C",
"S  c #B57A29",
"D  c #BC6933",
"F  c #BB6333",
"G  c #AC7733",
"H  c #BA7533",
"J  c #AC6834",
"K  c #C34C3F",
"L  c #C6533E",
"P  c #C7583D",
"I  c #CA5A3E",
"U  c #C8573E",
"Y  c #C76538",
"T  c #D4743C",
"R  c #D67B3C",
"E  c #D97B3D",
"W  c #CC7338",
"Q  c #BF3F41",
"!  c #885542",
"~  c #865952",
"^  c #935D49",
"/  c #816E55",
"(  c #886557",
")  c #837256",
"_  c #86735A",
"`  c #8A755B",
"'  c #8A7859",
"]  c #927050",
"[  c #8E7A61",
"{  c #8B7864",
"}  c #937C62",
"|  c #987F65",
" . c #8D7F72",
".. c #A27765",
"X. c #C54D40",
"o. c #C54A41",
"O. c #CB5442",
"+. c #CE5C41",
"@. c #C55743",
"#. c #D65C4A",
"$. c #D36245",
"%. c #DC674B",
"&. c #DE6250",
"*. c #E46F4F",
"=. c #E0614F",
"-. c #E5704F",
";. c #E16452",
":. c #E67150",
">. c #E87351",
",. c #7E882D",
"<. c #7B8836",
"1. c #788548",
"2. c #86883B",
"3. c #818B2D",
"4. c #AD822E",
"5. c #B3842E",
"6. c #BC8C2E",
"7. c #BC862C",
"8. c #BE922D",
"9. c #B58834",
"0. c #BC9537",
"q. c #9EB328",
"w. c #99A531",
"e. c #A1B42C",
"r. c #C68A2C",
"t. c #C3942E",
"y. c #C88A32",
"u. c #D88938",
"i. c #C59C36",
"p. c #C79939",
"a. c #DA9A34",
"s. c #D0972C",
"d. c #E1943A",
"f. c #E49B39",
"g. c #EA9E3E",
"h. c #E9912F",
"j. c #CBA42F",
"k. c #DBA82E",
"l. c #CDA835",
"z. c #D8A933",
"x. c #D4B430",
"c. c #D8B735",
"v. c #D8B927",
"b. c #E7B62C",
"n. c #F4B92F",
"m. c #EBAD34",
"M. c #E8A338",
"N. c #ECB430",
"B. c #EAB634",
"V. c #F2BC31",
"C. c #FDBE31",
"Z. c #F4B735",
"A. c #E8AD2E",
"S. c #E79119",
"D. c #FDC52D",
"F. c #FECB2D",
"G. c #F6C72A",
"H. c #FDD42A",
"J. c #E3C236",
"K. c #FDC431",
"L. c #FECD31",
"P. c #F2C430",
"I. c #E8D434",
"U. c #FAD131",
"Y. c #F3DE34",
"T. c #FBDD33",
"R. c #F8D335",
"E. c #EAD92A",
"W. c #FBE22F",
"Q. c #F3E534",
"!. c #FDE333",
"~. c #F6EA34",
"^. c #FCEB33",
"/. c #FFE03F",
"(. c #EFE335",
"). c #888948",
"_. c #988D44",
"`. c #8B9B43",
"'. c #958755",
"]. c #999449",
"[. c #B99646",
"{. c #AC9555",
"}. c #96A847",
"|. c #A6AF4B",
" X c #958165",
".X c #9A8266",
"XX c #9C866A",
"oX c #9A876B",
"OX c #9C8B75",
"+X c #978A76",
"@X c #9D9175",
"#X c #8F8264",
"$X c #A1866C",
"%X c #A38A6D",
"&X c #AA8B6D",
"*X c #A38E73",
"=X c #AA8D71",
"-X c #A58E7C",
";X c #A49475",
":X c #AE9275",
">X c #AB987A",
",X c #B19376",
"<X c #B29579",
"1X c #B59A7D",
"2X c #B99C7E",
"3X c #B49F67",
"4X c #B3A974",
"5X c #C4A04E",
"6X c #EFA041",
"7X c #F1A342",
"8X c #B6C34E",
"9X c #FBD54B",
"0X c #EECC49",
"qX c #DFC56D",
"wX c #FBDC63",
"eX c #A69482",
"rX c #B59B81",
"tX c #BCA485",
"yX c #B6A887",
"uX c #B2A788",
"iX c #968B82",
"pX c #C4AC8B",
"aX c #C1A686",
"sX c #C6AD92",
"dX c #CDB493",
"fX c #C3B49A",
"gX c #D1B997",
"hX c #D4BB99",
"jX c #D8BE9C",
"kX c #D1B699",
"lX c #C1B184",
"zX c #C6B7A8",
"xX c #D9C19E",
"cX c #CDC18C",
"vX c #DDC3A3",
"bX c #E2C7A5",
/* pixels */
"                                                                                                    ",
"                                                                                                    ",
"                                                                                                    ",
"                                                                                                    ",
"                                                                                                    ",
"                                                                                                    ",
"                                                                                                    ",
"                                                                                                    ",
"                X l g N N N N Z Z Z G 4.5.9.9.6.6.t.0.t.8.0.8.6.5.5.4.4.4.Z B B g o                 ",
"                o c.(.(.Y.Q.~.~.~.~.^.~.~.^.^.^.^.^.^.^.^.^.^.~.~.~.~.~.Q.(.(.Q.I.g                 ",
"                = J.~.V.N.Z.m.m.M.M.f.d.f.a.d.u.u.u.u.R R R E E *.R T T W T T f.I.B                 ",
"                o J.R.Y K b p u @.&.o.o.=.=.&.#.X.X.o.o.K #.;.&.;.+.K L L L Q T (.4.                ",
"                o v.T.$.v ^ 3XS f @.$.Y *.:.>.-.Y I I I I %.>.>.-.$.I I I I L E Q.4.                ",
"                o v.!.Y h cXwX/.r.f @.+.%.:.:.*.+.P I P +.-.-.-.-.$.P I I I K R ~.8.                ",
"                X x.!.F J 0XS.7XB.s m +.%.:.:.*.+.+.I I +.*.-.-.-.$.I I I I L T !.i.                ",
"                X x.!.F G B.h.K.V.d b U %.:.*.:.+.U @.P $.*.*.-.-.+.P I I I K T !.j.                ",
"                . j.~.W k J.V.9XA.s m I %.-.-.:.$.U U U $.:.-.*.*.+.U P I I O.T T.z.                ",
"                . j.~.R h 9.0X0XZ M $.U $.:.-.:.$.P +.O.%.>.*.-.*.+.U I I I X.T T.x.                ",
"                . j.~.*.Q y g f u #.#.K +.;.;.;.#.o.K O.&.;.&.;.;.O.K K K X.Q Y !.x.                ",
"      6 oX1X2XXXX 8.!.M.d.a.u.u.f.7Xg.a.f.7X7X7Xg.a.a.d.7X6X6X7XM.f.f.f.M.M.M.B.!.x.X #             ",
"    & :XbXvXvXjX( 7.W.W.!.^.!.!.!.!.!.^.!.!.W.W.W.H.W.!.!.!.!.^.!.^.!.^.^.!.^.W.!.x.~ rX1X) #       ",
"    < q.3XkXgXgX~ 4.W.!.Y.T.T.!.!.T.!.!.T.!.!.!.H.H.F.R.!.T.T.Y.Y.Q.Y.Y.I.I.I.I.E.8...vXbXjXOX@     ",
"  & 3.q.w.jXhXkX| k 9.G 5.r.8.7.6.7.y.y.y.y.y.W b.H.G.s.H H H A V V V g N V N g k ] =XsXaXpXjXoX$   ",
"  * w.q.|.sXdXhXdXsXrX= z C C e r O r y u r ^ u.G.H.H.B.H r y y p O e O g A S f ~ rX<X=X:X=X<XtX`   ",
"  * ,.2 : ) | tXxXxXsX! C H A f e e t h y j qX0Xb.H.G.P.U.H y h t e e l z A S z ( <X=X%X%X.X| $X[ & ",
"  & ; ; ; : ) ` :XjXsX! r.k.k.D y h c m m R /.r.g E.v.z b.B.K m v h h h r.A.k.C ~ <X$X_ ` *X;X| 6 & ",
"    , : ; - 9 ) / OXsX^ s.F.U.y.h c m I O.u.H.y.p z M r a.C.+.+.n c c v m.L.U.5.~ :X=X[ ` rXaX2X:X6 ",
"    & > : ; ; 9 { / { ! s.F.D.u.h c v U O.T U.V.F p u Y P.N.U +.b c x v A.D.L.A ~ :X:X=X` | =X,X:X3 ",
"      * : : - : ) ` / = t.F.L.a.x c v L I m a.H.P.a.M.P.U.u.m +.m x x n N.K.V.B 8 <X<X<X$X_ %X2X}   ",
"      4 , - : - 9 [ ` % 7.D.D.M.h u h b O.b h z.F.U.T.U.y.x O.O.v h u n Z.c.].'.7 5 [ =X} ` :X,X6   ",
"        * : ; , ) [ / % ] 3X[.B.W D D F Y Y c t V 7.r.z e c Y P F F H W [.1.`.8X|.)., 3 ` ,X1X`     ",
"          , - < ` / 6 1XfXzXrX[.G.D.D.C.n.V.V.s.C V V V r.b.N.V.V.D.B.'.1.<.`.}.}.|.`.* ` 2X$X3     ",
"          4 > , ' 6 XXbXjXlX2X$Xp.K.C.C.C.C.K.K.V.N.N.V.D.K.K.K.D.l.'.w 2.2.1.1.,.,.2.7 $X,X6       ",
"            & ; 9 7 .XaX,X&X&X=XXXz.F.D.D.D.D.K.F.F.F.F.D.D.D.D.[.[ 4X2.2.1.<.,.,.,.1 ' 1X/ #       ",
"              * ' q ` :X&X=X=X<XiX'.0.0.p.p.p.p.i.i.p.i.p.i.i.{.+XyXtX{.].).`.2.).<.9 =X` &         ",
"              & / 6 q ;X;X;X;X@X+X-XeXeXeXeXeXOX-X*XOXOX+X+XoX{ eXfXyXyXcX4XyXyXuXw ' '.&           ",
"                & 3 #X@X@X;X>XyXpXgXhXhXhXhXhXhXhXgXhXgXhXgXjXpX@X;X4XtXrXeX;XeXuX;X3 &             ",
"                $ } tX:X:X<X1X2X2X1X1X1X1X1X1X1X1X1X1X1X1XrX2XrX>X#X'. X X#X%X:XrX2X5               ",
"                * %X,X:X=X:X=X=X=X=X=X=X%X=X&X=X=X&X=X&X;X=X=X=X:X:X&X%X=X=X:X:X<X%X5               ",
"                + .X2X,X,X,X:X:X:X:X:X<X<X<X<X,X1X:X<X<X,X<X<X,X,X:X:X:X:X:X:X:X,X| &               ",
"                  6 } } .X$XXX$XXXXX.X` ` _ ` ` ` ` ` ` / / 8 8 )  X} } ' } [ / 6 &                 ",
"                      # & 0 _ ) ) _ / % + + + +         # + + + 5 _ 0 0 _ ` 5                       ",
"                          3 ` } ` `  X8 & & &             & & 4  X X` [ .Xq                         ",
"                            0 tXfXtXgXtX& & &             & + _ xXgXhXhX%X&                         ",
"                              ) tXhXvXdX3 %               $ @ } hXgXyXoX3                           ",
"                                & 7 _ 0 &                     & 6 6 &                               ",
"                                                                                                    ",
"                                                                                                    ",
"                                                                                                    ",
"                                                                                                    "
};
