/* XPM */
static char *Fairytale_door_medieval__Element1721836813[] = {
/* columns rows colors chars-per-pixel */
"50 50 222 2 ",
"   c None",
".  c #5F3E37",
"X  c #5C4339",
"o  c #6C4F3C",
"O  c #1D3E41",
"+  c #1F4349",
"@  c #224544",
"#  c #264749",
"$  c #3A4948",
"%  c #254D53",
"&  c #265559",
"*  c #245A64",
"=  c #275F68",
"-  c #295F69",
";  c #2A5B62",
":  c #2B636C",
">  c #27606A",
",  c #2D6671",
"<  c #2F6A77",
"1  c #316671",
"2  c #316A75",
"3  c #3B6D75",
"4  c #356E7A",
"5  c #396E7A",
"6  c #35717C",
"7  c #38707C",
"8  c #3F686D",
"9  c #434944",
"0  c #46534E",
"q  c #455A58",
"w  c #5A5E5C",
"e  c #5A5C56",
"r  c #5F4E45",
"t  c #735A48",
"y  c #675C53",
"u  c #665348",
"i  c #5D625C",
"p  c #77634F",
"a  c #6B6154",
"s  c #65625A",
"d  c #636A5F",
"f  c #69665A",
"g  c #746A56",
"h  c #706D5D",
"j  c #716256",
"k  c #72715C",
"l  c #4A6466",
"z  c #4A676B",
"x  c #456B6E",
"c  c #496C6D",
"v  c #4B6664",
"b  c #566B65",
"n  c #5A6C62",
"m  c #556967",
"M  c #416C72",
"N  c #4A6C71",
"B  c #4C7172",
"V  c #676B63",
"C  c #7A726B",
"Z  c #B44519",
"A  c #954E2C",
"S  c #8A5839",
"D  c #9C5A39",
"F  c #9D572F",
"G  c #AC4A23",
"H  c #B34C27",
"J  c #A9562A",
"K  c #B65623",
"L  c #B95623",
"P  c #B65825",
"I  c #BB5924",
"U  c #BC5B29",
"Y  c #B4582A",
"T  c #A65A34",
"R  c #95623B",
"E  c #A96239",
"W  c #B7693A",
"Q  c #BC723D",
"!  c #BD602D",
"~  c #DA4A1D",
"^  c #E44F1B",
"/  c #E5521D",
"(  c #E9551D",
")  c #C15C25",
"_  c #C35D29",
"`  c #C35328",
"'  c #DC5222",
"]  c #D85727",
"[  c #DA5A36",
"{  c #C54E26",
"}  c #E55323",
"|  c #E55A23",
" . c #E45D2D",
".. c #E65827",
"X. c #E25D35",
"o. c #C4622B",
"O. c #CC642C",
"+. c #C66127",
"@. c #D3652C",
"#. c #D36A2C",
"$. c #DB6D2D",
"%. c #DE6029",
"&. c #DE712E",
"*. c #CC6B34",
"=. c #C16536",
"-. c #DB6D31",
";. c #D66839",
":. c #CB7237",
">. c #C5713C",
",. c #CB743A",
"<. c #D57335",
"1. c #DD7332",
"2. c #D47439",
"3. c #DA7839",
"4. c #E56325",
"5. c #EA6225",
"6. c #EA6A27",
"7. c #E4652B",
"8. c #EB6529",
"9. c #E16B2C",
"0. c #EB6C2A",
"q. c #E76927",
"w. c #E3742E",
"e. c #EB762D",
"r. c #EA782D",
"t. c #E7782F",
"y. c #E2633A",
"u. c #E36835",
"i. c #E37431",
"p. c #EA7631",
"a. c #E77934",
"s. c #E87933",
"d. c #F06F2B",
"f. c #855B4C",
"g. c #8D5A42",
"h. c #845F51",
"j. c #88694B",
"k. c #9B6E4A",
"l. c #946647",
"z. c #896E52",
"x. c #8A7054",
"c. c #95704E",
"v. c #AB7243",
"b. c #B97242",
"n. c #B16F43",
"m. c #91786E",
"M. c #AD7C6E",
"N. c #D17352",
"B. c #E36B43",
"V. c #E46C49",
"C. c #E4724C",
"Z. c #E47653",
"A. c #E47C5B",
"S. c #E57A54",
"D. c #E67F62",
"F. c #8C8278",
"G. c #A0877D",
"H. c #E4835D",
"J. c #E9825F",
"K. c #DD9D7F",
"L. c #D38D75",
"P. c #E78866",
"I. c #E8916E",
"U. c #E79677",
"Y. c #ECA178",
"T. c #A68F81",
"R. c #B89486",
"E. c #EB9980",
"W. c #DAB398",
"Q. c #E8A788",
"!. c #EAAE95",
"~. c #ECB79A",
"^. c #F0BB98",
"/. c #E8B08B",
"(. c #CCB9A7",
"). c #E6BCA3",
"_. c #EABCA3",
"`. c #E9BBA5",
"'. c #F2C29B",
"]. c #DFC7B5",
"[. c #DDC9AF",
"{. c #EEC1A3",
"}. c #E5C3AA",
"|. c #EAC4AA",
" X c #E7CCAE",
".X c #EBCAAE",
"XX c #F3CBAC",
"oX c #F2C3A4",
"OX c #E3C6B3",
"+X c #E3CBB5",
"@X c #ECCCB1",
"#X c #E5CEB9",
"$X c #E7D4B3",
"%X c #ECD3B4",
"&X c #ECD9B6",
"*X c #E6D4BC",
"=X c #EAD5BB",
"-X c #EDDBBB",
";X c #F1D3B4",
":X c #F2DCBB",
">X c #F3D9B8",
",X c #F0D1AF",
"<X c #F4E2BE",
"1X c #F8E1BB",
"2X c #EFE3BD",
"3X c #EADDC1",
"4X c #E6D8C0",
"5X c #EEE3C4",
"6X c #EEE5C8",
"7X c #F4E5C2",
"8X c #F9E6C2",
"9X c #F6EBC5",
"0X c #F9EBC4",
"qX c #F0E5C9",
"wX c #F4ECCA",
"eX c #F9EEC9",
"rX c #F9F1C6",
"tX c #F7F1CC",
"yX c #FCF6CA",
"uX c #FCF8CB",
"iX c #F7F0C7",
"pX c #F9F3D0",
/* pixels */
"                                          6XwX5X#X5X6X                                              ",
"                                *XwXwXyXyXyXyX7X XyXyXiXeX9X6X5X                                    ",
"                          wX9X9X$X9XyXyXyXuXyX<X XyXyXyXuXuXrX2X$XwXwX                              ",
"                      wXtXyXuXuX9X%X9XyXyXyXyX8X XeXyXyXyXyXiX$X7XuXyXyXeX6X                        ",
"                  -XwXuXuXyXuXuXpX9X$X0XuXuXuXuX X7XuXyXuXyX%X9XyXuXyXyXuXuX9X3X                    ",
"              wXwX-X&X9XyXuXyXuXuXiX;XQ././.Q.Y.H.Y.^.'.{.W.&XiXuXuXuXuXuXiX-X%XwX                  ",
"            6XyXyXyX9X<X>X-XiXeX;XQ.S...@.Z 9.4.6.q.8.8.@.H I.^.1XuXyX5X-X2X0XrXyXyX5X              ",
"          3XyXuXuXyXyXuX9X%X/.P.y.4.8.e.$.L s.e.r.r.e.e.-.H 7.%.S.U.~.%X7XyXyXyXyXyXiX5X            ",
"        ].@XiXuXuXyXyXyX7XQ.B.( 8.e.w.r.&.L p.e.r.r.e.e.$.P p.0.4.| B.~.0XyXyXyXyXyXyX%X].          ",
"        7X,X}.-XyXyXuX:XE.H { e.r.r.r.e.&.L p.e.r.r.e.e.-.L p.r.r.0./ ;.K.1XpXyXuX<X.X.X3X          ",
"      6XyXuX8X;X|.;XoXP.] Z #.r.r.r.e.e.1.K w.e.r.e.e.e.1.K s.e.e.s.0.] G P.;X3X@X|.:XyXyXqX        ",
"      eXyXyXuXuX7X!.B.} 5.` #.e.e.e.e.e.&.K w.e.r.r.e.r.$.L w.e.e.e.r.$.Z } V.Q.%XyXyXyXyXeX        ",
"    6XyXyXyXyXuXeXQ.} | p.) #.e.e.r.r.r.1.K w.p.e.e.e.e.&.K w.r.e.e.e.$.L 8.^ I.eXyXyXyXuXyXwX      ",
"    *X-X9XyXyXuX>XZ./ 0.r.) #.e.e.0.e.e.i.K w.e.e.p.e.e.1.K w.e.e.e.e.$.K u./ V.XXyXyXyXiX2X3X      ",
"    =X-X%X%X%X%XQ.X.} d.s.) #.p.e.e.e.e.&.K w.r.e.e.e.p.-.K e.e.e.e.p.$.K e.| } E.>X>X%X%X%X*X      ",
"    eXyXyXrX8X%XI.} 5.d.p._ @.e.r.e.e.e.w.K w.e.e.e.e.e.&.K s.e.e.r.e.&.L e.6./ Z.{.>X0XeXyXyX-X    ",
"    9XuXyXyXyXyXK.{ O.:.2.E E :.:.,.:.<.s.L w.e.e.0.r.r.w.I 3.:.>.>.,.Q J >.:.` N.<XyXuXuXuXyX&X    ",
"  #XyXuXyXyXyXyXT.9 q c N x c c x c x n k.J w.r.r.r.e.e.<.o i B N N c c x x v $ j -XuXyXyXyXyX-X    ",
"  *XyXyXyXyXuX9XF.@ & 6 6 2 = 4 6 2 - 4 3 e W s.r.r.t.Q g 3 6 > , 6 6 > , 6 4 @ 0  XuXyXyXuXuX2X    ",
"  =X8XrXuXuXuX7XC @ ; 6 6 2 , 4 6 2 : 5 6 6 x z.:.2.j.c 4 7 6 , < 6 6 , 2 6 4 % $ (.uXuXuXuX9X7X    ",
"  #X%X%X<X<X<X).f.X y s y w w s s z 5 6 6 1 , 5 m m 5 2 , 7 6 7 z w y s e y s r X L.<X0X0X8X%X-X    ",
"  =X@X@X:X:X7X^.[ ' 7.$.i.o.Y u.9.W p 8 6 : : 7 6 6 6 , > 7 3 a W $.$.@.G $.$.4.~ A.&X%X>X;X}.OX    ",
"  wXyXtXuXyXuX,Xy./ 0.r.d.#.) r.e.e.w.E i 3 5 7 , : 4 4 4 l R $.e.r.t.&.P s.e.5./ I.eXiXuXyXeXrX5X  ",
"  7XuXuXuXuXuXXXy./ e.e.e.#.) r.e.e.e.e.*.t l 4 2 : 4 z j A i.e.r.r.r.&.K i.r.6.^ P.8XuXuXyXuXyX3X  ",
"  3XeXyXrXyXuX{.X.( e.r.e.#.I s.e.e.p.e.p.K E p 3 3 y E -.K i.e.e.r.r.w.K w.e.6./ S.1XuXyXyXyXeX4X  ",
"  =X%X@X X=X1XQ. .( e.e.e.#.I s.e.p.e.e.p.I 9.-.E D *.e.i.K 1.p.r.r.e.$.L w.r.0./ V.,X8X%X@X;X%X    ",
"  wXuXeX9X>X;XQ...| r.e.d.$.Y :.w.e.p.e.a.L -.p.e.e.e.r.w.K 1.e.e.r.e.&.K w.r.e.( y.!. X&X8X0XrXwX  ",
"  pXyXuXuXyXyXXXy.( d.e.s.Q o $ l.,.p.p.s.L $.r.e.r.r.e.w.K w.e.e.e.e.&.K w.r.0.} C.:XyXyXuXuXyXpX  ",
"  tXuXyXyXuXyXXXB./ e.2.z.d 0 @ s h c.3.e.I #.r.e.w.e.e.w.K w.e.e.e.e.&.L w.e.0.^ Z.:XuXyXuXyXyXtX  ",
"  tXyX9XyX0X5X~.y./ ;.k V Q A S :.b.n x.2.U #.p.e.e.e.e.w.K $.e.e.e.e.w.L w.e.6.^ C.XX0XyXuXrXyXpX  ",
"  qX=X{.|.}.|.{.V.' l.B k 2.P p.r.3.V B z.J #.s.r.e.e.e.i.K w.e.e.e.r.&.K w.e.0./ V._.{.|.@X|.:X6X  ",
"  #X%X:X0XeX9X8XA./ -.x.z z.T 2.,.x.c c.3.U #.e.r.e.r.r.s.K &.e.e.e.r.w.K w.e.6.^ P.0X7X1X<X%X#X4X  ",
"  4XuXuXuXuXyX8XA./ 6.i.k.d l m b d k.i.s.U #.r.r.r.e.r.w.K &.r.e.e.r.&.K w.e.6.^ D.8XuXyXuXuXyX*X  ",
"  #XeXyXuXuXpX8XP.^ 6.e.s.<.g.h n.3.e.e.s.U #.r.r.r.e.e.s.K &.r.e.e.e.i.K i.e.6.^ D.8XuXuXuXyXyX*X  ",
"  +X=X<X8X:X>XXXZ.^ 0.e.e.s.Y -.e.e.r.r.s._ @.e.e.w.e.e.w.K &.r.e.e.r.&.K i.e.0./ Z.XX1X8XeX8X-X#X  ",
"    }.@X@X@X,XXXA./ 0.e.e.i.K 1.p.p.e.r.r.) @.2.c.f v.&.e.K &.r.r.e.e.1.K s.e.0./ C._..X|..X|.|.].  ",
"  *X5XyXyXyXuXeXI./ 5.r.w.p.K 1.r.r.e.d.s.! R d 5 4 x g b.K w.r.r.e.r.w.K 9.p.6.^ J.0XuXuXyXeX<X*X  ",
"  *XyXuXyXrXrXeXP.^ 6.r.e.w.K $.r.r.r.p.:.p x 6 2 * 4 6 z t :.r.r.e.r.w.K i.e.6.^ Z.8XyXyXyXyXrX-X  ",
"  =XyXuXuX8X.X{.V.( 0.r.e.e.I $.r.r.3.k.m 3 6 5 4 : 4 7 6 3 i v.i.e.e.w.K i.e.e.( y._.>X<XuXyXuX3X  ",
"  *XeX:X.X|.|.XXP.` O.>.:.>.T Q :.n.g 3 6 2 * 4 6 4 6 2 * 1 6 M g Q ,.>.F >.:.*.` N.~.}.{.;X1XrX3X  ",
"    OX`..X0XuXeXR.9 q N N x x x N M 6 4 7 4 2 3 w h.m 5 2 6 6 6 5 M x N x c c q X m.:XyX0X.X`.|.#X  ",
"    8XrX9XuXyX7XT.# % 2 6 4 = 2 6 4 > 2 7 7 z f.*.e.O.f.z 6 6 1 > 6 6 2 > 6 7 : O V @XuXuXeX9X7X*X  ",
"  *XeXyXuXyXyX:XG.$ & 2 6 6 : < 4 4 , 2 3 e D i.e.e.e.e.W e 3 2 : 6 6 2 , 6 6 1 + V OXtXuXyXyXyX3X  ",
"  #XeXuXuXuXyX>XM.. u s s s w i V y f y l.U _ d.e.e.e.r.e.G g.a f s s s e s s y X h.`.eXuXyXyXyX3X  ",
"    OX.X:X9XyX;XA.~ | 9.$.9.L _ i.9.9.9.p.O._ p.e.e.e.e.p.L $.9.9.9.9.-.G #.q.7.~ [ !.rXrX<X1X X+X  ",
"    0X:X@X).).~.Z.^ 6.e.e.e.o.O.d.e.e.e.r.O.) p.e.e.e.p.p.I $.e.p.e.e.i.K &.r.e.} X.Q.@X|.}..X<X5X  ",
"  *XyXyXyX8X;XQ.X.} e.e.p.p._ O.e.e.r.e.s.O._ s.e.e.e.e.p.L $.p.e.e.e.i.K w.d.e.5.} P.~. X0XyXuXqX  ",
"  ].8XyXuXyXpXXXC./ 0.e.r.p.+.+.e.e.r.e.r.@._ e.e.r.e.e.p.L $.e.e.e.e.w.K s.r.e.5.} U.1XuXuXuXyX3X  ",
"    +X>X-X:X=X`.Z.' 0.s.a.a.=.o.a.s.a.a.a.#.! a.a.a.a.a.a.U <.a.p.s.s.i.Y 3.s.a.4.] U.;XqXqX0X:X+X  ",
"                                                                                                    "
};
