/* XPM */
static char *a6776823642515_563274cb134ac_2_1721836859[] = {
/* columns rows colors chars-per-pixel */
"50 50 202 2 ",
"   c None",
".  c #771115",
"X  c #7B1314",
"o  c #77161A",
"O  c #751A1E",
"+  c #78171B",
"@  c #731417",
"#  c #751B21",
"$  c #791C21",
"%  c #76252D",
"&  c #712937",
"*  c #78323B",
"=  c #6C374D",
"-  c #623756",
";  c #7A3B42",
":  c #6D3B6A",
">  c #764758",
",  c #7D4247",
"<  c #70506D",
"1  c #7E6973",
"2  c #7D606E",
"3  c #94141E",
"4  c #8B141F",
"5  c #831D23",
"6  c #8B1E24",
"7  c #951420",
"8  c #961B24",
"9  c #9B1A25",
"0  c #9C1F29",
"q  c #A31A26",
"w  c #AA1924",
"e  c #A51C29",
"r  c #AB1E2B",
"t  c #A81622",
"y  c #B21B25",
"u  c #B31C2A",
"i  c #BD1D29",
"p  c #BF1F30",
"a  c #8A2026",
"s  c #942129",
"d  c #9C222A",
"f  c #992339",
"g  c #9B3837",
"h  c #A3232C",
"j  c #AC222D",
"k  c #B2212E",
"l  c #BB212D",
"z  c #AA2634",
"x  c #B62632",
"c  c #BA2633",
"v  c #B72833",
"b  c #B92833",
"n  c #CC1D2C",
"m  c #C41D27",
"M  c #CC222E",
"N  c #C2212E",
"B  c #D2202D",
"V  c #C22534",
"C  c #CD2331",
"Z  c #CC2739",
"A  c #C22938",
"S  c #CB2D3D",
"D  c #C12738",
"F  c #D22534",
"G  c #D52837",
"H  c #D42A3B",
"J  c #DB2C3D",
"K  c #DA273B",
"L  c #C6313E",
"P  c #D1333A",
"I  c #E0293E",
"U  c #893151",
"Y  c #BA3643",
"T  c #D22E41",
"R  c #DC2E41",
"E  c #C63643",
"W  c #DD3244",
"Q  c #D73346",
"!  c #E22F41",
"~  c #E23245",
"^  c #E63549",
"/  c #EA364B",
"(  c #E23A4D",
")  c #EB384E",
"_  c #EC3C53",
"`  c #F33D54",
"'  c #A54443",
"]  c #B44C4B",
"[  c #824263",
"{  c #CE4855",
"}  c #D8465C",
"|  c #DB5758",
" . c #DB404A",
".. c #E34C5D",
"X. c #EA4154",
"o. c #F64058",
"O. c #F8425B",
"+. c #F64057",
"@. c #DA605C",
"#. c #CB5964",
"$. c #C75D68",
"%. c #D85967",
"&. c #D14A63",
"*. c #E25B6A",
"=. c #CB6E6D",
"-. c #E96A72",
";. c #C58D79",
":. c #C8947C",
">. c #E58377",
",. c #325EB0",
"<. c #3362B9",
"1. c #5B4885",
"2. c #525790",
"3. c #715987",
"4. c #6D5685",
"5. c #61719F",
"6. c #4957A1",
"7. c #4B78B5",
"8. c #5876B9",
"9. c #5570AF",
"0. c #186EDC",
"q. c #1D74DE",
"w. c #246ED2",
"e. c #337AD3",
"r. c #1776E5",
"t. c #1976E3",
"y. c #197AE7",
"u. c #237AE1",
"i. c #4B7DC0",
"p. c #807B88",
"a. c #D47B83",
"s. c #ED7C88",
"d. c #3988DB",
"f. c #2B86E9",
"g. c #3D98EA",
"h. c #3695F5",
"j. c #3B9CF9",
"k. c #389BF6",
"l. c #328FF0",
"z. c #3AA1FD",
"x. c #37A4FA",
"c. c #4885C7",
"v. c #4389D6",
"b. c #5EA7D5",
"n. c #58AAE7",
"m. c #57B4FD",
"M. c #5DB9FF",
"N. c #57B4F6",
"B. c #4AA4F2",
"V. c #6BB8EC",
"C. c #64BDFE",
"Z. c #68BCF7",
"A. c #6AC2FA",
"S. c #75CCFC",
"D. c #79C8FD",
"F. c #7BD0FC",
"G. c #8297A3",
"H. c #83A5B4",
"J. c #CD9B82",
"K. c #DC8C94",
"L. c #DE969D",
"P. c #EC898C",
"I. c #D3A58A",
"U. c #EEA798",
"Y. c #EC9DA5",
"T. c #ECB5BA",
"R. c #E4B4B9",
"E. c #EDB5A9",
"W. c #F3C6AE",
"Q. c #F6D3B8",
"!. c #F5C0B3",
"~. c #F3E1B7",
"^. c #F8E4BB",
"/. c #FAE9BD",
"(. c #88B9C6",
"). c #86C6D8",
"_. c #8ADDFD",
"`. c #88DBF8",
"'. c #8BCEF5",
"]. c #A1D7FF",
"[. c #ACDCFF",
"{. c #AFCFEA",
"}. c #8AE2FE",
"|. c #86E2F9",
" X c #B7E0FF",
".X c #F2C6CB",
"XX c #F3D2D5",
"oX c #F5DADC",
"OX c #F1D5D8",
"+X c #F2D3CD",
"@X c #FAEBC2",
"#X c #F9EAC6",
"$X c #FDF3CB",
"%X c #CFEAFF",
"&X c #FCEAEC",
"*X c #F8E5E8",
"=X c #EBF6FF",
"-X c #E7F4FF",
";X c #FEF4F5",
":X c #FFFFFF",
">X c #F6FCFF",
",X c #E2E9F2",
/* pixels */
"                                                                                                    ",
"                                                                                                    ",
"                                o O $ & = : %                                                       ",
"                              $ < 5.i.v.g.x.7.%                   $ $ $                             ",
"                              . G.|.S.M.B.j.j.c.&               $ $ $ $ $                           ",
"                              . G.}.`.`._.F.m.k.v.= X         % $ $ # $ $                           ",
"                                2 `.`.`.F.n.u.q.f.e.- @ O o O O # $ O $ $ $                         ",
"                                ; `.F.n.u.q.t.q.t.w.- j l l k h 8 5 $ # # $                         ",
"                                * n.f.0.0.q.0.r.<.U m C F F F F B C p 0 5 # #                       ",
"                    $ $ $ $ $ O # v.j.u.q.t.r.6.d n G J J J J J T K F F C r 5 #                     ",
"                  $ $ $ $ $ O O $ i.z.l.t.u.1.r G ~ ^ ) ) ) ^ / / ) ^ ~ J G C 8 $                   ",
"                  $ $ $ $ O O 0 y 5.z.h.e.: u R / ~ H D x k r j k c D T W ~ J G j $                 ",
"                  $ $ $ $ # 0 F n : 3.U z p ~ W c w 9 q q q q q q q q q j c R ~ J l $               ",
"                  $ $ + o 8 C C n m B K R ^ D q q e e e e e r e r r r r r e r c W I j $             ",
"                  O o * > q N C C M B J R k q r r r u k x k c p p c c p c c k r k S J d O           ",
"                . $ 1 ).N.4.w N V M J J k t u p N V V Z Z Z H H K R R T K K C V v x J H 5           ",
"              . ; H.`.}.M.k.3.e x b J P z $.%.%.*.%.........} ..} &.*.-.s.P.Y.T.T.E R ! j O         ",
"            O 1 ).}._._.Z.j.j.< t A W ^ z XX;X;X;X&X&X&X&X*X{.{.V.V.,X;X:X:X:X:XXXW ) / H 5         ",
"        . % G.|.}._.`._.A.j.j.g.[ r ~ _ u R.:X:X:X:X:X:X:X:X].[.C.C.-X:X:X:X:X:X.XR ` ) J d         ",
"      + , (.}._._._._._.S.j.j.z.8.w ~ +.p a.:X:X:X:X:X:X:X:X].C.C.C.-X:X:X:X:X:XY.H ` ) ! x $       ",
"      & b.C.A.A.A.Z.Z.A.Z.z.j.z.8.e W +.H Y *X:X:X:X:X:X:X:X Xm.M.D.-X:X:X:X:X>X$.T ` _ ! V $       ",
"      % 7.k.k.k.h.t.q.w.t.f.j.z.8.w W +._ u L.:X:X:X:X:X:X:X%XC.m.'.>X:X:X:X:XoXY ~ ` / R G 5       ",
"        = g.z.j.j.q.q.q.q.q.l.x.8.w J ` O.D Y OX:X:X:X:X:X:X>XD.m.].:X:X:X:X:XK.u ` ` ^ J C 6       ",
"        o < z.j.h.q.q.q.q.q.t.l.9.y J ) O.( u %.*X:X:X:X:X:X:X[.m.%X:X:X:X:XXXY Z ` ) ~ K F 6       ",
"          $ 7.z.h.q.q.q.q.q.q.f.9.t H ^ ` O.S i %.oX>X:X:X:X:X-X_.=X:X:X:X*X#.y ( ` / J G F 6       ",
"            & v.k.q.q.q.q.q.q.r.6.t G R ) O.X.D p { E.&X:X:X:X:X>X:X:X;XXX#.w S ` / ~ J F C 6       ",
"            X = d.y.q.t.t.t.q.0.1.t C J ~ / O._ b c V { K.T..XoXoXOXT.a.b k b _ / ! J G C M 6       ",
"              4 - <.,.6.1.: U f e y C G H _ / +._ T c c N b L E E E b l v A _ ) ~ W G F F N $       ",
"                O % + 3 i m m N C C C n >.#XY.o.` o.( S b b b c c l v b P ) ) J P.Q.| n F l O       ",
"                    O a M C M C C C n | ^./.#XE.X./ +.+._ W Q T L P Q ) ` ^ J -./.@XW.P B h O       ",
"                    O O l B M C M M n U./.^.^.$X!.W ~ / _ ` ` ` +.+.` ) ~ K Q Q./.~.@X>.n 6         ",
"                  $ $ O d C C C C M @.@X/././.@X$XE.Q J W ~ ^ ^ ^ ~ W J H F U./.~.~.~.W.b O         ",
"                  $ $ $ $ j j j j e =.I.J.J.:.:.:.;.] w j k k k k j e e q d ' ' g g g g % O         ",
"                  $ $ $ # O 9 9 9 9 3 3 3 3 3 3 3 3 3 8 9 3 9 9 9 q 9 9 8 3 3 3 3 7 7 4 o           ",
"                  $ $ $ # $ d b c v c v v v v b b b v b b b b b b b v c b b b b b b v a #           ",
"                    $ $ $ $ $ h c v v v v v v b b b b b x b b b v c v v b b b v c b s O             ",
"                            # $ d b b v c v v v x x x x x v x x v b x b v x v v x s #               ",
"                              O O s v b v v v v v v b b v b b b c v x v x b b j 5 #                 ",
"                                $ O $ h v c b b b b x b x b x x b b b v b v d $ $                   ",
"                                    $ O 5 d j v b b b b b b b b b b x j s 5 O O                     ",
"                                    # # # # $ $ a s d h h h h d s 6 5 # # #                         ",
"                                  # # # #   $ # # # $ # $ # # # $ O #                               ",
"                                # # # #       # $ # #                                               ",
"                                # O % #       # # # $                                               ",
"                                  # #         # # #                                                 ",
"                                              # # #                                                 ",
"                                                                                                    ",
"                                                                                                    ",
"                                                                                                    ",
"                                                                                                    "
};
