/* XPM */
static char *character1721836744[] = {
/* columns rows colors chars-per-pixel */
"50 50 213 2 ",
"   c None",
".  c black",
"X  c #010000",
"o  c #010001",
"O  c #010101",
"+  c #020202",
"@  c gray1",
"#  c #040303",
"$  c #050304",
"%  c #040404",
"&  c gray2",
"*  c #060606",
"=  c #070606",
"-  c #070707",
";  c #080708",
":  c #0A0708",
">  c gray3",
",  c #090908",
"<  c #090909",
"1  c gray4",
"2  c #0B0A0B",
"3  c #0B0B0B",
"4  c #0C0C0C",
"5  c gray5",
"6  c #0E0E0E",
"7  c #0F0F0E",
"8  c #0F0E0F",
"9  c gray6",
"0  c #100F0F",
"q  c #101010",
"w  c #111111",
"e  c gray7",
"r  c #131313",
"t  c #141313",
"y  c #141314",
"u  c gray8",
"i  c #151515",
"p  c #161415",
"a  c #161616",
"s  c #171617",
"d  c gray9",
"f  c #191919",
"g  c gray10",
"h  c #1B1B1B",
"j  c gray11",
"k  c #1D1D1D",
"l  c #1D1E1D",
"z  c #1E1E1E",
"x  c #242423",
"c  c #242524",
"v  c #282827",
"b  c #2A2A29",
"n  c #2A2A2A",
"m  c #2B2B2A",
"M  c gray17",
"N  c #2C2B2B",
"B  c #2C2C2B",
"V  c #2F2E2E",
"C  c #323231",
"Z  c #323232",
"A  c #373736",
"S  c #373737",
"D  c #393939",
"F  c #414241",
"G  c gray27",
"H  c #4A4949",
"J  c #4B4B4B",
"K  c #4C4C4C",
"L  c #4F4E4F",
"P  c #505050",
"I  c #515150",
"U  c #555555",
"Y  c #575656",
"T  c #575756",
"R  c #595757",
"E  c gray35",
"W  c #5A5A59",
"Q  c gray36",
"!  c #616060",
"~  c #626061",
"^  c #626262",
"/  c gray42",
"(  c #6C6C6B",
")  c #737171",
"_  c #757374",
"`  c gray46",
"'  c #787877",
"]  c #7B7A7A",
"[  c #7E7D7D",
"{  c #7E7E7E",
"}  c #818080",
"|  c #848484",
" . c #888787",
".. c #888888",
"X. c #8A8A89",
"o. c #8B8B8A",
"O. c gray55",
"+. c #8E8E8D",
"@. c #8F8F8E",
"#. c #929090",
"$. c #939392",
"%. c #959493",
"&. c #989898",
"*. c #999998",
"=. c #9A9999",
"-. c gray61",
";. c gray62",
":. c #9F9F9E",
">. c #A09FA0",
",. c #A0A0A0",
"<. c #A1A1A0",
"1. c #A2A2A1",
"2. c #A3A3A2",
"3. c #A6A6A4",
"4. c #A7A7A5",
"5. c gray66",
"6. c #ACADAB",
"7. c #ADAEAE",
"8. c #AFAFAF",
"9. c gray69",
"0. c #B1B1B0",
"q. c #B2B2B1",
"w. c #B2B2B2",
"e. c #B3B3B2",
"r. c gray70",
"t. c #B4B4B3",
"y. c #B5B5B3",
"u. c gray72",
"i. c #B9B9B9",
"p. c gray73",
"a. c #BCBCBC",
"s. c #BDBDBC",
"d. c gray74",
"f. c gray",
"g. c #C0C0C0",
"h. c #C1C1C0",
"j. c #C2C2C1",
"k. c #C1C2C2",
"l. c #C6C6C4",
"z. c #C6C6C6",
"x. c #C9C8C7",
"c. c #C8C8C8",
"v. c #CACACA",
"b. c #CCCCCB",
"n. c #CDCDCC",
"m. c #CECECD",
"M. c #CECECE",
"N. c #D0D0D0",
"B. c #D0D0D1",
"V. c gray82",
"C. c #D3D3D2",
"Z. c #D4D4D3",
"A. c #D6D4D3",
"S. c #D5D5D4",
"D. c #D5D5D5",
"F. c #D7D7D5",
"G. c gray84",
"H. c #D7D7D6",
"J. c #D7D7D7",
"K. c #DEDEDC",
"L. c gray87",
"P. c #DFDFDE",
"I. c #E1E1DF",
"U. c #E2E2E1",
"Y. c #E3E3E2",
"T. c #E4E4E3",
"R. c #E5E5E3",
"E. c #E6E6E4",
"W. c #E6E6E5",
"Q. c #E9E8E6",
"!. c gray91",
"~. c #E9E9E8",
"^. c #EAEAE8",
"/. c gray92",
"(. c #EEEEEE",
"). c #F0F0EE",
"_. c #F1F1EF",
"`. c #F2F1EF",
"'. c #F1F1F0",
"]. c #F2F2F0",
"[. c #F3F3F1",
"{. c #F1F1F2",
"}. c #F4F4F2",
"|. c #F4F4F3",
" X c #F5F5F3",
".X c #F3F2F4",
"XX c gray96",
"oX c #F6F6F4",
"OX c #F7F7F5",
"+X c #F4F4F6",
"@X c #F6F6F6",
"#X c #F8F8F6",
"$X c #F9F9F7",
"%X c #FAFAF8",
"&X c #FBFBF9",
"*X c gray98",
"=X c #FBFBFA",
"-X c #FAFAFB",
";X c #FBFBFB",
":X c #FCFCF9",
">X c #FCFCFA",
",X c #FCFCFB",
"<X c #FDFCFB",
"1X c #FDFDFB",
"2X c #FAFAFC",
"3X c #FBFBFC",
"4X c gray99",
"5X c #FDFDFC",
"6X c #FCFCFD",
"7X c #FDFCFD",
"8X c #FDFDFD",
"9X c #FEFEFC",
"0X c #FDFDFE",
/* pixels */
"                                                                                                    ",
"                                                                                                    ",
"                                                                                                    ",
"                                                                                                    ",
"                                                                                                    ",
"                                                                                                    ",
"                                                                                                    ",
"                                                                                                    ",
"                                                                                                    ",
"                            z u r 9 r r 9 r r r 9 r 9 r r r r y r h                                 ",
"                  h u 9 < & . . . . . . . . . . . . . . . . . . . . . & < r                         ",
"              9 & . . . . . . . . . . . . . . . . . . . . . . . . . . . . . 9                       ",
"              < . . . . . . . . . . . & < @ . . . . . . . . . . . . . . . . &                       ",
"              r . . . . . . . . . 9 T *.1.| K u . . . . . . . . . h M c < . . u                     ",
"                9 . . . . . . . & ` ^.6X8X*X/.w.P < . . . . . c [ a.m.s.@.b . 9                     ",
"                  & . . . . . . S J.8X*X&X,X,X,X^.@.z . . . F k.6X@XT.V.c.:.z &                     ",
"                    & . . . . . ] @X*X&X:X:X$X,XQ.4.*.D . J J.@X8.6.K.n.u.u.Q &                     ",
"                      . . . . < 1.3X&X,X,X:X,X,X*.t W 0.( V.8X:.u C l.V.u.y.X.9                     ",
"                      < . . . r y.8X&X&X:X,X,X,X .$ = $.{.3X(.K . v h.V.s.9.-.u                     ",
"                        . . . 0 0.8X&X,X:X:X:X,Xh.g . T +X8X|.) : ! J.V.s.9.>.h                     ",
"                        . . . < <.,X&X&X&X&X$X,X XX.z ~ +X3X3Xx.[ n.R.V.s.w.:.d                     ",
"                        . . . & | *X&X&X,X,X,X:X:X|.m.P.*X*X:X$X{._.I.V.s.e.$.r                     ",
"                      0 . . . . W _.,X&X,X&X&X,X:X*X,X8X*X:X:X:X$X_.Y.V.s.u.} <                     ",
"                      0 . . . . B S.,X,X&X&X&X,X*X:X*X:X:X*X:X*X*X{.E.Z.k.s.R &                     ",
"                      9 . . . . < @.*X*X:X%X*X:X:X*X:X:X*X,X:X:X*X|.R.J.c.5.z .                     ",
"                      r . . . . . b s.,X,X,X,X,X,X,X$XJ.X.k.$X,X*X XQ.P.z.P . .                     ",
"                      < . . . . . . C 3.R.OX*X$X_.A.#.A & b @.F.).).I.y.P : . &                     ",
"                      < . . . . . . . t G ( ] _ R N : . . . : V T ! J z . . . &                     ",
"                      < . . . . . . . . . . . . . . . . . . . . . . . . . . . &                     ",
"                      & . . . . . . . . . . . . . . . . . . . . . . . . . . . <                     ",
"                      & . . . . . . . . . . . . . . . . . . . . . . . . . . . <                     ",
"                    u . . . . . . . . . . . . . . . . . . . . . . . . . . . . r                     ",
"                    9 . . . . . . . . . . . . . . . . . . . . . . . . . . . &                       ",
"                    9 . . . . . . . . . . . . . . . . . . . . . . . . . . . <                       ",
"                    & . . . . . . . . . . . . . . . . . . . . . . . . . . . 9                       ",
"                  z . . . . . . . . . . . . . . . . . . . . . . . . . . . .                         ",
"                  u . . . . . . . . . . . . . . . . . . . . . . . . . . . <                         ",
"                  r . . . . . . . . . . . . . . . . . . . . . . . . . . @                           ",
"                  2 . . . . . . . . . . . . . . . . . . . . . . . . . . <                           ",
"                  0 . & & . & . . # . . . # . . . . $ . . . @ @ . & &                               ",
"                                                                                                    ",
"                                                                                                    ",
"                                                                                                    ",
"                                                                                                    ",
"                                                                                                    ",
"                                                                                                    ",
"                                                                                                    ",
"                                                                                                    ",
"                                                                                                    ",
"                                                                                                    "
};
