/* XPM */
static char *cair1721836744[] = {
/* columns rows colors chars-per-pixel */
"50 50 218 2 ",
"   c None",
".  c black",
"X  c #000001",
"o  c #010101",
"O  c #020202",
"+  c #030302",
"@  c gray1",
"#  c #030304",
"$  c #040304",
"%  c #040404",
"&  c gray2",
"*  c #060606",
"=  c #070607",
"-  c #070707",
";  c gray3",
":  c #090809",
">  c #090909",
",  c gray4",
"<  c #0B0A0B",
"1  c #0B0B0B",
"2  c #0C0A0B",
"3  c #0C0B0B",
"4  c #0C0B0C",
"5  c #0C0C0C",
"6  c gray5",
"7  c #0E0E0E",
"8  c #0F0E0E",
"9  c gray6",
"0  c #10100F",
"q  c #100F10",
"w  c #101010",
"e  c #111010",
"r  c #111111",
"t  c #131012",
"y  c gray7",
"u  c #131312",
"i  c #131313",
"p  c gray8",
"a  c #151515",
"s  c #161515",
"d  c #161616",
"f  c #171716",
"g  c gray9",
"h  c #181817",
"j  c #181818",
"k  c #1A1818",
"l  c gray10",
"z  c #1B1B1B",
"x  c #1D1B1C",
"c  c gray11",
"v  c #1D1D1D",
"b  c gray12",
"n  c #202020",
"m  c #232323",
"M  c gray14",
"N  c #252424",
"B  c #252425",
"V  c #252525",
"C  c #272727",
"Z  c #282827",
"A  c #282728",
"S  c gray16",
"D  c #333331",
"F  c #323232",
"G  c gray20",
"H  c gray21",
"J  c #383737",
"K  c #393939",
"L  c #3A3A3A",
"P  c #3B3A3A",
"I  c #3C3C3B",
"U  c #3D3D3C",
"Y  c #424241",
"T  c #434342",
"R  c #434343",
"E  c #444443",
"W  c #444444",
"Q  c gray27",
"!  c gray28",
"~  c gray29",
"^  c #4C4B4C",
"/  c #4C4C4C",
"(  c #4E4E4E",
")  c #51504F",
"_  c #504E50",
"`  c #535353",
"'  c #545353",
"]  c #575656",
"[  c gray35",
"{  c #5F5E5E",
"}  c #636361",
"|  c #646464",
" . c #676767",
".. c #6A6A6A",
"X. c gray43",
"o. c #6F6F6F",
"O. c #717170",
"+. c #797978",
"@. c #7A7A79",
"#. c #878786",
"$. c gray53",
"%. c #888887",
"&. c #888888",
"*. c #8E8D8D",
"=. c #908F90",
"-. c #919190",
";. c #939392",
":. c #939393",
">. c #959494",
",. c #959594",
"<. c #949595",
"1. c #969596",
"2. c gray59",
"3. c #979696",
"4. c #979797",
"5. c #9B9B9A",
"6. c #9C9B9B",
"7. c #9F9FA0",
"8. c #A3A2A1",
"9. c #A4A4A4",
"0. c #A5A5A5",
"q. c #A5A6A6",
"w. c gray65",
"e. c #A7A7A6",
"r. c #A8A8A6",
"t. c #A7A7A8",
"y. c #A9A9A8",
"u. c #ABAAA9",
"i. c gray68",
"p. c #AEADAD",
"a. c #AEAEAE",
"s. c #AFAFAF",
"d. c #B1B0B0",
"f. c #B2B2B2",
"g. c gray71",
"h. c #B6B6B6",
"j. c #B7B7B7",
"k. c #B8B8B6",
"l. c #B8B8B7",
"z. c gray73",
"x. c #BCBCBC",
"c. c #BDBDBC",
"v. c gray74",
"b. c #BEBDBC",
"n. c #BEBEBC",
"m. c #C3C3C3",
"M. c #C4C4C3",
"N. c #C6C6C4",
"B. c #C7C7C6",
"V. c #C8C8C7",
"C. c gray79",
"Z. c #CAC9C9",
"A. c #CACAC9",
"S. c #CBCBCB",
"D. c #CECECC",
"F. c #CFCFCE",
"G. c gray81",
"H. c #D0D0D0",
"J. c LightGray",
"K. c #D4D3D2",
"L. c #D4D4D3",
"P. c #D5D4D3",
"I. c #D5D5D5",
"U. c gray84",
"Y. c #D7D7D6",
"T. c #D7D7D7",
"R. c #D9D9D7",
"E. c #D8D8D9",
"W. c #D9D8DA",
"Q. c #DADADA",
"!. c #DCDCDB",
"~. c #DEDEDD",
"^. c #DFDFDD",
"/. c gray87",
"(. c #DEDEDF",
"). c #E0E0DE",
"_. c #E1E1DF",
"`. c #E1E1E2",
"'. c #E4E4E3",
"]. c #E5E5E3",
"[. c #E4E4E5",
"{. c #E8E8E6",
"}. c #E7E7E8",
"|. c #E9E9E8",
" X c #EAEAE8",
".X c #EBEBE9",
"XX c #ECEBEA",
"oX c #EDEDEC",
"OX c #EEEEEC",
"+X c #EEEEED",
"@X c #EFEFED",
"#X c #F1F1EF",
"$X c gray94",
"%X c #F1F1F0",
"&X c #F3F3F1",
"*X c #F2F2F3",
"=X c #F4F4F3",
"-X c #F5F5F3",
";X c #F4F4F4",
":X c #F6F6F4",
">X c #F7F7F5",
",X c #F6F6F6",
"<X c #F8F8F6",
"1X c #F8F8F7",
"2X c #F9F9F7",
"3X c #F7F7F8",
"4X c #FAFAF8",
"5X c #FAFAF9",
"6X c #FBFBF9",
"7X c gray98",
"8X c #FBFBFA",
"9X c #FAFAFB",
"0X c #FBFBFB",
"qX c #FCFCFA",
"wX c #FCFCFB",
"eX c #FDFDFB",
"rX c #FBFBFC",
"tX c gray99",
/* pixels */
"                                                                                                    ",
"                                                                                                    ",
"                                                                                                    ",
"                                                                                                    ",
"                                                                                                    ",
"                            z                                                                       ",
"                          w . - - - 4 q w z                                                         ",
"                          5 . . . . . . . . - 1 a                                                   ",
"                            . . . . . . . . . . . - 5 v                                             ",
"                            - . . . . . . . . . . . . . 1 w                                         ",
"                            1 . . . . . . . . . . . . . . . . 5 a                                   ",
"                              . . . . . . . a U E M - . . . . . . 1 5 v                             ",
"                              - . . . . . P t.`.}.B.O.h . . . . . . . . 5 w                         ",
"                              1 . . . # F z.,XtX6XwXoX2.n . . . . . . . . . 1 w                     ",
"                              5 . . . i -.;X6X6X6X6X6X%X-.a . . . . . . . . . . 1 a                 ",
"                              - . . @ Y T.rX6X6X6X6X6X6XXXo.1 . . . . . . . . . . . 1               ",
"                            a . . . 1 +.$X6X6X6X6X6XwX2X].z.P . . . . . . - . . . . .               ",
"                            5 . . . a e.3X6X6X6X6X6X2XK.' { %.a . < G  .$.$.| S # . . 9             ",
"                            - . . . C N.6X6X6X6X6X6X3X5.w z 5.[ ^ 7.~.3X6X$X~.f.W - . w             ",
"                          w . . . . P U.6X6X6X6X6X6X3X4.5 1 2.U.[.rXW.2.u.~.U.S.e.M # w             ",
"                          1 . . . @ T ~.6X6X6X6X6X6X6Xv.n 0 e.6X0XK._ 4 Y B.G.x.h.^ -               ",
"                        w . . . . @ I R.6X6X6X6X6X6X6XoX>.X.T.rX2Xu.k = } G.A.h.s.] 1               ",
"                        1 . . . . . M n.6X6X6X6X6X6X6X6X3X;XrXrX2Xn.J ) k.K.m.f.i.~ 1               ",
"                      g . . . . . . 1 @.oX6X6X6X6X6X6X6X6X6X6X6X6X{.B.T.^.G.v.s.e.F 9               ",
"                      1 . . . . . . . M e.&X6X6X6X6X0X6X6X2X0X6X6X2X:X{.Q.A.l.s.$.z                 ",
"                    5 . . . . . . . . . M #.K.,X0X0XwX6X:X2X6X6X0X2X#X].U.M.f.i.` 5                 ",
"                  a . . . . . . . . . . . 1 F ..2.e.8.*.o.r.:X6X2X<XOX).G.v.h.=.v 5                 ",
"                  1 . . . . . . . . . . . . . . - 1 = @ . H N.2X6X:XXX!.A.v.i.W 1                   ",
"                w . . . . . . . . . . . . . . . . . . . . - ( A.<X<X{.!.G.h.[ 1 1                   ",
"              z - . . . . . . . . . . . . . . . . . . . . . - P >.A.U.M.2.W - .                     ",
"              1 . . . . . . . . . . . . . . . . . . . . . . . . 2 M G A 8 . . 1                     ",
"            w . . . . . . . . . . . . . . . . . . . . . . . . . . . . . . . .                       ",
"            5 . . . . . . . . . . . . . . . . . . . . . . . . . . . . . . . -                       ",
"              w - . . . . . . . . . . . . . . . . . . . . . . . . . . . . . 5                       ",
"                  w 1 . . . . . . . . . . . . . . . . . . . . . . . . . . 1                         ",
"                        5 - . . . . . . . . . . . . . . . . . . . . . . .                           ",
"                            a 1 - . . . . . . . . . . . . . . . . . . . 5                           ",
"                                  w 1 . . . . . . . . . . . . . . . . 1                             ",
"                                      z 5 - . . . . . . . . . . . . -                               ",
"                                            z 5 . . . . . . . . . - w                               ",
"                                                  w 1 . . . . . -                                   ",
"                                                        w 1 - 5                                     ",
"                                                                                                    ",
"                                                                                                    ",
"                                                                                                    ",
"                                                                                                    ",
"                                                                                                    ",
"                                                                                                    ",
"                                                                                                    ",
"                                                                                                    "
};
