/* XPM */
static char *piscar1721836744[] = {
/* columns rows colors chars-per-pixel */
"50 50 35 1 ",
"  c None",
". c black",
"X c #010101",
"o c #020202",
"O c #030202",
"+ c #030203",
"@ c gray1",
"# c #040303",
"$ c #040404",
"% c gray2",
"& c #060505",
"* c #070707",
"= c gray3",
"- c #090809",
"; c #090909",
": c gray4",
"> c #0B0B0B",
", c #0C0C0C",
"< c #0D0C0C",
"1 c gray5",
"2 c #0E0D0D",
"3 c #0D0D0E",
"4 c #0E0D0E",
"5 c #0F0D0E",
"6 c #0E0E0E",
"7 c #0F0E0E",
"8 c #0E0E0F",
"9 c #0F0E0F",
"0 c gray6",
"q c #101010",
"w c #111111",
"e c #121112",
"r c #131313",
"t c gray8",
"y c #181717",
/* pixels */
"                                                  ",
"                                                  ",
"                                                  ",
"                                                  ",
"                                                  ",
"                                                  ",
"                                                  ",
"                                                  ",
"                                                  ",
"               q101010001111091qr                 ",
"         yr1;$.....................$;r            ",
"       1$.............................1           ",
"       ;..............................$           ",
"       r...............................t          ",
"        1..............................1          ",
"         ;.............................;          ",
"          $............................$          ",
"           $............................          ",
"           ;...........................$          ",
"            ............................          ",
"            ...........................$          ",
"            ............................          ",
"            ............................          ",
"           r...........................$          ",
"           1...........................$          ",
"           r...........................$          ",
"           1...........................$          ",
"           $...........................$          ",
"           ;...........................$          ",
"           $...........................$          ",
"           $...........................;          ",
"          r............................r          ",
"          1...........................$           ",
"          ;...........................;           ",
"          $...........................1           ",
"          ............................            ",
"         r...........................;            ",
"         1...........................             ",
"         ;..........................;             ",
"         0##.#$$..$.$.#.$.$.$.$$$$$               ",
"                                                  ",
"                                                  ",
"                                                  ",
"                                                  ",
"                                                  ",
"                                                  ",
"                                                  ",
"                                                  ",
"                                                  ",
"                                                  "
};
