/* XPM */
static char *Cra5te1721860281[] = {
/* columns rows colors chars-per-pixel */
"50 50 37 1 ",
"  c #050302",
". c #0B0604",
"X c #120A07",
"o c #170C08",
"O c #1C0E0A",
"+ c #1F100A",
"@ c #21110B",
"# c #28150E",
"$ c #2F1911",
"% c #341C13",
"& c #391F16",
"* c #3C2017",
"= c #3E2218",
"- c #402317",
"; c #422319",
": c #48261B",
"> c #4C291D",
", c #522C1F",
"< c #552E21",
"1 c #582F22",
"2 c #5B3123",
"3 c #633626",
"4 c #673826",
"5 c #693927",
"6 c #673828",
"7 c #6A3A29",
"8 c #733E2B",
"9 c #74402D",
"0 c #7B432E",
"q c #7F4530",
"w c #80462F",
"e c #814630",
"r c #854932",
"t c #8D4D35",
"y c #904F36",
"u c #96533B",
"i c #98543B",
/* pixels */
";;;;;;;;--;;;;;;;;;;==;;;;=;=;;;-;;;;;;;;;;;----;;",
";:2899999099999999999999999999999999999999990982:;",
";220iuuiiiiuiiiiiuuuuiiiuiiuiiiiuuiiiiiiiuiuiy022;",
";8e20tt4;0ttttttttttttttyytttttytttttttt0;7yy0205-",
"-9i020t* 5yyttttyttttttttttttttttttttttt4.:t010r4-",
"-9it02003tttttttttttttttttttttttttttttttr40020yr4;",
"-9iw9029w09099qq000000000000009000000990909209ww3;",
"-9u*X90,,22221>>>>>>>>>>>>>>>>>>>>>,,22222,09X-t3=",
"-8i,%8q1etwetr>%%%%$%=%%*$*$$**$%%%>rrrerq2yq%2r3;",
"-8iytt82t8%4yir1<22><62<1<<2:26<1<<ruuq%3r2uyrtr3;",
";8iytt02t3.,ttut<<2><6222222>26211ruyy7X:r2uyttr3;",
"-8ittt01wt8etttir<<,<6221222>26,1rutryt7rr2uyttr3=",
";8itytq1wttttttyur<><7222222>222ruytttyyrq2uyttr3;",
";8ittt818wtttyttuur<<7222222>,2tuttytytrq81uyttr3=",
";8ittt8,:8wtttttttur222<2222><riytyyytrr8;<utttr3;",
";8iyttq,@:8wttttttuur2<2222<<ruyttttyre8;@<uuttr3;",
";8utyt82=@:9qturttttur2<22<<ruttttttrq8;@=2uuttr3;",
";8itttq2<=O;9qrutttttur2<<<ruuttttttq8:@=<2utttq3;",
";8uytt92<2&O;9qrtttuttur<2rutttttttq8;@;222utttr3;",
";8utttq2<2<&@:9qttttttuuqruutttturq8;@>6222uuttr3;",
";8iyyt92<2<<>@;9qrtttttruutrutttrq9:O%332<2uuttr3;",
";8ityr92<2><7;@:9qttttruuttutrttq8;@=>332<2uuttr3=",
";8iytt92<<<<72=@:8qttruutttttttq9=@=2>262<2utttr3;",
";8utytq22<<>72<=@:8qtuuuttttttq8:@=<2>332<2utttr3;",
";8ittr8222<>6222=@:9uutttttttq8:@=<2<>33212uyttr3=",
";8iyytq2<2><72<22=>tutttttttqqq>=<22<>36113uyttr3;",
";8ityy82<2<<7222<<ruyttytttqqtur2<222>33212uyttr3;",
";8itty83<2>>732<2ruttttturqqtttur<<22>33112utttr3=",
";8iyyr8322<<72<<rittttyttqqtttttur2<1>26112uyttr3;",
";8ittt82<2<>7<<tuttuytttqqttttttyur2<>66112uyttr3;",
";8ittt83<2<<32rutttttytq89qtttttttur1:26212uytyr3=",
";8ittt83<<<>2ruyttytttq8::8qttttttyur<26222uytyr3;",
";8uytt8222,<ruytttttte8;@@;8qtytttttur22212uytyr3;",
";8ittt83<<<tuytyttytq8:@&;@;8qttttytyut1<<2uyttr3;",
";8ittt82<<rittttttte8;@&21;@;8qtttttryur1<2uyttr3&",
";8itytq1<riytttytte8;@&2221;@;8qtyttytyur<2uytyr3;",
";8uyyrq2ruyytyttte8;@:22212<&O;8qtytyyttur2yyttr3;",
";8utyt82tyyyttttr8;O&7212222>*#;8qrtttttyr2uyttr3;",
";8iytt82rq<8tyt88;@%17212222>2>@;8qttyr18r2uyttr3;",
";8iyyr83r2 >yyr8;@&>17211222>26=+;8qry6 ;r2uyytr3;",
";8ir0tw2re<8tr8;@&1,17122211>261-@-90tw,8r2uyqrr3;",
";8i-O8w2qrrre8:@&,1><3111111>131,*@:9wrtrq2y9o:r3;",
";8i>#88,2232221123222332322223323311222222<qq#>r3;",
";8ity8,wuuuuuuuuiiiiiiuuuiiiiiiiuuuuuiuiuuq29rtr3;",
";8iyw1w5>eyyyytytytttttyytyytttyttyyytttw>8020tr3;",
";8i8,0y* 4ytttttttttttttttttttttttttttty3 -t029t5;",
";80,0yy83rytttttyyyyytytttttytyyttttttttr30yt0207;",
";,3wrrrrrereererrwwreereererreeewrwwrwrrwrwrwt021;",
";:1543333333333333333333333333334433433333333351:;",
";;;-;;;;;;;;;;;;;;;;;;===;;;;;;;-;-;-;;;;;;;;;;;;;"
};
