/* XPM */
static char *Crate1721860282[] = {
/* columns rows colors chars-per-pixel */
"50 50 44 1 ",
"  c #0A0603",
". c #0E0905",
"X c #110B06",
"o c #170F08",
"O c #1D130A",
"+ c #23160C",
"@ c #2F1E10",
"# c #362313",
"$ c #3F2613",
"% c #412714",
"& c #432915",
"* c #482C17",
"= c #472D19",
"- c #492F1A",
"; c #4D311A",
": c #55351D",
"> c #59371F",
", c #5A391F",
"< c #5D3A21",
"1 c #613D24",
"2 c #674124",
"3 c #6A4326",
"4 c #6D4428",
"5 c #71472A",
"6 c #754A2B",
"7 c #7A4D2D",
"8 c #7E502E",
"9 c #81512F",
"0 c #865431",
"q c #895632",
"w c #8C5932",
"e c #925D34",
"r c #966036",
"t c #9A6337",
"y c #9C6339",
"u c #A1673A",
"i c #A4693B",
"p c #AC6E3D",
"a c #AE703E",
"s c #B0723F",
"d c #A96D40",
"f c #AE7040",
"g c #B67644",
"h c #B87745",
/* pixels */
"11111<11111111111<<1111111111111111<12<<1<11111111",
"139rttyyyytttrtryyyyytttyrttrryytrttyyyryyyyyte831",
"107yggghshhsggggggggshggggggggggghhggggggggggsr881",
"1ey7raf7,yapfaaaffddpaaafdaaffddapapdfaar:0dpr8tw1",
"1tgt8ra-.waaaaaafssaaaaaapsssspspsapaaaa7 1ar7tiq1",
"1rgar8tr9uapiaaapppsppaapppapppppppppppay8tt8ysuq1",
"1ygyrr8rytttyyyyyyyytyyytyuyyytyututyrrtyir8rwiuq1",
"<yg=Oer588888743222222222222222222247888875ywo,i81",
"<yg2*ru9uiuiai5;:<<;:1:::,::;,,::::4ipiuuu7ge%6uw1",
"1ygdipt7pq&9ahp65664787776764787757dhde&7u9hsppuq1",
"<yhfspt7p6X2aaha66747077777747w757pgss9X<u9hssauq1",
"1rgfspy8iieiaaasd6647077777747w57pgspppwui9hspppq1",
"1yhffpt8upaapaaagd737w7777774787pgppappaat9ssaau01",
"<yhdaiy7ruppaaapfgd56w777777458fgapaaaapuw9gaaauq1",
"<yhfapt42rupapaaffgd7787777745dgspaaaapte36gaaau01",
"1yhdapy4&2rupaaaffdgd76777757dgfpaaappue1*6gapapq1",
"1ehaait6,*1eupaaaapagi767767igaaaapppue1*<9ssaauq1",
"1thaapu77<*1eupfaaaaagd6657dhaaaaafpye1*179haaau01",
"1yhaapt677>%1eidapaaaagi77dgaaaapapye1&1969hsaau01",
"1yspppu6676>;1eiiaaaaaagydgapaaappue1%10669hsaauq1",
"1yhfapt677551=1eyaaaaaaaggapaaaapye1%190969gffpu01",
"1ehappt76756q<=1rupaapiggaaaaaapue1&1109669gfpppq1",
"1yhaapt77755q7<&2ryaaiggppaaaaiye1%17109979gfaauq1",
"1ehpapt66756q77<&2rupggaaaaaapue1%199190669haaau01",
"1yhpape76765q777,%3yggaaaaaapue2%1677109779gspauq1",
"1ehpapu67756q7777<5pgspaapaatuy317777599679gsaai01",
"1yhfppy66756q77767pgppaaaaptypgp667776qq779hsaaiq1",
"1yhfppu66755q9767dgspaapapyupppgd7677199769ssaau01",
"1yhpapt66765q757dgaaaaaapuupaapahi757699779hsaaiq1",
"1ehpapt67756q67phapaapapyypaaaaaphd65190769hspauq1",
"1yhpppu6675597phaaaaaapuerupaaaaaahd7109769gsaai01",
"1ehpppu677549dgaaaapapte24eypaaafpphd790669gspauq1",
"1yhfapt69619fhfpaapapye1%%1eupaaaapahi97779gfaau01",
"1yhpppt6666dhfaaaaapue1%<<*1euppaaapphi7579hfpauq1",
"1yhpppy619dhapaapapye1%>961*1tupaaaapagp71qhsaau01",
"1ehpppu60fhpaaaaapue1%19669<&1eupaaaapphd69hsafu01",
"1yhpfpy6phsaaapadue1&1909677:%1yyppaaaaahu7gsaauw1",
"1ehfppy9psssaaapue1$109196961>*1eyppapaaai9gsaau01",
"1yhfppe9pe1eaapue1;17q996966191%1tupaau1eu9hspai01",
"1yhfapy9p6 1apye1%111q01966979q1*1eupp9 >u9hsasuq1",
"1tsptpt7ie3eaue<%>910w9977771907,&2rypy3eu9gprii01",
"1us;+eu8uiuuue1*16616q91776657976,*3etpuut8gwO,iq1",
"1rs<#rr699999976999990999999999998688990976uw@3i01",
"1ysppr7ushhhgggghhfhhhgghhggghhhgghggshsggt7tpaiq1",
"1yhpr7t91ussaasssssasssfffafsssssassssssy,qt8tau01",
"1rgr7ua*.waaapaaaaaaaaaapppapppaaaaaaapa8 ,at7tpq1",
"1ee7uaae7iaaaaaaaaaaaaaaaaaaaaaaaaaaaaaau7taat8rw1",
"199tiuuiiuuuuuuuuuuuuuuuuuuuuuuuuuuuuuuuuuuuuir891",
"139wqqq0q00q00qq00q0q00qq0q0q0qq9wqqq9qqqq00q0w931",
"11111111111111111111111111111111111111111111111111"
};
