/* XPM */
static char *Stone_Floor_Tile_Prop_Asset_Text1721860282[] = {
/* columns rows colors chars-per-pixel */
"50 50 66 1 ",
"  c #362F25",
". c #363024",
"X c #3C352B",
"o c #3F382E",
"O c #3F3830",
"+ c #40392F",
"@ c #443D34",
"# c #474036",
"$ c #484137",
"% c #4C453B",
"& c #4F483E",
"* c #50493F",
"= c #4F4840",
"- c #544D43",
"; c #575045",
": c #585147",
"> c #575048",
", c #5B544A",
"< c #5F584E",
"1 c #605A4F",
"2 c #645D53",
"3 c #676056",
"4 c #686157",
"5 c #676058",
"6 c #6C655B",
"7 c #6F685E",
"8 c #70695F",
"9 c #736D62",
"0 c #777066",
"q c #787167",
"w c #777068",
"e c #7C756B",
"r c #7F786E",
"t c #7F7870",
"y c #80796F",
"u c #837D73",
"i c #878076",
"p c #888177",
"a c #878078",
"s c #8C857B",
"d c #8F887E",
"f c #90897F",
"g c #8F8880",
"h c #938C82",
"j c #979086",
"k c #989187",
"l c #979088",
"z c #9B948A",
"x c #9F988E",
"c c #9F9890",
"v c #A09A8F",
"b c #A39D92",
"n c #A7A096",
"m c #A8A197",
"M c #ABA49A",
"N c #AFA89D",
"B c #B0AA9F",
"V c #B3ACA2",
"C c #B7B0A5",
"Z c #B8B2A7",
"A c #BBB4AA",
"S c #BEB8AD",
"D c #C1BAAF",
"F c #C4BDB2",
"G c #C7C0B5",
"H c #C8C2B6",
/* pixels */
"bmmMh@pVMDN75zggy1guu,8lnu1yxbBnlzMVBVN%ychz2<znMM",
"VVVVz:hAVBb9>w27>1juy6yuuk25nBnxNbMNNVM=yzzc<,bbbb",
"VVbmz6zVCBVu7zhcu<yyuyyhuy-,ylMbbVVmMHN-uuul<ymkmM",
"bbzls2lAVCBy2Mmmz-6uny-uzy,8yynDMCVmbAc,yuuc,ymbxz",
"2euy2@ebbbz2>guuu>umVy+622@1uyycmkzhuuy,zcmNy%uuuy",
"2euu96uhuuu12uyyy-23y1+6uy@,uy1>->yyyyyXuuuuy1yuyy",
"bMbMVVVmDVDybMkbNy7,6u6zny,yhnVh<<zhlmm2&y&-2uzzuu",
"bMbbbbMMmVM2hmhhkug6yhyhnu>2znnMu,lzNuuy<buyykzbvz",
"bNbzvNVCbDb7kMukbuucuyyybl=:uuuuy&uyuzly@uzzbbcuzx",
"MbbvvbNbbVC6khfuyyubbuyyhu&yuy66y&2yyyy&yuzxMnxluu",
"lhlllvbbVMC0uffubu2yuMlu5<@uVzbmMyymuuu1yzlhnnbzbu",
"edsuussdMbz227,2y6y1yyy,yy2hMhMMNy<muuy&ubhuuuuyuy",
"6u07y1@7yu7@2u9u1>uyy ,uyu3ubjDVMy<zhzy%unuu2-2,&y",
"fzdlv2%svbf=yuyhy1VMn<yugcygmkZVby2kzcy-cxjby@yy>y",
"dfhvl2,hzvl19ffhy<ccz62yuMyuBhMNnu2xzju<xzlmy=hbyy",
"sfvbu7whlzly1huf4ycbu6,yzM6uVujcxu-uuyy,vbcv61buuu",
"17ipi*ifmvf7*730:2zyySZidfy;28;yy@25y2>>cczNy+2248",
"diipy*0ffff87xfx3yyyfGBVip;7fSMfyyNVDnuylMmny-yyyu",
"dffff74fNnvrfHSSuyMDBBNfBN,ySHCBBuMbVZz>zljcy1buyu",
"fffff78fvfv4fSBNyyBNCBNHBf*iSBBMgyVnbMc<zvcmy1bnff",
"iffff8;dfnn4dCCSyyNmNmfZff*dHCCNl6nbbzh>ujuu1ybujj",
"478ip;+1488+*qqi4+ffuuffCf;fHBNNM-6yyyy ,3::++y446",
"ffdff40dipp11fdf4,y3yyyfff;iZCNZMycMMbcyykzz1+yuyy",
"NCZZC4fnnnfi0Nvvy<uvmCy:0d;pCBmCVyMVDNMg6cvzy4yuuy",
"fFCfSi4fmmvy1vvf4;xfpxvi8q;iSSNCBynVVVBuybcv6-ghuy",
"iCHffifCxnx4*yyy;;ddpjdqyi;1ffffu6NVMBVu6kuu6-uudy",
"$400i$fSmNx;;7471;088q88<8o.40417-xNBNNy+2186>7961",
"i88ii;fCnnv7xCBBBNNnNBNZfZiqffffu@76y8y=ubcmDVNbvh",
"pipff77pddf4NSBNvnnNBBmCBCyyffffb-8yyyy=kDNbNDmnnz",
"iiiifi1i;17;jBNCBCBCSSBCCCppNfnfu>hDDBz6uBDMmCMMMv",
"fffdp2iffpi4vCNBSSBCBZBNBBddnfffu2hbbbz18ynmbMbmbz",
"dipff;ffmdq4jSBBBCNCNCBnCCy0iidyh2kzmDM,u8hbmCMMvj",
";;;iu>uMlbm5lVAMmmVnNVzMCN93pppsv2zvNZb,,22uyww722",
"i8iiu>eVhcc,wggtddthlihh29-6xbzlB1uvZAz,dVbv2109yy",
"fbffzyqklla%,ww9.,22>,0239-3kllhp%-1221,vVZDuubbbv",
"fffNV92fatt<tMMm1<hmlhhmbz,&2<,,;2ufye;@FVbCuebbff",
"0pyyy*:859twtnll=&episskhh<<uridfxlhfvy2DbMA91uuy8",
"ff7,3*yf5tgtwcgl;pdr6enkzz69hhhlbvusfky2AAAV2,u9uu",
"d0ybM13sallw=t8wdxknd6ixhj69zhjbbbhffse6ugyw=2bzdd",
"%*y83$*429w75MMMMjkzzt:779#-0666wuyee9,.9wyu1,yy86",
"iiiieeiitau=,bBbxinngd6,90*-puuwy+,y721@zMMDu-ugyy",
"VCCSNNCGSmz22lcbkkzgpk7szh9uDVCVm6unhhu-lbbCu9VFDD",
"BNmffnnNchh64hgzsmvhss=tgu1tCnnMc<jMjzf@hNbzuyVMBN",
"CNnbmBNmccb7<r6660e676%dkp7gAVVCN6jzuuu-fMbbkvMbBB",
"nmmmNBBNVBB91iey1-99q1,juu7dNNVVc6ujcf9@uhkbhkzmMN",
"fBVBNmNBbxbe9kxVt1jhh2:rpu6gnmNMm23yvu6-hMCbybVCNN",
"NCMfvvnMNmBe8fpfe2ueu62phu3jMnnnD1--22,@ygcu2VCNmm",
"NBffvMmmbBC83kfs:>0qpi6hxu<xVNNBn7umbcu4g9uhyVbbbc",
"042073feuup$*877;O9slwtssk9hSBVZb2BDBnz1146y4@uw92",
"fffs*.fbnMM6qbzje,ugh8wadk0gSBCCv1MMmvd&uuuf7@ughy"
};
