/* XPM */
static char *kisspng_king_of_thieves_pathfind1721836915[] = {
/* columns rows colors chars-per-pixel */
"50 50 235 2 ",
"   c None",
".  c #793E28",
"X  c #6F3219",
"o  c #7B4238",
"O  c #7D432F",
"+  c #75603F",
"@  c #705C46",
"#  c #7E644D",
"$  c #7C6342",
"%  c #7A6451",
"&  c #514B5A",
"*  c #96562E",
"=  c #894936",
"-  c #994A39",
";  c #975639",
":  c #874D2F",
">  c #AC462E",
",  c #AC492B",
"<  c #AD4631",
"1  c #AD4933",
"2  c #A84838",
"3  c #B24633",
"4  c #B34932",
"5  c #B84D35",
"6  c #B94F3A",
"7  c #BA5335",
"8  c #B95637",
"9  c #AE4E32",
"0  c #A66035",
"q  c #B76B39",
"w  c #A86C2F",
"e  c #84643A",
"r  c #C4593C",
"t  c #CA5A3D",
"y  c #C2543A",
"u  c #D05C3B",
"i  c #C76A39",
"p  c #C9773A",
"a  c #D37B3B",
"s  c #935B4B",
"d  c #A65744",
"f  c #B25F4A",
"g  c #86684D",
"h  c #897744",
"j  c #856752",
"k  c #866954",
"l  c #896A55",
"z  c #8F6B59",
"x  c #8A725A",
"c  c #93755B",
"v  c #947D4D",
"b  c #AB704B",
"n  c #967562",
"m  c #B27D74",
"M  c #C95B41",
"N  c #C55C44",
"B  c #D27B42",
"V  c #D87B54",
"C  c #E57655",
"Z  c #8A813E",
"A  c #D9843C",
"S  c #D48C3C",
"D  c #E88C37",
"F  c #E6993C",
"G  c #F09A3D",
"H  c #E6AA3E",
"J  c #E7B33D",
"K  c #98894A",
"L  c #9D8A5A",
"P  c #8F884D",
"I  c #A59B4E",
"U  c #B2834B",
"Y  c #ACA54F",
"T  c #ACA551",
"R  c #ABA358",
"E  c #8A9475",
"W  c #A78968",
"Q  c #A99268",
"!  c #B1946F",
"~  c #AE9272",
"^  c #B39673",
"/  c #BE9473",
"(  c #B49975",
")  c #B69C7B",
"_  c #BB9E7C",
"`  c #B99977",
"'  c #AA8E72",
"]  c #88A677",
"[  c #BEA27C",
"{  c #BFAF74",
"}  c #BEAF6F",
"|  c #CB8544",
" . c #DD8545",
".. c #D98846",
"X. c #DC944A",
"o. c #DA9547",
"O. c #C7924D",
"+. c #E18B46",
"@. c #EA9846",
"#. c #F19A43",
"$. c #F29D4B",
"%. c #F19642",
"&. c #E99C52",
"*. c #D5A54A",
"=. c #EAA546",
"-. c #F4A444",
";. c #F4A34B",
":. c #F8A54C",
">. c #EAB747",
",. c #F3A852",
"<. c #F3B554",
"1. c #C29A77",
"2. c #C1A57E",
"3. c #D3B260",
"4. c #EDC24C",
"5. c #F5CD57",
"6. c #F3CB50",
"7. c #DCD265",
"8. c #E8D664",
"9. c #F5DF6A",
"0. c #F7E468",
"q. c #F2E368",
"w. c #DDCC5F",
"e. c #2D6A95",
"r. c #1979A7",
"t. c #1A7AB4",
"y. c #2577A7",
"u. c #2A72A8",
"i. c #196A94",
"p. c #6F6F84",
"a. c #5C7E9A",
"s. c #1B89B9",
"d. c #1B93B6",
"f. c #2C8CB4",
"g. c #658A91",
"h. c #72B290",
"j. c #4D97AF",
"k. c #51A8AA",
"l. c #77C194",
"z. c #54C5B1",
"x. c #038BCD",
"c. c #0886CC",
"v. c #0895CB",
"b. c #1894C9",
"n. c #038AD4",
"m. c #1489D1",
"M. c #0497D8",
"N. c #1B9CD4",
"B. c #1897DA",
"V. c #1A87CA",
"C. c #2696C8",
"Z. c #2299D1",
"A. c #2B90C6",
"S. c #05AADD",
"D. c #08A4DA",
"F. c #18A8D9",
"G. c #14B5DA",
"H. c #07B1DE",
"J. c #22ABD7",
"K. c #2DB0D7",
"L. c #0A9DE2",
"P. c #169CE3",
"I. c #09A9E5",
"U. c #16AAE6",
"Y. c #0BB4E5",
"T. c #04B4EC",
"R. c #0AB4EC",
"E. c #04BBED",
"W. c #0BBBEB",
"Q. c #08B8E4",
"!. c #14B3E6",
"~. c #14BDE6",
"^. c #07B9F2",
"/. c #22B2E3",
"(. c #4EB1D7",
"). c #5BACD4",
"_. c #03C3EC",
"`. c #0AC3EB",
"'. c #0ACCEC",
"]. c #07C9EB",
"[. c #17C8E8",
"{. c #09D4EE",
"}. c #0AC9F5",
"|. c #0BDBF4",
" X c #08D7F5",
".X c #13D9F3",
"XX c #12CBF1",
"oX c #34D0E9",
"OX c #0BE2F3",
"+X c #0AE3F9",
"@X c #0CEDFA",
"#X c #06E7F9",
"$X c #11EBF7",
"%X c #0AF5FB",
"&X c #08F7F6",
"*X c #12F0FA",
"=X c #26C9DB",
"-X c #7BC0DF",
";X c #4ED1E7",
":X c #68D5E9",
">X c #6DE3F3",
",X c #BD9E80",
"<X c #83B385",
"1X c #87AA88",
"2X c #BEA180",
"3X c #C1A583",
"4X c #C5AA85",
"5X c #CAAD87",
"6X c #C6AB8A",
"7X c #CBAE8B",
"8X c #C9A786",
"9X c #CCB18A",
"0X c #CAB285",
"qX c #D3B78D",
"wX c #CEAE90",
"eX c #CEB393",
"rX c #CFB994",
"tX c #D2BB95",
"yX c #D5BD9A",
"uX c #D8BC97",
"iX c #D7BDA0",
"pX c #DCC297",
"aX c #E4CC9E",
"sX c #E4CA9D",
"dX c #E9D09F",
"fX c #E5CCA0",
"gX c #E9CCA2",
"hX c #EBD1A5",
"jX c #F1D0A8",
"kX c #97FEFF",
"lX c #ACF1F6",
"zX c #9BD3EA",
"xX c #D7FCFB",
"cX c #C7F0F6",
"vX c #ECFCFA",
/* pixels */
"                                                                                                    ",
"                                                                                                    ",
"                                                                                                    ",
"                                                                                                    ",
"                                                  e.r.r.y.                                          ",
"                                                r.G.`.I.F.d.                                        ",
"                                              r.[.*XQ.n.v.I.b.                                      ",
"                                    y.t.C.d.y.b.Q.D.I.R.T.S.!.e.- ; d d d                           ",
"                        s d d d p.s.(.;XXXW.!.F.m.M.}.^.!.U.U.j.m C C C C f                         ",
"                        d C C m A.>XkX:XU.R.R.`.F.J.G.B.G.G.~.J.j.a.n M M 3                         ",
"                        - u N a.=X>X:XJ.M.I.Y.D./.A.K.;X;X.X+X|.|.[.j.p.N 2                         ",
"                        - M s f.`.m.S.R.W.`. XU.B.;XlXxXcXK.S.E. X+X|.C.p.s                         ",
"                        = o & C.R.M.R.T.^. X.XN.;XlXvXvXlXC.n.c.x.Y.{..XK.&                         ",
"                        e.A.f.F.!.M.}. X|.+X~.H.oXlXcX-XV.x.x.x.x.n.M. X=Xu.e.                      ",
"                    i.v.}.R.M.B.~.U.R.!.~.!.N.[.XXZ.V.c.S.{.|.|.`.I.I.W..XZ.V.t.                    ",
"                    b.@X+XY.M.m.F.Z.J.G.[.[.F.G.U.x.x.Q.OX&X%X%X%X{.T.E.$XG.P.I.t.                  ",
"                  y.I.Y.T.L.I.Z.A.:XlX:X~.{.|.[.N.c.v.|.%X#X]._. X#X_.E.@XG.m.L.L.u.                ",
"                  s.I.n.T.^.U.Z.;XxXxX-Xc.x.D.].[.b.I.&X%XE.T.^.E.#XE.E.%X~.m.L.I.t.                ",
"                  s.I.M.E. XF./.oXzX).m.S.D.M.M.'.!.`.&X X}. X_.+X+XT.].$XJ.B.L.L.t.                ",
"                  s.D.T.R.W.N.[.S.x.D.{.*X@X|.T.].[.W.%X}._.%X@X|.E.T.#X.XN.U.n.B.u.                ",
"                    C.`._.R.B.XXS.x.{.*X|.].|.`.=X.XG..X#XE._._.^.T.{.@XJ.B.R.Y.t.                  ",
"                      d.[.XXN.[.H.D.$X{.G.k.h.h.<X] ] h.h.=X'._.'.OX$X=XC.U.F.s.                    ",
"                      P h.g.g.g.k.k.z.k.1X3.5.6.5.6.5.5.>.] l.h.h.l.<XE E ] ] @                     ",
"                    v 9.0.8.8.8.7.7.w.w.S =.H =.-.=.-.=.F *.q.q.q.q.0.0.0.0.9.T .                   ",
"                  . O.4.4.6.4.4.4.4.4.>.D $.-.=.S | =.;.%.F >.>.>.J J H H H =.S =                   ",
"                  o q G %.G G #.%.#.#.#.D #.;.p X . F -.%.D %.G #.#.$.#.@.%.;.q                     ",
"                    * $.-.;.+.A +.+.S +.A G :.@.: * #.-.F A  . .B B a A ;.-.$.;                     ",
"                    O | -.;.p 9 5 , < 9 9 @.-.,.w w -.-.a , < < < 5 5 B $.-.S =                     ",
"                      0 ;.A 8 t M 3 1 3 , ..-.=.*.*.$.;.B > 3 3 4 t t 8 p ;.q                       ",
"                      : X.B 7 i t 5 3 3 < B :.;.<.,.;.;.q < 3 3 4 y M 6 A &.;                       ",
"                        q &.7 r t 5 3 3 2 4 i a p p i q 1 < 1 3 3 y r 7 @.|                         ",
"                        = @.i y t 5 3 4 3 3 < 6 1 > 1 1 3 3 3 3 4 4 r i ,.*                         ",
"                        = p ..6 N 6 3 3 3 3 3 y r < 6 4 , 4 3 3 3 5 y B o.:                         ",
"          h h h v h h h e * $.8 r M 5 3 3 3 3 y r 3 5 3 3 3 3 3 3 5 8 @.q s c x z x k k %           ",
"        + K Y Y T Y Y I T b o.p 1 y 3 < 3 < < 6 7 1 4 < 3 1 3 , < 3 i &.b eX9X9XwX6X6X3X' x         ",
"        + K T Y Y Y Y Y T I U &.+... ... . . . . . . . . . . . . ...B ..^ iXpXyXiXpXiXiX6Xc         ",
"        k P Y Y Y Y Y Y T T U O...O.X.X.o...o.o.o.o.X.X.X.o.X.o.o.X.0 b wXyXyXpXrXpXpXtX( n         ",
"        x h I Y T Y Y Y T 2.7X2.1.` / / / / / / 1.` / 1.1.1.1./ 1.1.1.6XyXyXyXiXyXpXrX2X~ c         ",
"          $ K I I I Y R { rXyXyXtXyXyXtXrXtXrXrXrXeXeXeXrXeXeXeXeX7X7X6X6X6X4X2X2X2X2X[ ~ x         ",
"          h P Z Z P P L ) ,X,X) [ ) ) ) ) ) ) ) / ) ) ( ^ / ( ( ^ ( ( ( ^ ^ ^ ( ( ,X( ( ' j         ",
"        g v L L P P v W ! ! ! ! ^ ` ` _ ` _ _ _ ` [ _ [ [ [ [ [ [ 2.2.2.2.2.4X4X2X2X2X0X{ W %       ",
"    # ) qXpXpXsX[ W 0XfXfXaXfXfXgXfXgXdXdXdXfXhXdXhXhXhXhXhXhXhXhXhXhXhXhXhXhXhXhXhXhXhXhXjX~ %     ",
"    c qXsXsXsX` W tXfXsXsXsXaXfXsXaXaXfXsXfXfXfXaXdXdXaXdXaXaXfXhXfXdXaXaXaXaXaXhXfXaXfXsXuX~ #     ",
"    n 5X3X6X7X~ ( 6X2X2X[ 3X4X6X5X0X5X7X7X9X7X9X7X9X9X9X9X9X9X9X9X9X9X9X9X9X9X9XrX0X2X0X4X5X^ #     ",
"    W 7X7X7X7X6X2.! 2.qXqX5X^ 8X7X7X9X7X5X7X5X5X5X5X5X8X7X5X5X7X0X5X5X5X5X5X5X5X7X5X7X7X0X7X2.g     ",
"    c ^ ^ / ` / W 1.qXuXpXtX_ ! 1.1._ ) _ _ [ _ [ ,X2X2X,X,X,X_ 2X2X2X2X2X2X2X2X[ 2X[ ,X_ ,XW #     ",
"    j # g j g g z 2.8X5X5X7X8Xg g z j k k g j j j j k j l l l l k l k x                 n x         ",
"                  c c W W W c j                                                                     ",
"                                                                                                    ",
"                                                                                                    "
};
