/* XPM */
static char *_c7bd582b7874292f740390261eea22cbH34XuqZFRe7A0q8[] = {
/* columns rows colors chars-per-pixel */
"50 50 121 2 ",
"   c None",
".  c #0B0A0A",
"X  c #120E0F",
"o  c #10100F",
"O  c #140F10",
"+  c #151111",
"@  c #1A1414",
"#  c #1D1817",
"$  c #1E1919",
"%  c #221C1B",
"&  c #26201F",
"*  c #28211F",
"=  c #251F20",
"-  c #262120",
";  c #2B2423",
":  c #2E2826",
">  c #2F2D2A",
",  c #302A27",
"<  c #302A28",
"1  c #302B28",
"2  c #312B28",
"3  c #322B28",
"4  c #322B29",
"5  c #322C28",
"6  c #322C29",
"7  c #332C29",
"8  c #322C2A",
"9  c #332D2A",
"0  c #332E2B",
"q  c #342D2B",
"w  c #342E2B",
"e  c #342F2B",
"r  c #352D2C",
"t  c #342F2C",
"y  c #352F2C",
"u  c #352F2D",
"i  c #372F2D",
"p  c #372E2E",
"a  c #322C29",
"s  c #382E2E",
"d  c #31302C",
"f  c #32302D",
"g  c #35302C",
"h  c #36302C",
"j  c #36302D",
"k  c #36312E",
"l  c #37312E",
"z  c #37322E",
"x  c #38302E",
"c  c #39312F",
"v  c #3A312F",
"b  c #38322E",
"n  c #38332F",
"m  c #39312F",
"M  c #393330",
"N  c #3A3230",
"B  c #3B3231",
"V  c #3D3333",
"C  c #393430",
"Z  c #3A3430",
"A  c #3A3431",
"S  c #3A3531",
"D  c #3B3531",
"F  c #3A3532",
"G  c #3B3632",
"H  c #3D3433",
"J  c #3E3433",
"K  c #3C3633",
"L  c #3C3733",
"P  c #3F3534",
"I  c #3F3634",
"U  c #3D3332",
"Y  c #3C3834",
"T  c #3D3834",
"R  c #3D3835",
"E  c #3D3935",
"W  c #3E3835",
"Q  c #3E3935",
"!  c #3E3A36",
"~  c #3F3A36",
"^  c #3F3A37",
"/  c #403635",
"(  c #413636",
")  c #413736",
"_  c #413736",
"`  c #423837",
"'  c #403B37",
"]  c #423837",
"[  c #413B38",
"{  c #403C38",
"}  c #413C38",
"|  c #423D39",
" . c #433E3A",
".. c #433F3A",
"X. c #443F3B",
"o. c #44403B",
"O. c #45403C",
"+. c #46413D",
"@. c #46423D",
"#. c #47423E",
"$. c #47433E",
"%. c #494540",
"&. c #4A4541",
"*. c #4A4641",
"=. c #4B4742",
"-. c #4C4843",
";. c #4D4943",
":. c #4C4944",
">. c #4D4944",
",. c #4D4A44",
"<. c #4F4B46",
"1. c #504D47",
"2. c #514D48",
"3. c #514E48",
"4. c #524F49",
"5. c #53504A",
"6. c #54504B",
"7. c #54514B",
"8. c #55524C",
"9. c #56534D",
"0. c #57544D",
/* pixels */
"      . . . . . . . .       . . . . . .         . . . . . . . . . .     . . . . . . . . . . .       ",
"    . # % - > > > > : +   . # - > > > > &     + # - : > > > > > > > & . # - > > : - - : > > : o     ",
"  . + : L #.7.9.9.9.:.+ . + 4 #.0.9.9.9.f . . % k | :.9.5.5.7.9.9.9.f + : X.7.7.&.| X.:.9.9.:.@ .   ",
". # : R &.5.7.9.9.;.| : y R :.5.9.9.-.X.' C : k | 4.7.5.#.| #.5.5.#.' R R | X.| | | 4.7.9.;.| R - . ",
". @ ; k | :.5.9.9.| , - 4 L &.1.9.9.#.b C M 9 C | &.1.4.y y C &.&.C C C C C b 9 y C &.1.9.#.M C % . ",
". + % : M X.4.7.7.C % % * 4 R &.5.5.| : : ; : k ' | &.:.% & 4 R R , : : ; ; ; % & 4 R &.5.| ; ; # . ",
". + % : C X.5.5.#.9 % % % % , C X.o.9 % @ + % ; e ' | ' % % % 4 4 % % % + + + O @ % 4 C #.e % X .   ",
". + % ; k | 4.4.| : # % % % : M | ' : # @ O # & 4 R ' L % % % ; ; % % # O . X . @ % ; k R : # .     ",
"  . . + % y | | k % O O @ % : C [ y % O O O O @ % 4 9 4 % @ O + + O X X X X X X O + % % % # O .     ",
"    . . # ; b k % @ X . + @ & 4 k % @ O O O X + @ & - & @ + O X O % % % % @ X X X O @ % - & % .     ",
"    . . @ % ; ; + X X X . O # & ; + O + + O X O + % % # O O + + + ; , 4 9 % + X X O O % 4 4 : + .   ",
"    . . O O + + O O O X X O O + + O O + + O X # : : % + O X + # % % - 4 , : ; @ X X # - 4 , , : # . ",
"    . X X X X X O O O @ + X X X O @ @ O O + @ & 4 4 ; % + + @ % % % - 4 b b y @ + @ % - 4 e b M % . ",
"  . . X X + + + @ + O # @ + X X + # @ O + + % - 4 9 9 : + @ % % % % ; e I I y + @ % % ; 9 b / L % . ",
". . X X @ % ; : : % O O % ; + X X + O X @ % % - 9 L / M + @ % % % ; y I ' ; @ O X + ; b / / V # X . ",
". . X X @ % - ; , ; % + @ % % % % % @ X + # & , M / y - + + # & ; y L I ; # X X X O # & - - - @ . . ",
". . X X @ % % % , 9 , @ X + ; , 4 9 % . X + : M / V - X O X + ; : M V s @ + + + + + + + O O O O . . ",
"  . . X O + ; 4 L / M + @ % % - , 4 % O O + M / V # + O O X X + + @ @ @ X % : ; ; ; : % O O O . .   ",
"    . . . O # % L y - + @ % * , b b & X O + - - - + @ % % % # @ @ + O O @ & 4 4 4 4 4 ; % # O .     ",
"      . . X . + V - X X @ % : b / ' - X X O O X X X % 9 4 4 : % % + X + % - 4 4 , 4 , 4 9 % X .     ",
"      . . X X + - % O X # ; y L / ' - X O O X + @ % ; 4 , 4 : # @ # + + % % ; , 4 , 4 4 4 ; % X .   ",
"      . X + + + @ + O X # , I / / V - O O O + # % : , 4 9 , ; + X # @ + % % % ; , 4 4 4 , 4 : @ . . ",
"    . X # : ; ; : % O X O @ V ' V # @ O X + # % % % - 9 L ; + O O X X O % % % % - , , , , , ; @ . . ",
"    . @ & 4 4 4 4 ; % + X + - - - + O X @ # % % - - , M / - + % % % @ O @ # % * , b b b b b e @ . . ",
"  . . # - : , 4 , 4 : @ O + + + + + O X @ % % ; 9 9 y V V - + : 4 9 % O X @ % 4 M / / / / I s @ . . ",
". + % % % % : , , , ; @ X + ; : ; @ O O O + ; b / / ; @ @ @ % : 9 I - O O % 4 L / / / / ' ; @ . .   ",
". + % % % ; y b b b e @ + # & ; : % # O O + % & - - # O X # ; y y ; % O O # % - y / / y - # . .     ",
". + % % ; e I / / I y + @ % % ; 9 9 % O O O O O + + + O O # : M s @ O + @ @ + . - V V - X . .       ",
". . + ; y I / / ' ; @ O X + ; y I / - O X X X % : : % + # @ + @ @ X X + ; : ; + + @ @ + X X X .     ",
"  . . # 4 / / I ; % @ O X + e L I ; # X @ % % ; 4 4 ; % @ + O X O @ # % : 4 : % # O X @ % % % # +   ",
"    . . - V V s @ @ # + O + s V s @ X X % , 4 4 , , 4 : + X O X + % - , , 4 4 4 % O X % , , 4 e # . ",
"    . X + @ @ @ X O + O O + @ @ @ X @ % % % : 4 , , 4 ; @ O O X + % % % : , , 4 % O # % % - 9 I % . ",
"    . X X X O O + + @ @ + O + + O X @ % % % ; , 4 9 9 : @ O + + + % % % , 9 4 : # + # % % ; e V % . ",
"      . X O X + ; : : : % X # @ O X @ % % % % - 9 L I M @ O + # % % * 4 V / M # # # + % , b V # X . ",
"    . . X + % % : 4 4 4 ; % # @ O X @ % % % * , M / / V @ O + % % * , M / y - @ @ @ X @ % - - X .   ",
"    . X X + ; , , 4 4 , 4 : @ + O O @ % % % 4 M / / I y @ O O # % , M / V - X O + + + + @ + X .     ",
"    . X @ % % % : 4 4 4 4 , : % O O O O % 4 L / / / ; + + O O O @ M / V # @ O X % : ; : : % X .     ",
"  . . @ # % % % : 4 , 4 4 4 4 % O @ + O @ % L / / ' - X X @ @ O + - - - @ O + @ & 4 4 4 4 ; % .     ",
". . + % % % % % ; , 4 4 4 4 4 % X # @ O X + y M M V - X X @ % @ @ @ @ + + X + % - : : , 4 4 : + .   ",
". + % % % % % % % - , , , , 4 % O + X X X O + @ @ @ + X X % : : : : : ; @ X + % % % % - 4 , , : # . ",
". + % % % % % % * , b b b b b & X @ # % % % + O O X + @ @ & 4 4 4 4 4 : % @ O @ # % % - 4 e b b % . ",
". + % % % % % % 4 M / / / / L - X % - , , : @ + O X @ % % - : , 4 4 , 4 4 % O X @ % % ; 9 b / ' & . ",
". . + % % % ; 4 L / / / / V # + + % % % - , : % O X @ % % % % : , , , , 4 % O X @ % ; y I / / / & . ",
"  . . # % % : 9 I / / / y - + X X @ % - , b b & X @ # % % % ; y b b b y % @ X X + # y L / / / / & . ",
"    . # % % : 9 I / / ' - X X X X . % 9 b / / - X % % % % - 9 I / / / V @ X X X X @ V / / / / ' - . ",
"    . + % ; y b / / I ; # X X X . . @ % 4 / ' - X % % % * , M / / / / V @ X . X X + - y / / I ; @ . ",
"    . . # , I / / I y + X X X . . . . . = V V - X # % % 4 M / / / / L y + . . X X X X - V V y @ . . ",
"      . . @ V ' ' ; + . . . . .     . . X @ @ X . O % 4 L / / / / ' - . . .   . . . X + @ @ @ . .   ",
"        . . % & - @ . .     .           . . . . . . + # % & & & & - #   .         . . . . . . .     ",
"          . . . . . .                     . .     . . . . . . . . .                 . . . . .       "
};
