/* XPM */
static char *a6776823642515_563274cb134ac_3_1721836743[] = {
/* columns rows colors chars-per-pixel */
"50 50 87 1 ",
"  c None",
". c #040404",
"X c #0B0C0B",
"o c #1F0C14",
"O c #151514",
"+ c #1C1114",
"@ c #1D1D1C",
"# c #220D17",
"$ c #230E18",
"% c #211017",
"& c #26121B",
"* c #29151E",
"= c #24191B",
"- c #2A1A1E",
"; c #2B1720",
": c #2D1A22",
"> c #311D26",
", c #312126",
"< c #36242B",
"1 c #38252D",
"2 c #3D2B32",
"3 c #323131",
"4 c #3F3034",
"5 c #402F35",
"6 c #493A3E",
"7 c #4E3E43",
"8 c #434342",
"9 c #4B4A4A",
"0 c #534347",
"q c #544449",
"w c #58484C",
"e c #5F4F54",
"r c #635459",
"t c #67595D",
"y c #68595D",
"u c #61615F",
"i c #6B5C61",
"p c #636362",
"a c #6B6B68",
"s c #716466",
"d c #7C7173",
"f c #807375",
"g c #827678",
"h c #867A7C",
"j c #897E7F",
"k c #80807D",
"l c #8A7E81",
"z c #868685",
"x c #8C8184",
"c c #8F8E8D",
"v c #928788",
"b c #958B8C",
"n c #90908E",
"m c #9C9393",
"M c #989895",
"N c #9D9D9A",
"B c #A69E9D",
"V c #A0A09F",
"C c #ABA3A2",
"Z c #B5AEAD",
"A c #BCBBB6",
"S c #C2BCBC",
"D c #C5C1BE",
"F c #C6C3C1",
"G c #C8C3C2",
"H c #CCCCCA",
"J c #D2CECA",
"K c #D4D1CC",
"L c #D6D6D4",
"P c #DAD6D5",
"I c #D9D9D5",
"U c #DEDCDA",
"Y c #E1DDDD",
"T c #E5E2DC",
"R c #E8E5DC",
"E c #E4E3E2",
"W c #E9E6E4",
"Q c #EBE9E5",
"! c #EEECEA",
"~ c #F4F2E7",
"^ c #F5F3E9",
"/ c #F8F7EE",
"( c #FAF8EE",
") c #F5F5F2",
"_ c #F9F7F1",
"` c #FBFAF4",
"' c #FEFDFA",
/* pixels */
"                                                  ",
"                                                  ",
"                                                  ",
"                                                  ",
"                                                  ",
"                                                  ",
"         >>>>>>>>>>>>>>>>>>>>>>>>>>>>>>>>         ",
"      >>>>>>>>>>>>>>>>>>>>>>>>>>>>>>>>>>>>>       ",
"   >>>>>>>>>>>>>>>>>>>>>>>>>>>>>>>>>>::>>>>>      ",
"   >>>>>>>>>>>>>>;##o#*>>>>>>>>>:>>-#$;$#:>>>     ",
"   >>>>>>>>>>>>>*:rlji5$*:>>>>>>>:#<smCbr**>>     ",
"    >>>>>>>>>>>&1C)__/Jb6$&>>>>>-&tS^```!v:*>     ",
"    >>>>>>>>>>>*B`_^~/_`Pl<o:>>*-x!`/~~^`^j$:     ",
"     >>>>>>>>>$i!_^^^~~/_)Ae#-&:m)_^~^^~~`Y7$>    ",
"     >>>>>>>>>%V_^^^^^^^^/`Ed+=m__~~^^^^^/`x$>    ",
"      >>>>>>>;2J`~^^^^^^~^/`/bm_(^^^^^^^^^`Z-*    ",
"      >>>>>>>&7R`~^^^~~^~()_``_`'`/^^^^^^^`D<*    ",
"       >>>>>>$qR(^^^^^~~/JabQ((EnC^^^^^^^~`F1;    ",
"       >>>>>>&7R(^^^^^^^)p.XN`_z.ON_^^^^^^`F1*    ",
"        >>>>>*2K`^^^^^^/!9..8WY3..p)^^^^^^`S>*    ",
"        >>>>>;*Z`^^^^^^^)u..@IFX..k)~~^^^^`C-:    ",
"       >>>>>>>#h`^^^^^^^)N..XHA..@F`~/^^~/`f$:    ",
"       >>>>>>>*7R`^^^^^^/E9.@IL@.z//~^^^~_I6%>    ",
"       >>>>>>>>%m'^^^^^^~_LkN^)NhE/^~^~~^'m&:>    ",
"       >>>>>>>>%5S'/^^^^~^```)H!_/^^~^^/'G5*>>    ",
"       >>>>>>>>>#6S)`//)/``)Fs>lE'_///`)G6$>>>    ",
"       >>>>>>>>>>%<fGYWWYKCs1o&%qCUQWYGh1%>>>>    ",
"       >>>>>>>>>>>*#<0rrw4;o;>>:#;7yyq1#*>>>>>    ",
"       >>>>>>>>>>>>>;o$$o&:>>>>>>*$$##*>>>>>>>    ",
"      >>>>>>>>>>>>>>>>>>>>>>:>>:>>>>>>>>>>>>>     ",
"      >>>>>>>>>>>>>>>>>>>>>>>>>>>>>>>>>>>>>>>     ",
"      >>>>>>>>>>>>>>>>>>>>>>>>>>>>>>>>>>>>>>>     ",
"      >>>>>>>>>>>>>>>>>>>>>>>>>>>>>>>>>>>>>>>     ",
"      >>>>>>>>>>>>>>>>>>>>>>>>>>>>>>>>>>>>>>>     ",
"      >>>>>>>>>>>>>>>>>>>>>>>>>>>>>>>>>>>>>>>     ",
"      >>>>>>>>>>>>>>>>>>>>>>>>>>>>>>>>>>>>>>>     ",
"     >>>>>>>>>>>>>>>>>>>>>>>>>>>>>>>>>>>>>>>>     ",
"     >>>>>>>>>>>>>>>>>>>>>>>>>>>>>>>>>>>>>>>>     ",
"     >>>><>>>>>>>>>>>>>>>>>>>>>>>>><>>>>>>>>      ",
"     >>>>>>>>>>><>>>>>>>>>>>>>>>>>>>>>>>>>>>      ",
"     >>>>>>>>>>>>>>>>>>>>>>>>>>>>>>>>>>>>>>>      ",
"     >>>>>>>>>>>>>>>>>>>>>>>>>>>>>>>>>>>>>>       ",
"     >>>>>>>>>>>>>>>>>>>>>>>>>>>>>>>>>>>>>        ",
"     >>>>>>>>>>>>>>>>>>>>>>>>>>>>>>>>>>>>         ",
"                                                  ",
"                                                  ",
"                                                  ",
"                                                  ",
"                                                  ",
"                                                  "
};
