/* XPM */
static char *_1724cdf837e4d8f8514968f49950ff0VYKZWp49TuiBg7on[] = {
/* columns rows colors chars-per-pixel */
"60 23 219 2 ",
"   c #1F2B3B",
".  c #00115E",
"X  c #0A1B58",
"o  c #111E48",
"O  c #05215A",
"+  c #0D284D",
"@  c #222F5C",
"#  c #273758",
"$  c #000E63",
"%  c #011265",
"&  c #0C1C63",
"*  c #03156A",
"=  c #03186B",
"-  c #0C1C6E",
";  c #021864",
":  c #0D1C71",
">  c #101F74",
",  c #092368",
"<  c #11256C",
"1  c #152B68",
"2  c #183368",
"3  c #0E2274",
"4  c #0E2B7B",
"5  c #0E2879",
"6  c #112275",
"7  c #112A76",
"8  c #192C73",
"9  c #112278",
"0  c #132B7B",
"q  c #182D7E",
"w  c #1D3376",
"e  c #1A357A",
"r  c #212F60",
"t  c #253567",
"y  c #202F72",
"u  c #253A72",
"i  c #1C4062",
"p  c #2C4468",
"a  c #27497B",
"s  c #304E74",
"d  c #2B5279",
"f  c #31587A",
"g  c #505D7D",
"h  c #435178",
"j  c #55647D",
"k  c #162C80",
"l  c #182D81",
"z  c #143384",
"x  c #193485",
"c  c #1C3885",
"v  c #193488",
"b  c #1D3E8B",
"n  c #173688",
"m  c #1E3E91",
"M  c #213E8F",
"N  c #253B85",
"B  c #223D94",
"V  c #1E428A",
"C  c #1B448A",
"Z  c #1F4495",
"A  c #2A4786",
"S  c #23428B",
"D  c #2A4888",
"F  c #2C518B",
"G  c #3F5F88",
"H  c #234594",
"J  c #234995",
"K  c #234999",
"L  c #2A4B95",
"P  c #2B5193",
"I  c #29539E",
"U  c #2A589B",
"Y  c #355C98",
"T  c #32498D",
"R  c #366399",
"E  c #29669C",
"W  c #2453A1",
"Q  c #2A53A2",
"!  c #2D5DA6",
"~  c #2B5DAA",
"^  c #275FAC",
"/  c #335BAA",
"(  c #355FB1",
")  c #3365AB",
"_  c #3269AE",
"`  c #3767A5",
"'  c #2E65B4",
"]  c #2F69B3",
"[  c #3366B2",
"{  c #3169B4",
"}  c #3B6DB0",
"|  c #3A6CBC",
" . c #3367BB",
".. c #3972B6",
"X. c #3472BC",
"o. c #3B73BC",
"O. c #3878BB",
"+. c #2A60AA",
"@. c #455985",
"#. c #505F86",
"$. c #46669B",
"%. c #576A99",
"&. c #526E90",
"*. c #667899",
"=. c #446BA3",
"-. c #4874AA",
";. c #5B71A0",
":. c #417BBF",
">. c #497CB6",
",. c #637CA2",
"<. c #6070AC",
"1. c #3E7CC3",
"2. c #3D7BC9",
"3. c #3873C1",
"4. c #346AC0",
"5. c #427DC2",
"6. c #477DC7",
"7. c #4383BB",
"8. c #4C85B7",
"9. c #5481B4",
"0. c #5587B8",
"q. c #5285A9",
"w. c #6783A8",
"e. c #7A85AB",
"r. c #6785B1",
"t. c #7796B8",
"y. c #6D92B8",
"u. c #3C84C5",
"i. c #4484C5",
"p. c #4983C3",
"a. c #4384CB",
"s. c #4B8CCC",
"d. c #4888C7",
"f. c #538BC5",
"g. c #4492CB",
"h. c #5792C9",
"j. c #4585D1",
"k. c #458DD3",
"l. c #4A8ED4",
"z. c #498ED9",
"x. c #4C93D3",
"c. c #4C99D6",
"v. c #4C95DC",
"b. c #4C98DA",
"n. c #4396D6",
"m. c #5396D5",
"M. c #5196DD",
"N. c #539BDC",
"B. c #5B99D2",
"V. c #6594C4",
"C. c #7898C7",
"Z. c #4BA2DE",
"A. c #54A2DD",
"S. c #5BA1DF",
"D. c #7AA5C7",
"F. c #72A9D6",
"G. c #67A5DE",
"H. c #4D94E0",
"J. c #4E9CE4",
"K. c #529EE3",
"L. c #529DE9",
"P. c #5196E3",
"I. c #4DA3E2",
"U. c #54A5E4",
"Y. c #59A3E5",
"T. c #51AAE3",
"R. c #5AAAE5",
"E. c #54A5EA",
"W. c #59A5EC",
"Q. c #55ACEB",
"!. c #5BACEB",
"~. c #57B0ED",
"^. c #5CB4EC",
"/. c #5CB4E3",
"(. c #55ADF1",
"). c #5CACF1",
"_. c #5DA7F0",
"`. c #5CB4F5",
"'. c #5DB9F3",
"]. c #5CB6FA",
"[. c #5BBAFF",
"{. c #56B6F4",
"}. c #61ADEB",
"|. c #64B4EC",
" X c #62B9EA",
".X c #63B4F4",
"XX c #62B4FA",
"oX c #6AB9F7",
"OX c #61AEF4",
"+X c #809BAE",
"@X c #919CAE",
"#X c #819BB4",
"$X c #94A7BE",
"%X c #8492C1",
"&X c #93B1CB",
"*X c #A3B6C8",
"=X c #B1BECD",
"-X c #A9B4D0",
";X c #9BB9E2",
":X c #9EC3DD",
">X c #B7C3D9",
",X c #A7C3E4",
"<X c #B9CBE7",
"1X c #AFD1ED",
"2X c #B8D8F9",
"3X c #C4C7D8",
"4X c #C1CAE1",
"5X c #C3D4EA",
"6X c #C9D4E8",
"7X c #C7DEF8",
"8X c #C9E6FD",
"9X c #D5E8FB",
"0X c #D8F9FF",
"qX c #E3ECFB",
"wX c #ECFEFF",
"eX c #E5FBFF",
"rX c #F4FFFF",
"tX c #FBFDFE",
"yX c #F8F7F8",
/* pixels */
"/. X.XXXoX.X|.|..X.XOXXXXXXXoX^.^.'..X.X^. X X/..X.X].].'.'.XX`.XX.X.X'.'.].].XXoX|.oX^.{.[.[.[.].'..X|.|.|..X.X.X'.'.'.",
"/.^.).W.W.!.R.!.!.!.!.!.).U.}.R.Q.Q.!.!.!.!.R.R.!..X(.Q.~.Q.E..X).!.!.~.~.(.).).}.R.R.^.{.(.`.Q.`.Q.E.!.!.!.!.!.!.!.~.~.",
"I.E.W.W.W.!.E.U.T.T.~.T.Z.!.Y.Y.W.E.Y.!.L._.U.U.E._.E.W.U.A.R.U.E.E.U.T.T.E.E.E.U.}.R.Z.I.U.!.U.U.E.E.E.E.!.!.E.E.U.U.U.",
"I.I.L.L.E.b.U.J.U.T.n.I.I.K.K.L.E.J.N.M.Y.P.L.E.J.L.J.L.Y.N.N.K.K.K.N.N.I.I.L.L.K.N.U.A.U.A.B.G.S.K.L.E.L.J.J.J.J.K.K.K.",
"n.c.M.H.v.v.M.M.H.J.I.b.L.H.c.c.n.J.x.M.N.v.v.v.J.J.H.M.N.s.J.v.v.b.c.c.b.b.v.v.M.x.b.x.x.h.V.9.h.m.M.v.z.J.J.b.b.b.M.v.",
"g.g.z.z.k.m.p.7.p.5.s.s.5.s.x.g.n.k.x.s.7.d.m.u.k.a.s.p.d.m.k.z.z.z.l.s.x.z.z.z.k.l.x.x.f.F.8X;X9.0.f.m.v.k.k.k.x.l.z.z.",
"i.i.j.j.u.7.y.D.t.C.9.>.C.V.7.u.k.O.f.9.D.q.8.F.0.>.q.F.f.:.l.a.a.a.d.d.d.a.a.j.l.a.a.s.f.C.wXwX8X%X-.-.p.j.a.j.d.d.d.d.",
"1.5.6.2.a.` 2XwXeXwX8XG 2X2XE u.O.p.=.;XeX&Xf 0X2Xs :X0X>.:.O.1.1.1.:.:.5.1.1.2.2.2.1...0.t.wXrXrXwX7Xt.$.-.6.:.5.1.1.1.",
"o.| 4.3.o.Y 8X>X# #.wX*.>X<XU 3.X.} $.7XwX8Xs w.wX*XwXy.U o.....X.X.........o.X.3.X.X.o.-.t.rXtXrXrXrXrX<Xr.R ` } ..o.o.",
"( |  .| [ F 5X9X$X<XwXj 3X>XP | { Y *.rX@XwX,.p *XrX>Xs ` { _ _ ] ] _ ) ) [ { { { { ' } =.y.rXtXyXtXrXrXrX0X,X=.R ) { { ",
"/ ~ ' ~ U a 5XwX7X2XC.t 6X4XA / ` d $XqX  9X&Xp j rX*.a ) ' ~ +.~ ~ ! ! ! ! ~ ~ ~ ~ ~ ) $.w.rXtXtXtXyXrXwXwXwXr.U ! ~ ^ ",
"Q K I U Y u 5X*X+ a A 2 <X>X+ a a i 5XrX4XrX2X# g eX%.A I W W W W W I I I Q W W Q W W I Y ,.rXtXtXyXtXrXrX<X@.a P I W W ",
"V P C J D 2 9X,X2 F L w <XwX9X0X1X#.rX=X*X=XrX#.h wX<.w L S Z K K K J J K K K H H Z Z I Y ,.rXtXtXtXrX6X%.u N L H K J J ",
"V C V n N w r.%.e V S 7 ;.#X+X#Xw.@.t.# o @ %X@.t C.T N S S b m m m b m m m b b M M m V A %.rXtXrX6X*.r y N M B m m b b ",
"n z m v l q < < 0 v 0 c 8 X O O < , , 8 N w & 8 e , 4 b v 0 c 0 v v v v v n v c z v z v D ;.rXqXe.t 1 w c c z z n v v v ",
"4 v 5 k k 0 l q q 0 l 9 0 0 0 x l l v 0 3 0 N 7 7 0 4 k 5 l 0 0 0 0 0 0 k 0 0 0 0 0 0 0 e u e.# X 8 8 0 0 4 0 0 0 0 k k ",
"9 9 9 9 9 9 9 9 > 9 9 6 6 3 3 9 9 9 9 9 9 9 9 9 9 3 3 9 9 9 9 9 9 9 9 9 9 9 3 6 9 9 9 9 - & & X 6 6 6 9 3 3 3 9 9 9 9 9 ",
"- - - - : : : : : - - - - - : : : : : : : : : : : : : : : : : : : : - - - - - - - - - : : - - : - - - - - - - - - - - - ",
"; ; * * * * * * % * * * * * * = * * * * * * * * * * * * * * * * * * * * * * * * % % * * * * * * * * * * * * * * * * * * ",
". . % % $ % $ % $ $ $ $ $ % % % % % % % % $ $ $ $ $ $ % % % % % $ $ $ $ $ $ $ $ $ % $ % $ $ $ $ $ $ $ $ $ $ $ $ % % % % ",
"; ; * * * * * = * * * * * * = = * * * * * * * * * * * * * * * * * * * * * * * * * * * = * * * = = = = = = = = = * * * * ",
"q 0 q 0 l k l k l q q 0 q 0 l k k 0 k 0 k 0 k 0 k 0 k 0 k 0 k 0 l q l q l q l q 0 0 l q l 0 l x 0 0 0 0 0 0 0 0 k 0 l 0 ",
"7 7 7 7 0 0 0 0 0 0 0 7 0 0 0 0 0 7 0 7 0 0 0 0 0 0 0 0 0 7 0 7 0 0 0 0 0 0 0 0 0 7 0 0 0 7 7 7 0 0 0 0 0 0 0 0 0 0 0 7 "
};
