/* XPM */
static char *a6776823642515_563274cb134ac1721836859[] = {
/* columns rows colors chars-per-pixel */
"50 50 137 2 ",
"   c None",
".  c #751A1F",
"X  c #7A1A1F",
"o  c #751B20",
"O  c #7C1B20",
"+  c #453332",
"@  c #493132",
"#  c #533C3D",
"$  c #683034",
"%  c #6B3338",
"&  c #544242",
"*  c #7C464A",
"=  c #644F50",
"-  c #655656",
";  c #736565",
":  c #7E6C6D",
">  c #841C22",
",  c #8B1D24",
"<  c #931D25",
"1  c #9B1D25",
"2  c #941F28",
"3  c #9E1D29",
"4  c #A11624",
"5  c #A91724",
"6  c #A41C26",
"7  c #AC1A27",
"8  c #A61E28",
"9  c #AB1E29",
"0  c #B21A27",
"q  c #B41E29",
"w  c #BB1E2A",
"e  c #8A262F",
"r  c #942027",
"t  c #962028",
"y  c #9B212A",
"u  c #8C2931",
"i  c #96353D",
"p  c #A4232C",
"a  c #AC232E",
"s  c #B3222D",
"d  c #BC202C",
"f  c #A42632",
"g  c #AF2530",
"h  c #A72834",
"j  c #A92B36",
"k  c #AA2E3A",
"l  c #B52631",
"z  c #BB2531",
"x  c #B42A35",
"c  c #B92935",
"v  c #BC2E39",
"b  c #AC343F",
"n  c #B4323E",
"m  c #BE313D",
"M  c #C31F2C",
"N  c #C91F2C",
"B  c #C4212D",
"V  c #CB212E",
"C  c #C12330",
"Z  c #AF3541",
"A  c #AE3943",
"S  c #B43641",
"D  c #BA3B45",
"F  c #B03F48",
"G  c #BC3F4A",
"H  c #865357",
"J  c #A44249",
"K  c #B4454E",
"L  c #BB414B",
"P  c #AD4E56",
"I  c #B64751",
"U  c #B74B53",
"Y  c #BB4D56",
"T  c #BB545D",
"R  c #BB5B64",
"E  c #9F6C6F",
"W  c #857878",
"Q  c #887D7D",
"!  c #BE646C",
"~  c #C1434C",
"^  c #C6555E",
"/  c #C05760",
"(  c #C35A64",
")  c #C2646C",
"_  c #CA666E",
"`  c #C26B72",
"'  c #C86C74",
"]  c #C6737B",
"[  c #CC7178",
"{  c #CB787F",
"}  c #CA7A81",
"|  c #9C8C8D",
" . c #9F9696",
".. c #B28387",
"X. c #A69E9E",
"o. c #BBAFAF",
"O. c #B8B0B0",
"+. c #BEB8B7",
"@. c #CB8087",
"#. c #CD858A",
"$. c #CF8C92",
"%. c #D08D93",
"&. c #C19195",
"*. c #D19096",
"=. c #D6989E",
"-. c #D79FA4",
";. c #D7A0A6",
":. c #DAA1A5",
">. c #D9A4A9",
",. c #DAA9AE",
"<. c #DCADB1",
"1. c #DEB0B5",
"2. c #E1B6BA",
"3. c #E2BBBD",
"4. c #C5C0BF",
"5. c #E3BEC1",
"6. c #CFCBCB",
"7. c #D2C7C8",
"8. c #D8D4D4",
"9. c #DDDADA",
"0. c #E7C2C6",
"q. c #E7C7C9",
"w. c #E8C7CA",
"e. c #E9CBCD",
"r. c #EBD1D4",
"t. c #EFDCDE",
"y. c #F0DCDF",
"u. c #F1DFE0",
"i. c #E3E0E0",
"p. c #EDE6E7",
"a. c #EDEBEB",
"s. c #F3E3E5",
"d. c #F5EAEB",
"f. c #F5F4F4",
"g. c #FAF4F5",
"h. c #FBF7F8",
"j. c #FDFCFC",
/* pixels */
"                                                                                                    ",
"                                                                                                    ",
"                                                                                                    ",
"                                    o O                                                             ",
"                                  o o o o X                   . o O                                 ",
"                                  o o o o . .             . . . . o                                 ",
"                                . . . . . . . . X       X . . . . . .                               ",
"                                . . O X X > > > , , , , > > > X X X .                               ",
"                                o O O , < 1 3 8 8 9 9 8 8 6 1 < , > > X                             ",
"                              O > , 1 8 9 w w d B M B M M d d s 8 1 < ,                             ",
"                o O o . . X > < 3 7 w M C V N V V V V V M V B B B w 0 8 1 ,                         ",
"              O o . X . X > < 9 q B V V V V V N M M M w M M M M B V C d 7 p <                       ",
"              . . . . X > 1 a w V V V V N N M w w q q 0 0 0 0 q w d B M B w 8 <                     ",
"              . X . . > 1 9 B V V V V V M 0 0 7 5 6 6 8 4 6 6 5 5 7 0 q w d q 9 <                   ",
"              . . X O < 9 B V V V V M w 0 5 4 4 4 4 4 4 6 4 4 4 4 4 5 5 0 w w w 8 <                 ",
"              . . X , 8 d V V V V M w 0 5 4 4 4 4 3 4 4 4 4 4 4 4 4 4 4 6 5 s d 0 8 ,               ",
"                X > 1 s B C B B B d x k k k k h h f f p 3 3 3 h k Z A J K K S z B 7 1               ",
"                X , p d B z c z d c G R ) ` ! ! R P J i u e i P ! ] } #.%.} / v C w 8 <             ",
"                > < s B z z z z w v ( %.<.3.2.2.,.&.E * $ % H ..<.0.w.e.e.2.' D B M s 1             ",
"              X , 1 s B z l z z w v _ <.u.g.h.h.p.7.| = @ # : O.p.g.j.j.d.w.' C B B w 6             ",
"            o X , 6 d B z l l z w C ^ =.y.j.j.j.f.9.X.- + & Q 4.f.j.j.j.d.2._ v B V M 5 ,           ",
"          . o X < 5 d z z c z C M C G } w.g.j.j.j.p.+.W - ; X.8.h.j.j.j.y.-.( z N V B a t           ",
"        X . . X < a B C z z C V N M v / ,.u.h.j.j.f.9.O. .X.6.a.j.j.j.g.w.#.~ C N V V s 1           ",
"        . . . X < s B V C z C C V M w G { 3.d.j.j.j.f.i.8.9.a.h.j.j.j.d.,._ C M N V V 0 6           ",
"          o o X < 0 B V B z z V V N M c Y #.w.d.h.j.j.j.j.h.j.j.j.j.d.q.#.L z N V V B w p           ",
"            o O < 9 B V B C C V V V M d x T #.1.s.f.h.j.j.j.j.j.h.d.r.*.^ c M V V V V q 8           ",
"              X , 9 B V V B C V V V V M q x U } ;.5.r.y.s.p.p.u.r.2.$.T n d M V V V V q 8           ",
"              o < 8 d V V V V V V V V V M q g Z T ] $.-.<.1.1.>.%.` I x d B B V V V B s 6           ",
"                , 6 d V V V V V V V V V N w w q h Z I T R R R R K n a q M V V V V V V s 1           ",
"                > < w V V V V V V V V V V V M w 0 7 7 9 a a 8 9 9 0 w M N V V V V V M 9 <           ",
"                X < s B V V V V V V V V V V V N N w w 0 0 0 0 q w w M N V V V V V V B 9 ,           ",
"                X > 6 d V V V N C V C V N C M M M M w w w w q w w w M B d M B w B d q 1             ",
"              . . O < 9 d w d d d d d d d s d s d s s d s s s s s s q s s s s q 0 a 3 <             ",
"              X . X > 1 a s s s s s s s s s s a s s s s s a s a s a a s a a a a a y <               ",
"              . X X X > y a s s l g g l s a l l a l a s g l g l g s s a g g l g a t ,               ",
"              X . . o e r p l l l l l l x l l l l l l l l l l l l l l l l s x a p <                 ",
"                o O o o r t p l l l z c l l l l c l c l c l l z l l l z l l s a r r                 ",
"                        . , y p g l l l z l c l l c l c z c c l l c l l l l p r >                   ",
"                          O r r y a l l l l l l c c l l l c l l z l l l a y r >                     ",
"                              O r t p a a l l x l l l z l l l l l a a p y r e                       ",
"                              o o O e r y p a a g s s s a g g g p t r r > >                         ",
"                              o . . X > , < r t y y y y y y t t r r > >                             ",
"                              . . . o   o O O O e X e > > > > O o                                   ",
"                            . . . o       o o o . .                                                 ",
"                            o o o         . . .                                                     ",
"                                        . . . o                                                     ",
"                                          . o                                                       ",
"                                                                                                    ",
"                                                                                                    ",
"                                                                                                    "
};
