<?xml version="1.0" encoding="UTF-8"?>
<svg version="1.1" viewBox="0 0 2000 2000" width="1280" height="1280" xmlns="http://www.w3.org/2000/svg">
<path transform="translate(993,783)" d="m0 0h29l21 2 17 4 20 7 20 9 12 7 13 9 13 10 13 12 11 12 10 13 10 15 9 17 3 8 3 1 16-2h24l22 3 17 5 18 8 15 9 12 9 10 9 9 9 13 17 11 19 7 17 6 21 2 14v34l-3 18-7 22-7 15-8 14-9 12-9 11-10 10-13 10-10 7-13 7-6 1-6-2-4-5-1-2v-7l5-7 14-8 12-9 10-9 4-4h2l2-4 11-14 6-10 7-16 6-19 2-11v-34l-2-12-7-21-8-17-12-17-11-12-11-10-15-10-14-7-17-6-19-3h-28l-15 2h-12l-5-4-15-30-9-14-9-12-11-13-8-8-14-11-15-10-19-10-19-7-19-5-17-2h-30l-24 3-22 7-16 7-15 8-14 10-11 9-12 11-9 10-14 19-8 13-6 10-5 10-5 2h-8l-5-2-3-5v-8l12-23 12-18 10-13 12-13 12-12 17-13 15-10 19-10 21-8 17-5 19-3z" fill="#2C2F37"/>
<path transform="translate(748,932)" d="m0 0h22l21 2 20 6 8 5 2 6-3 8-7 6-8-1-26-6-11-1h-17l-15 2-16 5-16 8-14 10-12 11-9 12-6 10-7 15-6 19-2 11v28l4 18 6 18 10 19 8 10 7 8 11 9 13 8 11 5 16 5 6 1h76l8-4 6-7 1-3v-8l-4-8-6-5-9-2-23-1-10-4-8-6-7-7-7-12-2-8v-16l4-11 7-11 8-7 12-5 4-1h44l9 3 4 5v8l-4 6-3 3-8 1-41 1-6 2-2 4-3 7 1 9 4 6 5 4 5 2 25 2 10 3 6 4 10 9 6 9 4 11 1 13-2 9-7 13-10 10-8 5-6 2-7 1h-78l-14-2-20-7-17-9-11-8-10-9-11-11-10-14-9-16-6-15-6-22-2-14v-28l2-14 7-24 11-23 8-12 8-10 5-6 8-7 10-8 18-11 20-8 17-4z" fill="#367090"/>
<path transform="translate(1152,1063)" d="m0 0h55l14 4 13 10 7 11 4 10v80l-2 9-7 12-8 8-10 6-7 2-14 1h-25l-14-2-8-4-8-6-8-11-4-8-2-11 1-14 4-10 7-10 7-6 10-6 14-3 24-1 11-2 8-5 5-8v-7l-5-9-5-3-55-1-5-2-5-5-1-3v-7l3-5zm67 80-11 6-3 1-28 1-12 1-6 4-4 4-2 5v10l4 8 8 6 3 1 11 1h15l13-1 8-5 4-6 1-4 1-31z" fill="#2C3038"/>
<path transform="translate(948,1066)" d="m0 0h14l9 3 14 9 8 8 10 15 5 13 2 8v36l-3 12-5 12-9 12-9 9-13 8-11 4-12 2h-16l-15-3-14-7-11-9-8-10-10-19-3-13v-22l3-13 6-15 7-11 6-7 9-6 3-1h8l5 3 2 6v6l-4 6-9 8-7 14-3 11v18l4 13 6 10 10 9 8 4 10 2h13l13-4 10-7 6-7 4-9 1-5 1-17-1-19-4-13-7-9-11-8-15-4-5-5-2-4 1-6 3-5z" fill="#2C3037"/>
<path transform="translate(1066,1064)" d="m0 0h48l6 3 3 6-1 8-4 6-3 2-48 1-6 3-5 7-1 3-1 104-6 7-2 1h-8l-6-4-3-5-1-31v-21l1-53 5-14 7-9 8-7 12-6z" fill="#2C2F36"/>
<path transform="translate(905,1081)" d="m0 0h8l5 3 2 6v6l-4 6-9 8-7 14-3 11v18l1 8-5 4-5 5-8 5-2 2-4-8-3-13v-22l3-13 6-15 7-11 6-7 9-6z" fill="#367090"/>
</svg>
