/* XPM */
static char *_71721860281[] = {
/* columns rows colors chars-per-pixel */
"50 50 30 1 ",
"  c None",
". c #3B9CFB",
"X c #3FA0F9",
"o c #47A8F7",
"O c #4BACF7",
"+ c #43A4F8",
"@ c #53B4F5",
"# c #58B7F5",
"$ c #57B8F4",
"% c #5BBBF3",
"& c #61BEF6",
"* c #64BEF8",
"= c #62C1F3",
"- c #69C5F5",
"; c #6CC8F5",
": c #66C0F8",
"> c #6CC4F9",
", c #6FC9F8",
"< c #71CAF7",
"1 c #72C7FA",
"2 c #74CAFA",
"3 c #7BCEFC",
"4 c #7FD0FE",
"5 c #81CFFC",
"6 c #83D2FE",
"7 c #8AD6FE",
"8 c #8ED8FE",
"9 c #94DBFF",
"0 c #9ADEFE",
"q c #9DE0FF",
/* pixels */
"                                q9qqqqqqq         ",
"                             0qqqq77888qqqqq      ",
"                           0q98774664446779qqq    ",
"                         0q98664433<3334444679qq  ",
"                        qq766431===;====-;<4467qqq",
"00                    0976641-==============;2467q",
"900                 0q9744<-===========%===%==-<44",
"670q0             qq98642-=%%=%=%=%=====%=%==%=%-4",
"3679qq0  00qqqqq0909663-==%=%=%%%%=%=%=%%=%%%=%%%=",
"%1468qqqq099q878900994:%%%%%%%%%%%%%%%%%%%%%%%%%%%",
"%%180qq9766666666778906-%%%%%%%%%%%%%%%%%%%%%%%%%%",
"%<9q976664432322346667904=%$%$%%$%#%%%$$%%$%%%#%%$",
"7097662<;-=======-;34667092%$$$$####$$$$$$$$$$#$$-",
"97642-==============-2466907-$$$#@$$@$$$$$$$@$$%39",
"662-====%=====%=======-2566905&$@#@$@$@$@@@$$$-708",
"3-&%=%%==%=%==%==%=%%=%%-2657092%$@@@@@@@@@@&40q76",
"=%=%%&%%=%%%&%%%%%%=%&%=%=-366998355853<;==<9q9753",
"%%%%%%%%%%%%%%%%%%%%$%%%%%%&2790q0q00q0qq90qq7641%",
"%%$$%%%%%$%$%%%%%%%$%%%%%%&<809987554777890qq86-$$",
"$$$%%%##%$%$%%#%$$$%##%#%-8097665553433456679qq4*%",
"%$$$###$$$$$####$%$$#$$>6q976443;;;;;;;;<234679q92",
"7>##$$$$$$###@$$$$$$$%2097643<-============;<34790",
"003%@@@$@@$$##@@@$@$>707664-==================;467",
"69q8>$@@@@@@@@@@@@:609754,============%=========16",
"367007*#@@@@@O@@*5097652====%==%%&%%=%%=%=%==%%%&-",
"*3479q072>****27007653-%%%%%%%%%%%%==%%%=%%%%=%%%%",
"%%2667900q0000097663>&$%%%%%%%%%%%%%%%%%%%%%%%%%%%",
"%#%>366677777776631%%%%%%%%$%%%%%%%#%%%%%$%%$%%#%%",
"####%>23563666531&$$$$$$#$$$$$$$#%$#$$$$$$$$###$$$",
"$$###$#**>>1>>*#$$$$$@$#$$$$$$@$##@$$$$$$$$$$$$$$$",
"$@@@@@@@@@@@$@@@@@$@@@@@$@@@@@@$@@@@@@@@$@@@@@@@$@",
"@@@@@@@@@@@@@@@@@@@@@@@@@@@@@@@@@@@@@@@@@@@@@@@@@@",
"@@@@@O@@@O@@O@@@@@@@O@@O@@@O@@@@O@@@O@@OO@@@OO@@@@",
"OO@O@@O@O@@O@OOOO@O@@O@@O@O@O@O@@O@O@@@@@@O@@@@OO@",
"O@OOOOOOO@O@@OO@@OOOO@OO@OO@@OO@@OOOOO@OOOO@O@OO@O",
"OOOOO@OOOOOOOOOOOOOOOOOOOOOOOOOOOOOOOOOOOOOOOOOOOO",
"OOoOOooOOOOOOOOOOoOOOOOOOOOoOOOooOOOoOOoOOOOOOOOoO",
"oooooOooooooOooooooOoooOOoOoOoOoOoOoOoOooOooOoooOO",
"oooooooooooooooooooooooooooooooooooooooooooooooooo",
"oooooooo+ooo+o+oo+oo+o+o+o+oo+o++o+o+o+oo++ooo+o+o",
"++o++++++o++++++++o+++++++o+++++++++++o+++++++o+++",
"+++++++++++++++++++++++++++++++++++++++++++++++++X",
"XXXXX+X+X+XXX++XXX+XXX+XXXXXX+.+X+X+XXXXXXX+XXXXXX",
"XXXXXXXXXXXXXXXXXXXXXXXXXXXXXX..XXXXXXXXXXXXXXXX..",
"..X...........X...........X......X.X........X.X...",
"..................................................",
"..................................................",
"..................................................",
"..................................................",
".................................................."
};
