/* XPM */
static char *_391dc0506b140e4bf3bb44f43ed7d80QeXoh3vr5HTXXoAo[] = {
/* columns rows colors chars-per-pixel */
"32 32 226 2 ",
"   c None",
".  c #070000",
"X  c #0B0501",
"o  c #150000",
"O  c #1D0000",
"+  c #1A1010",
"@  c #0C110A",
"#  c #251B1B",
"$  c #591502",
"%  c #571819",
"&  c #780103",
"*  c #760900",
"=  c #641A05",
"-  c #79170E",
";  c #740A16",
":  c #631C1D",
">  c #6C1916",
",  c #751C1B",
"<  c #781817",
"1  c #52271B",
"2  c #73231C",
"3  c #7B221C",
"4  c #722712",
"5  c #681E29",
"6  c #7F1926",
"7  c #5C2220",
"8  c #50352A",
"9  c #6B2727",
"0  c #732524",
"q  c #792C2A",
"w  c #7A2721",
"e  c #6F3333",
"r  c #72363A",
"t  c #474447",
"y  c #7A4A4D",
"u  c #820202",
"i  c #8C0302",
"p  c #950A06",
"a  c #82150E",
"s  c #960C15",
"d  c #821A1C",
"f  c #891618",
"g  c #981719",
"h  c #8D1111",
"j  c #AB0804",
"k  c #B30D05",
"l  c #A81408",
"z  c #B31201",
"x  c #BB130D",
"c  c #A60D16",
"v  c #B80E13",
"b  c #A51013",
"n  c #A6101B",
"m  c #A31B1D",
"M  c #AB1A1C",
"N  c #AB1918",
"B  c #BA1312",
"V  c #BC1B1C",
"C  c #B7151A",
"Z  c #9B221B",
"A  c #94231D",
"S  c #9A3B18",
"D  c #8B360E",
"F  c #A9241E",
"G  c #BD301C",
"H  c #961A21",
"J  c #A51D21",
"K  c #B31C24",
"L  c #B11624",
"P  c #8E2924",
"I  c #9B2425",
"U  c #942A22",
"Y  c #982A29",
"T  c #822934",
"R  c #942C32",
"E  c #8C3839",
"W  c #993736",
"Q  c #A42323",
"!  c #AA2A28",
"~  c #B52629",
"^  c #BC2A27",
"/  c #A5372C",
"(  c #B42D32",
")  c #BB2C34",
"_  c #A93231",
"`  c #A93438",
"'  c #C0180F",
"]  c #DB0F10",
"[  c #C31514",
"{  c #C21519",
"}  c #CD1B1D",
"|  c #C71B19",
" . c #D41314",
".. c #DD1413",
"X. c #D41B1D",
"o. c #DC1C1B",
"O. c #D61717",
"+. c #E80C06",
"@. c #F40D0C",
"#. c #F90F0E",
"$. c #E5150B",
"%. c #E70D15",
"&. c #F40D13",
"*. c #F90E14",
"=. c #E51615",
"-. c #EC1413",
";. c #E41B1B",
":. c #EB1C1D",
">. c #E8151A",
",. c #F51314",
"<. c #F21D13",
"1. c #FF1519",
"2. c #F41B1C",
"3. c #FD1518",
"4. c #C2201D",
"5. c #DF2519",
"6. c #E5211E",
"7. c #EA221B",
"8. c #E32316",
"9. c #CA1C23",
"0. c #DA1E23",
"q. c #D41D21",
"w. c #E61B22",
"e. c #F81F27",
"r. c #CB2425",
"t. c #C4232B",
"y. c #C92624",
"u. c #D42324",
"i. c #DD2224",
"p. c #D62729",
"a. c #DE2627",
"s. c #C7353A",
"d. c #E12325",
"f. c #EA262A",
"g. c #E73431",
"h. c #FC3536",
"j. c #9C4114",
"k. c #8A443C",
"l. c #B64D3A",
"z. c #C6412A",
"x. c #C85F3F",
"c. c #D75634",
"v. c #E6413F",
"b. c #E05A39",
"n. c #E66A38",
"m. c #853F46",
"M. c #9C3B44",
"N. c #A93F45",
"B. c #B43C40",
"V. c #DE3949",
"C. c #844144",
"Z. c #8C4444",
"A. c #87494A",
"S. c #934947",
"D. c #9C5E5B",
"F. c #AA4243",
"G. c #A34449",
"H. c #A9594E",
"J. c #AA5D56",
"K. c #AC5453",
"L. c #9A6156",
"P. c #AA5961",
"I. c #866B69",
"U. c #976767",
"Y. c #9B6B77",
"T. c #B96B68",
"R. c #A7736A",
"E. c #B66971",
"W. c #A77877",
"Q. c #AC6E78",
"!. c #CA444B",
"~. c #D44548",
"^. c #CF4552",
"/. c #D94952",
"(. c #C7554F",
"). c #E14A4F",
"_. c #F84946",
"`. c #E85455",
"'. c #FF5B5A",
"]. c #FF5754",
"[. c #FC5A4D",
"{. c #DC6D4F",
"}. c #E57245",
"|. c #FF685E",
" X c #C95D6B",
".X c #FC5967",
"XX c #FF5F72",
"oX c #EB5F68",
"OX c #CB6964",
"+X c #DB6568",
"@X c #DE7E72",
"#X c #C36E74",
"$X c #EC6C67",
"%X c #FF6669",
"&X c #FF6C6C",
"*X c #F86665",
"=X c #FF716C",
"-X c #FF7264",
";X c #FF6771",
":X c #FF6B73",
">X c #F26970",
",X c #E97875",
"<X c #FF7272",
"1X c #F77577",
"2X c #AB7583",
"3X c #CE7883",
"4X c #A99592",
"5X c #A58B8E",
"6X c #B39DA8",
"7X c #B6A0A7",
"8X c #DF969B",
"9X c #CF8687",
"0X c #D2A59A",
"qX c #D8ABA7",
"wX c #D4B2AC",
"eX c #DCB7B9",
"rX c #E8B2AE",
"tX c #E7BCC7",
"yX c #FFBDC9",
"uX c #ECC7CB",
"iX c #F7CBC5",
"pX c #FFCFD7",
"aX c #F8D7D7",
"sX c #FEE4D8",
"dX c #FFE1EB",
"fX c #FEEDF5",
/* pixels */
"                                                                ",
"                      W.y 9 0 > 2 2 q A.W.                      ",
"                  C.6 H ) /./.oX`.).s.K m f S.                  ",
"              U.% R ^..X:X:X;X&X<X%X.Xh.o.| h > U.              ",
"            Z.d P _ >X<X&X=X=X&X-X|.%X_.2.] j s ; C.            ",
"          r < g I +X,X1X1X*X=X'.[._.v.p.o.d.y.b s ; e           ",
"        m.d f / ,XOXT.J.F.) g.6...f.~ I _ / U Q n n f E         ",
"      I.< ^.(.@XH.R.      F.V 0.f.C N.        H.Q t.r.g J.      ",
"      : !.:X1XK.              ! ^ `               J 0.X.-       ",
"    S.Y *X<X+XE.              E R                 Y f.>.N E     ",
"    f ~.<X>XP.        #         T         +         [ :.X.g eX  ",
"  W.g '.<X,XP.    t   .         9         X         v 2.:.b 2X  ",
"  A.( %X=X,XU.      . X         9       X @         V -.2.{ m.fX",
"  9 ~.&X&X$XZ.                  P                   { ,.,.a.0 uX",
"  : ~.&X<X$XY                 Z y.!               N.o.1.&.} 3 rX",
"  q /.;X&X`.^ B.            Q y.6.[ G.          T.M :.@.@.a.- 0X",
"  3 V.XX:X_.d.[ _         ! X.>.,.=.t.(  X  9XF.C o.$.+.*.0., 0X",
"  > V..X%X_.w.d.^ Z Z ! C i.e.*.1.1.:.X.t.J H ( 0.=.<.+.&.a., eX",
"  9 ) ].'.g.q.v F ^ a.=.$.<.@.*.#.@.@.<.6.y.! h k  .-.@.&.9.w iX",
"  A.N f.h.;.{ i I ! B O.8.7.;.>.:.7.7.5.x N (.OXu v %.*.%.V k.sX",
"  W.b :.,.:.v & E.yX8XK.W A g ~ K M Z U J.rXpXE.; c w.+.;.N R.  ",
"    h a.,.2.{ & 5 Y.tXdXiXqX9X#X#X3X8XiXsXwXU.5 ; L >.%.u.a wX  ",
"    S.m o.-.:.j - : e y I.4X4X7X7X6X5XI.8 1 7 > u 9.%.;.F S.    ",
"      < y.7.-. .i - 0 % O o o o o o o O O 1 2 * b X.>.} -       ",
"      L.p w.2.>.B i > 2 $ = D j.S D 4 $ $ = * i } O.0.b         ",
"      aXW N o.w.o.B u a l.{.n.n.n.}.}.x.S * i 4.} p.M W         ",
"        tXT M i.f.>.[ l l z.c.c.c.c.z.G l k o. .r.Q q           ",
"          uXM.s } d.i.} ' z j z j z k x X.O.X.u.g E             ",
"            aXD.< g r.0.....=.$.$.+.$.o.u.t.H 3                 ",
"                qXZ.f K 9.} u.X.O.o.u.V m d S.                  ",
"                    rXQ.C.0 > 3 , , 0 k.                        ",
"                                                                "
};
