/* XPM */
static char *_4b3a3dc52e04c10ca8af066530947b9eKUoubx38mexdnOn[] = {
/* columns rows colors chars-per-pixel */
"25 25 16 1 ",
"  c #47704C",
". c None",
"X c #C5918B",
"o c #B98A84",
"O c #BC8C86",
"+ c #CD9790",
"@ c #BB8B84",
"# c #9F7974",
"$ c #B58781",
"% c #B48781",
"& c #B88983",
"* c #F0ACA4",
"= c #FFD0CA",
"- c #FFC3BC",
"; c #FFBCB4",
": c #FFFAF9",
/* pixels */
"                         ",
"                         ",
"                         ",
"                         ",
"                         ",
"                         ",
"                         ",
"                         ",
"           ###           ",
"          oX+Xo          ",
"         o+***+o         ",
"         O*-=-*O         ",
"         O*=:=*O         ",
"         @.;-;.@         ",
"         %X...X%         ",
"          %&@&$          ",
"                         ",
"                         ",
"                         ",
"                         ",
"                         ",
"                         ",
"                         ",
"                         ",
"                         "
};
