/* XPM */
static char *_7fecd19d8284a4dc2eefa94ba5665e60L0DmpuPUgq6LqE5[] = {
/* columns rows colors chars-per-pixel */
"64 67 223 2 ",
"   c None",
".  c #0F0F1B",
"X  c #09111A",
"o  c #17201F",
"O  c #141323",
"+  c #262D33",
"@  c #292E41",
"#  c #3C5057",
"$  c #2E5265",
"%  c #345F74",
"&  c #396475",
"*  c #4B4E5F",
"=  c #585E5C",
"-  c #425E6A",
";  c #5A5A66",
":  c #5A6A76",
">  c #456A7A",
",  c #646C6F",
"<  c #60767E",
"1  c #72797F",
"2  c #477B87",
"3  c #5C7584",
"4  c #657987",
"5  c #5A828D",
"6  c #518A9B",
"7  c #628D9D",
"8  c #67919F",
"9  c #7A959B",
"0  c #6E8791",
"q  c #708FA1",
"w  c #6C96A7",
"e  c #7695A5",
"r  c #7999A6",
"t  c #649BB4",
"y  c #7CA5A7",
"u  c #76A6AC",
"i  c #6AABBE",
"p  c #6FA0B8",
"a  c #77A8B7",
"s  c #5CAAC6",
"d  c #7BAFC6",
"f  c #69B5C8",
"g  c #73BBCC",
"h  c #7CB7C9",
"j  c #72BAD1",
"k  c #7BC3D1",
"l  c #869DA5",
"z  c #919BA4",
"x  c #9DA1A5",
"c  c #95A5A9",
"v  c #82ACBC",
"b  c #8CACBC",
"n  c #88A7B5",
"m  c #9EACB3",
"M  c #92A8B1",
"N  c #82B0BA",
"B  c #8DB4BF",
"V  c #89B8B8",
"C  c #96B5B8",
"Z  c #88ACA8",
"A  c #A7ACB8",
"S  c #B2AEBC",
"D  c #A7B6B9",
"F  c #B7B9BD",
"G  c #A3ACA7",
"H  c #ACC0BF",
"J  c #81B5C2",
"K  c #8CB3C3",
"L  c #8FBEC4",
"P  c #86BBCA",
"I  c #9BBAC3",
"U  c #91B7CA",
"Y  c #95BDCC",
"T  c #95B6C3",
"R  c #86B5CE",
"E  c #A3BDC4",
"W  c #ACBCC7",
"Q  c #B0BDC7",
"!  c #88C3CF",
"~  c #94C2CC",
"^  c #9BC2CE",
"/  c #99C9CF",
"(  c #8DC6DB",
")  c #87CBDD",
"_  c #88C8D6",
"`  c #93C3D4",
"'  c #9DC5D3",
"]  c #94CAD3",
"[  c #9ACCD5",
"{  c #95CBDD",
"}  c #9CCCDB",
"|  c #92C5DB",
" . c #88D1DF",
".. c #9BD3DC",
"X. c #97D1D5",
"o. c #A4C1C2",
"O. c #ACC4C3",
"+. c #A3C4CB",
"@. c #AEC5C9",
"#. c #ABCACC",
"$. c #B4C1C7",
"%. c #BFC9C5",
"&. c #B2C5CC",
"*. c #BBC3CB",
"=. c #B9C9C6",
"-. c #A4CCD4",
";. c #ABCCD5",
":. c #A2C7D9",
">. c #A2CBDB",
",. c #ABCCDB",
"<. c #A6C5D3",
"1. c #B1CFD4",
"2. c #B7C8D4",
"3. c #A3D3D6",
"4. c #AAD1D4",
"5. c #A5D4DE",
"6. c #ACD3DC",
"7. c #B2D2DE",
"8. c #BED6DA",
"9. c #BDD7D8",
"0. c #8DCBE4",
"q. c #93CBE1",
"w. c #9CCCE1",
"e. c #8ED2E4",
"r. c #8CD7E7",
"t. c #95D4E4",
"y. c #9AD5E1",
"u. c #9ED9E4",
"i. c #9DD5EA",
"p. c #9CD9EB",
"a. c #9BDAF1",
"s. c #A4CAE1",
"d. c #ADCFE3",
"f. c #A4D3E3",
"g. c #ABD5E6",
"h. c #A5DAE5",
"j. c #A5D4EB",
"k. c #ADD7E9",
"l. c #A5DBEA",
"z. c #ACDCEC",
"x. c #ACDDE3",
"c. c #B2D2E4",
"v. c #B2D9E3",
"b. c #BBD7EC",
"n. c #B7DBE8",
"m. c #A2D9F0",
"M. c #ABDEF7",
"N. c #B7DCF0",
"B. c #9EE0EE",
"V. c #AEE3E7",
"C. c #A7E2EC",
"Z. c #B4E3ED",
"A. c #B7E4EB",
"S. c #ABE3F3",
"D. c #A9E7F7",
"F. c #B5EAFC",
"G. c #BDECFA",
"H. c #B7E7F4",
"J. c #BAF2FF",
"K. c #B5FAFF",
"L. c #D2CCCC",
"P. c #C2D1CE",
"I. c #C4CFD3",
"U. c #C7CEDD",
"Y. c #C5D0D4",
"T. c #CAD3D3",
"R. c #C2D1DC",
"E. c #CCDBDB",
"W. c #C3D8DD",
"Q. c #D3DBDD",
"!. c #CFE0D8",
"~. c #C8DAE4",
"^. c #D2DDE4",
"/. c #CBE3E6",
"(. c #C5E4EB",
"). c #CAE7E9",
"_. c #DBE9E4",
"`. c #DAE6E9",
"'. c #D5E9EC",
"]. c #DCEDEC",
"[. c #D6E3E5",
"{. c #DBF1EE",
"}. c #CAEAF4",
"|. c #C3EDFA",
" X c #CCEEFC",
".X c #C8E9F2",
"XX c #D8E9F4",
"oX c #CEF6F5",
"OX c #C4F5FF",
"+X c #CBF4FC",
"@X c #CBFEFE",
"#X c #C1F3F4",
"$X c #D4F1FB",
"%X c #DCF3FC",
"&X c #D4FDFF",
"*X c #DCFEFF",
"=X c #D8F3F3",
"-X c #E2E5E8",
";X c #E9EBEA",
":X c #ECF8EC",
">X c #F6F8ED",
",X c #E5F1F4",
"<X c #ECF6F5",
"1X c #ECFCF5",
"2X c #E4F5FE",
"3X c #EBF6F8",
"4X c #E4FEFF",
"5X c #EBFFFF",
"6X c #E9FEFE",
"7X c #EEFEFF",
"8X c #EBFEFE",
"9X c #E1FCF7",
"0X c #F5F6F5",
"qX c #F4FDF5",
"wX c #FCFCF5",
"eX c #F4F6FB",
"rX c #FAF6FA",
"tX c #F1FFFF",
"yX c #F3FFFF",
"uX c #F5FFFE",
"iX c #F4FEFE",
"pX c #FCFEFD",
"aX c #FCF7F3",
/* pixels */
"                                                                                                                                ",
"                                                                                                                                ",
"                                                                                                                                ",
"                                                                                                          S.OXOXOX|.f.          ",
"                                                                                                      &X4X4X5X4X8X8X8X4XJ       ",
"                                                                                                  x.4X4X6XtX8X8X5X8XuX2X*X      ",
"                                                                                                oX1XiXuXuXtX4X4X4X5X5X4X&X      ",
"                                                                                              &X1X:XiXtX5X4X|.[                 ",
"                                                                                            @X5X1XuX5X*Xw.                      ",
"                                                                                          +X4XtX8X4X|.                          ",
"                                                                                        f.*XtX6X4Xf.                            ",
"                                                                                        4X4X5X4X`                               ",
"                                        6 u / V.H.@X                                  +X5XtX5Xf.                                ",
"                                    i C.&XoX4X*X@XK.                                ] 5X8X8X|.                                  ",
"                                  ] &X*X(.v.'                                       &XtXiXtX                                    ",
"                                l.&X+.I I :.                                        4XiXuX(.                                    ",
"                            i J.g.K +.;.k.(                                       _ 8XuX8X                                      ",
"                          f G.~ ~ v.;.;.f.                                        y.tXuX$X                                      ",
"                        g  .[ [ ..5.4.-.l.                                        C.8XuXN.                                      ",
"                      s p.{ 5.5.u.X.3.3.]                                         S.5XtX}                                       ",
"                      a.q.f.z.} ....5.[ !                                         h.5X5X                                        ",
"                    ) l.f.f.Y f.y.....l.g                                         ` 4X4X                                        ",
"                  g p.} d.:.g.f.} f.{ D.                                            4X4X                                        ",
"                  B.} ,.,.c.>.w.f.j.i.                                              &X4X]                                       ",
"                 .u.>.,.,.,.g.j.j.h                                           F.    .X*X#X                                      ",
"              f t...,.<.;.c.} p                                               F.    L 4X*X                                      ",
"              r.p.f.;.7.,.w % t                                               *X      *X4X-.                                    ",
"            s a.] 5.,.<.> & j.0.                                            v &X      H.5X$X                                    ",
"            ) i.g.' B 5 7 l.M.                K.                          J 7.*X      g.5X*X                                    ",
"            m.f.' K r w z.{ i.              *X@X                        l.B 2X*X      ` 4X4X                                    ",
"          j m.s.Y b 8 z.} S.i.          ,.4X4X*X                    q.l.+.&.uX2X      ` 4X*X                                    ",
"          e.f.:.b q n.Y a P            X2XuXtXoX                _ &Xk.7.W ~.uX%X      D.*XZ.                                    ",
"          a.s.d.e r r n r 5 5 2   N *X8XtX3X8XL                X4X*X+.#.O.4X4X5.      J.G.P             V.+X4Xh.r.              ",
"          p.k.b - I ~.%X2X8X4.y }.5X=XE.3X8X(.            H.8XtX6XXX8.C 8.4X*X        t.l.i           @X*X5X4X*X                ",
"        f ..6.0 ).8X8XuXuXT.H 2X/.&.&.8.*X4.          Z.*X5XiXqXuXE.F A 6X4X_         l.{           A.4X*X4Xj.                  ",
"        k Z.9 ].1XqXiXiXwXwXuX`.D W E C 5       ^ +X5X8X5X1XqXwX1XY.F eX5XG.        q.l.          5.*X4X4Xd                     ",
"        e.N m pXpXwX>XwXwX0XrXuX[.&.~.9 3 #.).4X5XtX3X<XuXuXuX7X_.%.pXeX*X          m.(         a 4X4X4XP                       ",
"          K 2XpXrXpXpXwXpXpXpXpXuXXXW.'.8X6XuXuXuXuXpXpX<X0XuX<X!.uX3XtXv         e.a.          ;.4X8X X                        ",
"          2 XXU.S rXuXtX7XA S pXQ.P.1XuXuXuXeXpXpXeXeXpXpXpXpX0XtX9X5XK         k D.        ) ~ ).tX4X                          ",
"            n : @ eXuXuXz X O ; _.iXwXpXpXpXpXpXrXpXuXrXpXpXrXpX8X*XN         ! D.h       0.h.V 5X5X$X                          ",
"            6 $ q R.2X%X# m * . = wXwXqXpXrXpXrXpXpXpXpXeXeXpXuX*X          a / V       d F.C O.tXtX|.                          ",
"              & }.c tXc : 6XA + o G uXuXuXuXeXuXuXuX8X5X8X8X$X-.        |.*X}.9.Z r   w s.T D <XpX6Xl.                          ",
"              u 2.Q.uX%.x uX*.X + F ,X$.^.XXtX5X4X*X*X#X[             *X8X8XtXtXtX5X.X~.2.R.uXwXpX8X                            ",
"            ) >.$.-X0XpX%.E.x , Q.tX`.$.W 4 4 r                     &X8X3XiXuXiXtXtXuXuXpXpX0XpXeX4X                            ",
"            e.*X2Xx ;XpXiX[.,XuXiXuXuXz 4 3                       +XtX7XpXpXwXpXuXpXpXrXrXpXpXeXtX6.                            ",
"              { *XtX3XuXtXtXtXuXpX;XQ.1 A XXb.U             ! G.4X8X,XuXpXpXwXwXpXrXpXpXpXpXrXuX5X                              ",
"                  f.&X*X*X5X5X^.eXeX-XT.uXuXuX2X5X4X%X$X4X8X8X7XqXiXuXeXrXpXaXwXpXeXpXpXpXpXiX5XH.                              ",
"                        u y < R.uXpXeXpXiX:XuXiXeXuXuXuXuXuXwXwXwXwXpXpXpXrXpXqXiXuXeXpXpXrXtX4X                                ",
"                            b tXuXpXpXpXuXiXtXiX0XpXpXrXuXuXpXwXwXpXpXwXpXpX3XuXtXuX0XpXpXeX8X+X                                ",
"                            @Xc.$XeXpXaXwXiX5XtX;XL.pXuX2XtX6XuXtXqXpXpXpXuX8XtXtXtXuX<XuX8X4X                                  ",
"                                v 8XeXpXwXuX{.tXuXT.I.5X^     N &X4X2XuXuX3XO.O.H #.9.=X+XF.                                    ",
"                                  |.'.pX0XuXO.o.5XuX/.            6.4X2XtXY.D @.1.+.L                                           ",
"                                      =.tX'.    4X5X5Xo.            ^ 4XR.&.~.&.1.5.i.                                          ",
"                                      C E E     b 5X2X8Xn 3.u.        l 2.*.m @.7.z.                                            ",
"                                      S.' >.J     b.uX7X3XtX5X4X*Xn.I 9 Q *.I.M U                                               ",
"                                        j.j.j.|     XXuXwXqXuXuXtX5X5XuXuXtXuX4X                                                ",
"                                        M.q.j.j.k.b D ,XuXwXwXpXwXiXiXuXwXqXiX5XH.                                              ",
"                                          D.{ } } v.+.m _.uXpXpXpXpXpXwXwXqX1X5XV.                                              ",
"                                            D...h.} -.-.C /.tXeXeXeXrXpXwXpXiX=X                                                ",
"                                              _ y.y.C.h.f.Y g.%XuXuXuXuX<XuXuX=XOX                                              ",
"                                                      k         R b.*X4X5X4X4X*Xw.                                              ",
"                                                                          J P                                                   ",
"                                                                                                                                ",
"                                                                                                                                ",
"                                                                                                                                ",
"                                                                                                                                ",
"                                                                                                                                "
};
