/* XPM */
static char *a6776823642515_563274cb134ac_4_1721836744[] = {
/* columns rows colors chars-per-pixel */
"50 50 159 2 ",
"   c None",
".  c #030303",
"X  c #090909",
"o  c #101010",
"O  c #181817",
"+  c #1F1F1E",
"@  c #25151F",
"#  c #2A141D",
"$  c #3B1419",
"%  c #251721",
"&  c #291721",
"*  c #261C27",
"=  c #2C1D26",
"-  c #261D28",
";  c #311D26",
":  c #3A1C23",
">  c #343434",
",  c #421017",
"<  c #4E1C1F",
"1  c #4D171C",
"2  c #5A1318",
"3  c #571D1D",
"4  c #5D1C1B",
"5  c #6B0C0F",
"6  c #740F0D",
"7  c #640D12",
"8  c #710D11",
"9  c #6A1815",
"0  c #641C1A",
"q  c #6D1C19",
"w  c #641213",
"e  c #751615",
"r  c #7E1512",
"t  c #721C17",
"y  c #7A1C16",
"u  c #73201C",
"i  c #421C22",
"p  c #491C20",
"a  c #712A26",
"s  c #444343",
"d  c #4F4E4D",
"f  c #6F6F6F",
"g  c #7A7A7A",
"h  c #880D0E",
"j  c #920C0B",
"k  c #991B0F",
"l  c #861B13",
"z  c #8B1C13",
"x  c #921610",
"c  c #991B10",
"v  c #A11B0D",
"b  c #B71A0A",
"n  c #BB1A09",
"m  c #952C26",
"M  c #D50D01",
"N  c #DA0E00",
"B  c #CC1906",
"V  c #CF1208",
"C  c #C61A08",
"Z  c #D51001",
"A  c #D91300",
"S  c #D31A04",
"D  c #DA1A01",
"F  c #DB150A",
"G  c #D91A0D",
"H  c #D71E12",
"J  c #DB1E14",
"K  c #E30C00",
"L  c #E21201",
"P  c #E31900",
"I  c #E1150C",
"U  c #E11C11",
"Y  c #DC241A",
"T  c #DA2113",
"R  c #E2251C",
"E  c #DB2D25",
"W  c #DC3125",
"Q  c #DC3129",
"!  c #DE3C34",
"~  c #E02F27",
"^  c #E93328",
"/  c #E83D33",
"(  c #DF4437",
")  c #DE443B",
"_  c #E04037",
"`  c #E44338",
"'  c #E04B3B",
"]  c #CD4D43",
"[  c #DF5148",
"{  c #EC4C44",
"}  c #E15147",
"|  c #E45C4E",
" . c #ED534A",
".. c #E36454",
"X. c #E3635A",
"o. c #E46C64",
"O. c #EA6C62",
"+. c #E56F68",
"@. c #E47167",
"#. c #E57268",
"$. c #E67C72",
"%. c #818181",
"&. c #8E8E8B",
"*. c #93928F",
"=. c #999894",
"-. c #9C9C99",
";. c #B18E8B",
":. c #A4A49F",
">. c #A3A3A1",
",. c #ADACAB",
"<. c #B1B1AF",
"1. c #B4B4B3",
"2. c #C7958C",
"3. c #E88D82",
"4. c #F38F86",
"5. c #EB938B",
"6. c #EA998F",
"7. c #EC9E95",
"8. c #EDA297",
"9. c #C2B1B1",
"0. c #EDAFA6",
"q. c #F6ACA1",
"w. c #EEB5AC",
"e. c #EEB9AF",
"r. c #F5B6AB",
"t. c #EEBDB4",
"y. c #F4BAB3",
"u. c #EFC0B5",
"i. c #EFC0BB",
"p. c #F4C6BD",
"a. c #C4C3C2",
"s. c #CDCDCA",
"d. c #DEDEDC",
"f. c #D4D3D1",
"g. c #F1CBC4",
"h. c #F3D3CC",
"j. c #F4DAD4",
"k. c #F3DED8",
"l. c #FADFD8",
"z. c #F4E2DB",
"x. c #FDE1DA",
"c. c #E5E5E1",
"v. c #E6E9E7",
"b. c #EAE9E5",
"n. c #EDEDEA",
"m. c #F5E6E0",
"M. c #F5ECE6",
"N. c #F5EFE9",
"B. c #FAE9E3",
"V. c #F4F2E7",
"C. c #F5F3E9",
"Z. c #F8F5ED",
"A. c #F5F8EE",
"S. c #F9F8EF",
"D. c #F6F6F1",
"F. c #F9F7F1",
"G. c #F6FAF3",
"H. c #FAFAF3",
"J. c #F9FCFA",
/* pixels */
"                                                                                                    ",
"                                                                                                    ",
"                                                                                                    ",
"                                                                                                    ",
"                                                                                                    ",
"                                                                                                    ",
"                                                                                                    ",
"                                                                                                    ",
"                                              ; ; ; ; ; ; ; ; ; ; ; ; ; ; ; ; ;                     ",
"                                    ; ; ; ; ; ; ; ; ; ; ; ; ; ; ; ; ; ; ; ; ; ; ; ; ; ;             ",
"                                ; ; ; ; ; ; ; ; ; ; ; ; ; ; ; ; ; ; = ; = = ; = = ; = ; ;           ",
"                              ; ; ; ; ; ; ; ; ; = = & # & = - - - - - - * * - * @ @ % * - -         ",
"                              ; ; ; ; ; - - - - - # # : $ , 1 3 0 0 q q t t e 6 u a 9 w 4 3         ",
"                              ; = - * * = : p q r m ;.9.2.] V Z D D D P P L I O.r.p.8.! N S D       ",
"                                - : 3 y v C S A U q.H.H.H.x.4.R N P D D A T 5.Z.J.G.J.y.R P D D     ",
"                                l b D P P P P A O.Z.C.C.Z.D.G.w.Q N D A F 5.G.Z.V.V.C.G.$.Z D D     ",
"                    D D D       P P P D D D D G e.G.C.C.V.V.C.G.g.! N N +.C.Z.V.C.C.V.Z.g.H A D     ",
"                D D D D D D D   D D D D D D A Q j.A.V.C.C.C.C.C.G.g.Q ) k.D.V.C.C.C.C.C.M.) A D     ",
"            D D D D D D D D D D D D D D D D A ) V.C.C.C.C.C.C.C.S.G.t.t.G.Z.C.C.V.C.C.C.C.X.N D     ",
"          D D D D D D D D D D D D D D D D D Z ..A.C.V.C.C.C.C.Z.n.G.G.G.G.J.Z.V.C.C.C.C.A.@.N D     ",
"      D D D D D D D D D D D D D D D D D D D N ..A.C.V.C.V.V.Z.a.d ,.Z.H.>.g b.C.V.C.C.C.Z.#.N D     ",
"      D D D D D D D D D D D D D D D D D D D N | Z.C.V.C.V.C.G.g . s b.d.> X >.H.V.C.C.C.Z.@.N D     ",
"        D D D D D D D D D D D D D D D D D D Z ' M.Z.V.C.V.V.H.f . O a.1.o X g H.C.C.C.C.A.o.M D     ",
"            D G D D D D D D D D D D D D D D A Q j.A.C.C.C.V.H.%.. X ,.=.. X -.H.V.C.V.C.M.[ N D     ",
"                  D       D D D D D D D D D A H t.G.C.C.C.V.F.,.X . >.*.. + s.H.V.C.V.A.z.W D D     ",
"                        D D D D D D D D D D D N 3.G.C.C.C.V.C.c.s X <.<.X f Z.C.C.C.V.G.w.G D D     ",
"                      D D D D D   D D D D D D N ) N.Z.C.C.C.C.Z.s.*.c.v.&.f.D.M.C.V.C.G.@.N D D     ",
"                      D D D D D     P D D S D D S 7.G.C.V.V.C.C.F.J.N.h.D.F.C.C.C.C.G.g.Y A D D     ",
"                    D D D D D       n P P P D D A E t.G.G.A.D.G.G.j.+.E q.G.D.D.A.G.k.[ D D D D     ",
"                  D D D D D D       : z C D P P P L ~ 7.j.z.z.h.7.` N N Y 5.j.B.l.r.{ K P P P D     ",
"                  D D D D D       ; * - i q c b B D N I /  .{ ^ K K P P L F ` | ' H M C b c l       ",
"                  D D D D         ; ; ; - - - : p 0 t l h j j j x l l y y e 8 5 7 2 1 : : - -       ",
"                D D D D           ; ; ; ; ; - - - - - - - - - - - - - - - - - - - - - - - ; ;       ",
"                D D               ; ; ; ; ; ; ; ; ; ; ; ; ; ; ; = = ; ; ; = ; = ; ; ; ; ; ; ;       ",
"                                  ; ; ; ; ; ; ; ; ; ; ; ; ; ; ; ; ; ; ; ; ; ; ; ; ; ; ; ; ;         ",
"                                  ; ; ; ; ; ; ; ; ; ; ; ; ; ; ; ; ; ; ; ; ; ; ; ; ; ; ; ; ;         ",
"                                  ; ; ; ; ; ; ; ; ; ; ; ; ; ; ; ; ; ; ; ; ; ; ; ; ; ; ; ; ;         ",
"                                  ; ; ; ; ; ; ; ; ; ; ; ; ; ; ; ; ; ; ; ; ; ; ; ; ; ; ; ; ;         ",
"                                  ; ; ; ; ; ; ; ; ; ; ; ; ; ; ; ; ; ; ; ; ; ; ; ; ; ; ; ; ;         ",
"                                  ; ; ; ; ; ; ; ; ; ; ; ; ; ; ; ; ; ; ; ; ; ; ; ; ; ; ; ; ;         ",
"                                ; ; ; ; ; ; ; ; ; ; ; ; ; ; ; ; ; ; ; ; ; ; ; ; ; ; ; ; ; ;         ",
"                                ; ; ; ; ; ; ; ; ; ; ; ; ; ; ; ; ; ; ; ; ; ; ; ; ; ; ; ; ; ;         ",
"                                ; ; ; ; ; ; ; ; ; ; ; ; ; ; ; ; ; ; ; ; ; ; ; ; ; ; ; ; ; ;         ",
"                                ; ; ; ; ; ; ; ; ; ; ; ; ; ; ; ; ; ; ; ; ; ; ; ; ; ; ; ; ;           ",
"                                ; ; ; ; ; ; ; ; ; ; ; ; ; ; ; ; ; ; ; ; ; ; ; ; ; ; ; ; ;           ",
"                                ; ; ; ; ; ; ; ; ; ; ; ; ; ; ; ; ; ; ; ; ; ; ; ; ; ; ; ;             ",
"                                ; ; ; ; ; ; ; ; ; ; ; ; ; ; ; ; ; ; ; ; ; ; ; ; ; ; ; ;             ",
"                                                                                                    ",
"                                                                                                    ",
"                                                                                                    "
};
