/* XPM */
static char *saltar1721836745[] = {
/* columns rows colors chars-per-pixel */
"50 50 211 2 ",
"   c None",
".  c black",
"X  c #010101",
"o  c #020101",
"O  c #020202",
"+  c gray1",
"@  c #040404",
"#  c #040405",
"$  c gray2",
"%  c #060505",
"&  c #060606",
"*  c #070606",
"=  c #070706",
"-  c #070707",
";  c #080607",
":  c gray3",
">  c #090909",
",  c gray4",
"<  c #0B0A0A",
"1  c #0B0A0B",
"2  c #0B0B0B",
"3  c #0C0B0B",
"4  c #0C0C0C",
"5  c gray5",
"6  c #0E0E0E",
"7  c #0F0E0E",
"8  c gray6",
"9  c #101010",
"0  c #111111",
"q  c gray7",
"w  c #131313",
"e  c gray8",
"r  c #151515",
"t  c #161515",
"y  c #161516",
"u  c #161616",
"i  c gray9",
"p  c #181717",
"a  c #181818",
"s  c #191818",
"d  c #191919",
"f  c #1B191B",
"g  c gray10",
"h  c #1B1B1B",
"j  c gray11",
"k  c #1D1D1D",
"l  c #1E1D1D",
"z  c #1E1E1E",
"x  c gray12",
"c  c #202020",
"v  c gray13",
"b  c #222122",
"n  c #222222",
"m  c #232323",
"M  c #262525",
"N  c gray15",
"B  c #2A292A",
"V  c #2A2A2A",
"C  c #2A2B2B",
"Z  c #2C2B2B",
"A  c gray18",
"S  c #323232",
"D  c #333332",
"F  c #353535",
"G  c #373737",
"H  c #3F3F3F",
"J  c #414141",
"K  c gray26",
"L  c #464646",
"P  c #494948",
"I  c #4C4C4B",
"U  c #4C4C4C",
"Y  c #4E4E4E",
"T  c #50504F",
"R  c #504F51",
"E  c #515151",
"W  c #535353",
"Q  c gray34",
"!  c gray35",
"~  c #5C5B5B",
"^  c gray36",
"/  c #5D5D5D",
"(  c #606060",
")  c #626262",
"_  c #686868",
"`  c #6A6A6A",
"'  c #6D6D6E",
"]  c #706F70",
"[  c #787877",
"{  c #787879",
"}  c gray49",
"|  c #807F7F",
" . c #818181",
".. c #868686",
"X. c #878786",
"o. c #878788",
"O. c #8A8989",
"+. c #8A8A89",
"@. c #8C8C8B",
"#. c #909090",
"$. c #929291",
"%. c #959595",
"&. c gray59",
"*. c #9B9A9B",
"=. c #9B9C9B",
"-. c #9D9D9D",
";. c #A1A1A0",
":. c #A2A2A0",
">. c #A2A2A2",
",. c #A4A3A3",
"<. c #A5A5A3",
"1. c #A4A4A4",
"2. c #A6A6A5",
"3. c #A9A8A9",
"4. c #ACACAB",
"5. c #AFAEAF",
"6. c #B0B0AF",
"7. c gray69",
"8. c #B1B0B0",
"9. c #B1B1B1",
"0. c #B2B2B2",
"q. c #B4B4B3",
"w. c #B4B4B4",
"e. c gray71",
"r. c #B6B6B5",
"t. c #B7B7B6",
"y. c #B8B7B7",
"u. c gray72",
"i. c #BBBBBA",
"p. c #BBBBBB",
"a. c #BCBCBB",
"s. c #BBBBBC",
"d. c #BFBFBE",
"f. c gray75",
"g. c #C1C1C1",
"h. c gray76",
"j. c #C5C5C6",
"k. c #C8C8C8",
"l. c #C9C9C8",
"z. c #CAC9C9",
"x. c #CBCBCA",
"c. c gray80",
"v. c #CECDCC",
"b. c #CECECE",
"n. c #CECFCE",
"m. c #CFCFCE",
"M. c gray81",
"N. c #D0D0CE",
"B. c #D0D0D0",
"V. c LightGray",
"C. c gray83",
"Z. c #D5D5D5",
"A. c #D6D6D4",
"S. c #D6D5D7",
"D. c gray84",
"F. c #D7D7D6",
"G. c #D6D6D7",
"H. c #D8D8D8",
"J. c #DADAD8",
"K. c #DADAD9",
"L. c #DADADA",
"P. c gray86",
"I. c #DCDCDA",
"U. c gainsboro",
"Y. c gray87",
"T. c #E0E0DF",
"R. c #E2E2E0",
"E. c #E1E1E2",
"W. c #E4E4E2",
"Q. c #E2E2E4",
"!. c #E5E5E4",
"~. c #E7E7E5",
"^. c #E5E5E6",
"/. c #E6E6E6",
"(. c #E8E8E7",
"). c #E9E9E8",
"_. c #EAEAE8",
"`. c #EAEAE9",
"'. c #EAEAEB",
"]. c #EDEDEB",
"[. c #ECECEC",
"{. c #EDEDEC",
"}. c #EEEEEC",
"|. c #F0F0EE",
" X c #F1F1EF",
".X c #F2F2F0",
"XX c #F3F2F0",
"oX c #F2F2F1",
"OX c #F3F3F1",
"+X c #F3F3F4",
"@X c gray96",
"#X c #F6F6F4",
"$X c #F6F6F5",
"%X c #F7F7F5",
"&X c #FAFAF8",
"*X c #FBFBF9",
"=X c gray98",
"-X c #FBFBFA",
";X c #FAFAFB",
":X c #FBFBFB",
">X c #FCFCFA",
",X c #FCFCFB",
"<X c #FDFDFB",
"1X c #FBFBFC",
"2X c gray99",
"3X c #FDFDFC",
"4X c #FCFCFD",
"5X c #FDFDFD",
"6X c #FDFDFE",
"7X c #FDFCFF",
"8X c white",
/* pixels */
"                                                                                                    ",
"                                                                                                    ",
"                                                                                                    ",
"                                                                                                    ",
"                                                                                                    ",
"                                                                                                    ",
"                                                              z a z                                 ",
"                                                    n i w @ + + + + 2 z                             ",
"                                              w 5 2 + + + + + + + + + @                             ",
"                                      a w 2 + + + + + + + + + + + + + + w                           ",
"                              z i 5 + + + + + + + + + + + + @ S / ) F 2 @ V                         ",
"                        i w 2 + + + + + + + + + + + + + + a  .N.P.n.i.] 5 w                         ",
"                    a 2 + + + + + + + + + + + + + + + + 5 %.@X+XI.z.u.r.Q 2                         ",
"                z 5 + + + + + + + 5 N V N w + + + + + + ' +XH.q.H.N.a.0.>.n a                       ",
"            z 2 + + + + + + + @ U 4.V.P.S.a.#.E a + + A S.'.R z <.S.h.0.0.E w                       ",
"          w + + + + + + + + + H G.3X3X3X<X<X*Xn.*.[ V o.7Xh.a + [ P.j.r.0. .5                       ",
"          + + + + + + + + + = $.1X*X*X*X*X<X|.) Z ..j.E.3Xz.V ; @.T.n.i.6.*.e a                     ",
"          5 + + + + + + + + w t.1X*X*X3X*X<X|.U + 3 %.1X3X@X,.^ v.^.A.g.0.3.v w                     ",
"            w + + + + + + + p d.3X*X*X*X*X*X*X2.e + S Q.3X*X+X~.|.(.P.k.u.0.V 2                     ",
"                + + + + + + 9 4.3X*X*X<X*X*X<X@X;.H ^ ^.7X*X*X&X@X].T.m.d.4.n @                     ",
"                  2 + + + + + ..1X*X*X*X*X*X*X<X*X'.].*X*X*X*X*X&X|.^.A.z.*.5 + a                   ",
"                      + + + + L (.1X*X*X*X<X*X*X*X<X*X*X*X*X*X*X<XOX_.T.S.) + + e                   ",
"                      2 + + + w w.1X*X1X*X*X*X*X*X*X*X*X&X<X<X*X<X&XOX^.%.i + + 4                   ",
"                      2 + + + + ^ [.3X*X*X*X*X<X*X*X*X<XA.@.a.T.].'.x.} a + + + ;                   ",
"                        + + + + w 1.*X*X*X*X*X*X*X<X<XI.Q + i F I K N + + + + + @                   ",
"                        + + + + + S h.*X*X*X<X<X<X&Xz.U @ + + + + + + + + + + + +                   ",
"                        2 + + + + + S ;.~.OX@X].n.+.A + + + + + + + + + + + + + + z                 ",
"                        5 + + + + + + w J _ _ I N @ + + + + + + + + + + + + + + + a                 ",
"                          + + + + + + + + + + + + + + + + + + + + + + + + + + + + i                 ",
"                          + + + + + + + + + + + + + + + + + + + + + + + + + + + + i                 ",
"                          @ + + + + + + + + + + + + + + + + + + + + + + + + + + + n                 ",
"                          4 + + + + + + + + + + + + + + + + + + + + + + + + + + +                   ",
"                          2 + + + + + + + + + + + + + + + + + + + + + + + + + + @                   ",
"                          w + + + + + + + + + + + + + + + + + + + + + + + + + + w                   ",
"                          5 + + + + + + + + + + + + + + + + + + + + + + + + + @                     ",
"                            + + + + + + + + + + + + + + + + + + + + + + + + 2                       ",
"                            + + + + + + + + + + + + + + + + + + + + @ 2 5                           ",
"                            + + + + + + + + + + + + + + + + + @ 2 w                                 ",
"                            + + + + + + + + + + + + + + @ w a                                       ",
"                            + + + + + + + + + + + 2 w                                               ",
"                            @ + + + + + + @ 5 a                                                     ",
"                            2 + + 2 2 p                                                             ",
"                                                                                                    ",
"                                                                                                    ",
"                                                                                                    ",
"                                                                                                    ",
"                                                                                                    ",
"                                                                                                    ",
"                                                                                                    ",
"                                                                                                    "
};
