/* XPM */
static char *a6776823642515_563274cb134ac_5_1721836859[] = {
/* columns rows colors chars-per-pixel */
"50 50 155 2 ",
"   c None",
".  c #77381B",
"X  c #7C3C1F",
"o  c #7E3E20",
"O  c #813E23",
"+  c #853D29",
"@  c #8A3E2A",
"#  c #844124",
"$  c #8A4426",
"%  c #874029",
"&  c #8C432A",
"*  c #8C4A2A",
"=  c #93442D",
"-  c #98452F",
";  c #934B2C",
":  c #9A4C2E",
">  c #96512D",
",  c #9A532E",
"<  c #974630",
"1  c #994630",
"2  c #9D4A32",
"3  c #955231",
"4  c #9D5230",
"5  c #9C5B37",
"6  c #A25A2F",
"7  c #A54B33",
"8  c #AA4E35",
"9  c #A35134",
"0  c #AA5236",
"q  c #A45D32",
"w  c #AD5837",
"e  c #AD5439",
"r  c #AE5838",
"t  c #B15137",
"y  c #B35239",
"u  c #BC553B",
"i  c #B55A3C",
"p  c #BB5E3F",
"a  c #A76036",
"s  c #AB6332",
"d  c #A3613D",
"f  c #AB6339",
"g  c #B36B34",
"h  c #B86F34",
"j  c #BC603F",
"k  c #B46B3D",
"l  c #B8683F",
"z  c #BA7235",
"x  c #C1573D",
"c  c #C5593E",
"v  c #C95A3F",
"b  c #C17736",
"n  c #C27936",
"m  c #C07938",
"M  c #BD5B42",
"N  c #AC6641",
"B  c #AD6B44",
"V  c #BE6140",
"C  c #B26D46",
"Z  c #BD7242",
"A  c #B6724A",
"S  c #B8764D",
"D  c #B9794F",
"F  c #BD7B51",
"G  c #C25E43",
"H  c #CA5B40",
"J  c #C66543",
"K  c #C96544",
"L  c #CD6E46",
"P  c #CD6548",
"I  c #CE6D4C",
"U  c #D36546",
"Y  c #D46B47",
"T  c #D36749",
"R  c #D4694B",
"E  c #DB6A4C",
"W  c #C27644",
"Q  c #C67947",
"!  c #C87B47",
"~  c #CD7E4A",
"^  c #D4754A",
"/  c #D9734B",
"(  c #D77F4E",
")  c #DF7C4F",
"_  c #DE6E50",
"`  c #CD7854",
"'  c #D77250",
"]  c #DB7754",
"[  c #E16D4E",
"{  c #E57252",
"}  c #ED7656",
"|  c #EE7957",
" . c #E47F5A",
".. c #EE7A58",
"X. c #F07857",
"o. c #F07F5C",
"O. c #CD8439",
"+. c #CF883B",
"@. c #D08738",
"#. c #D48B3B",
"$. c #D88E3A",
"%. c #D7903D",
"&. c #DB913B",
"*. c #E39A3E",
"=. c #CD804A",
"-. c #DA804F",
";. c #C28155",
":. c #C88559",
">. c #DC8551",
",. c #DD8D53",
"<. c #D6825A",
"1. c #E39C40",
"2. c #E58653",
"3. c #E08F54",
"4. c #E98D56",
"5. c #E2855D",
"6. c #F0805C",
"7. c #E49156",
"8. c #EA9157",
"9. c #EB9659",
"0. c #ED995B",
"q. c #F29C5D",
"w. c #E7A142",
"e. c #EBA442",
"r. c #EFA843",
"t. c #F4AE45",
"y. c #F7B146",
"u. c #F8B246",
"i. c #F6A15F",
"p. c #D39263",
"a. c #DA9767",
"s. c #DB9C6B",
"d. c #EA8D64",
"f. c #F18761",
"g. c #F38C64",
"h. c #E99166",
"j. c #EA9469",
"k. c #F59067",
"l. c #F59469",
"z. c #F79B6E",
"x. c #F19F70",
"c. c #DFA06E",
"v. c #F7A360",
"b. c #F9A561",
"n. c #E4A371",
"m. c #E9A572",
"M. c #F4A172",
"N. c #F9A675",
"B. c #FAA877",
"V. c #F4AD79",
"C. c #FCAF7B",
"Z. c #F4B17C",
"A. c #FBB37E",
"S. c #FCB780",
"D. c #FFBA83",
/* pixels */
"                                                                                                    ",
"                                                                                                    ",
"                                                                      o                             ",
"                                                              X $ a W a o                           ",
"                            X o X o X                   X o ; a ,.0.v.,.$                           ",
"                      $ 5 N A A C N d 3 o           o # q ! 3.i.v.v.v.i.q X                         ",
"                      B Z.S.S.A.S.A.A.n.3 o         O l v.b.b.v.v.v.v.b.Q o                         ",
"                    # :.D.D.D.D.D.D.D.S.` # o     o : P 2.8.2.q.v.v.v.v.7.,                         ",
"                    * a.D.D.D.D.A.A.C.l...M O     # y H H H / i.i.i.8.i.i.k o                       ",
"                    3 m.D.D.D.D.C.k.6.| } { 9 o X ; v H v v / b.i.-.c i.i.=.#                       ",
"                    d A.D.D.D.D.D.N...} } } { 2 o 0 v v v v Y 8.2.i 8 ,.i.0.*                       ",
"                  X B D.A.x.S.D.D.S. .} } } X.P = 0 v v v v v P c 8 7 v 0.8.,                       ",
"                  o D D.j.Y j.A.S.N.X.} } } } } H 8 t v v v v v u 7 7 7 0 0 $                       ",
"                  o F A.' c H 5.k.o.} } } X.} } } M 7 y v v v v 8 7 8 7 8 = O                       ",
"                    3 I H H v H { } } } } } } } } _ e 8 x v v u 7 7 7 7 2 $                         ",
"                    o 7 H H v v U } } } } ..} } } } P 8 8 v v 0 7 7 8 7 = O     o #                 ",
"                      # y H H H H U } } } } } } } } } G 7 y u 8 8 7 7 7 O O # # # % $ $ X           ",
"                      O + y H H v H E } } } } } } } } { y 7 2 < - 7 7 = % = = - < 2 M V , #         ",
"                        X : H H H H H [ } } } } } _ P G 2 + + = & 1 1 @ = 1 1 1 = e J J J 9 # o     ",
"                  # O O O # 8 H H H H H _ R G e 1 < & 3 q z #.1.g @ @ @ = 1 - 1 1 7 V J J J i ; o   ",
"            $ $ # % & = < @ @ t c u y 7 = @ & * 4 g &.w.t.u.u.t.$.q : # = 1 1 1 - 1 e J J K K V 2 o ",
"          # r J 7 1 1 1 1 < @ @ - = & = a z #.&.e.y.u.u.t.e.1.&.&.$.O.: @ 1 1 - 2 i J J J J J J J 4 ",
"        o 4 J J 7 - 1 1 < @ + ; g n 1.e.t.y.u.u.u.y.t.1.*.&.&.&.$.&.&.q + = 1 - 0 J J J J K J K J 4 ",
"      o ; V K V 1 - 1 - & + a 1.t.y.t.y.u.y.y.y.t.e.*.&.$.&.$.&.$.$.*.h + = 1 - 0 J J J J J J J 0 # ",
"    o $ j J J j 7 < = - + @ 1.u.y.y.u.u.y.t.t.*.&.&.&.$.&.&.&.&.$.$.+.s + = = - 2 0 r V J J K i # o ",
"    o 9 J J K K J e 1 - & + #.u.y.y.y.u.r.*.*.$.&.&.&.&.&.&.$.#.m q = % @ & @ @ + + & V J K j * o   ",
"  # : J J J J J J J 2 1 = + q e.y.r.*.*.$.$.$.&.&.&.$.O.b g 6 ; & 2 M 2 + + + + + + 2 J K J : o     ",
"  $ V J J J J L K i 1 = = + + z @.*.$.$.$.*.$.#.z g 6 ; + @ 7 p R _ } R & + + + + + < i j > o       ",
"  $ w J J K J J i = @ + + + + + , #.$.@.n h q ; @ @ @ 1 i T { } X.} } } M % + + + + + + ; o         ",
"    O ; j K J K i @ + + + + + + + : , ; & + @ = 7 8 u H } } } } } } } } { 9 O o O O o # o           ",
"      o * r J J K 7 + + + + + @ @ + @ = 1 7 7 u c H H H E } } } } } } } X.R $ o                     ",
"        X # 4 j K p @ + + + + 7 u y u c H c t 8 x H H H H [ X.} } ..} } } ..M %                     ",
"          o o $ i 9 % O + O % x H H v H H H x - 8 c v H v U { } } } } } } | } i O                   ",
"              o # o O o o O 7 H H v v H v H c 7 - t v H v v U } } X.X.} } } } / : O                 ",
"                          $ p v v H H H v H u 7 1 1 u v v v v [ } X.} } } } 6.z.<.*                 ",
"                        X : H v v H H v H v t 8 7 = 7 c v v v v [ 6.g.6.| | N.D.V.f                 ",
"                        # y v v v v H H v u 8 7 8 7 = 8 v v v v ] C.A.S.z.g.D.D.S.A                 ",
"                      X ; x v v v v v H v t 7 7 7 7 + ; x v v v 5.A.D.D.A.A.D.D.Z.5                 ",
"                      # i / H H v U U v u 8 7 7 7 - # O 2 v v v ] A.D.D.D.D.D.D.n.*                 ",
"                      $ 7.i.) H / 9.9.U t 7 8 7 7 & X   # 0 v v Y M.D.D.D.D.D.D.p.o                 ",
"                      $ =.i.0.) i.i.b.^ 0 7 7 8 : #     O $ K d.V.S.D.D.D.D.D.S.D X                 ",
"                      X a i.i.q.i.v.i.L 8 8 8 7 = O       X C D.D.D.D.D.D.D.D.Z.5                   ",
"                        $ 7.b.i.v.v.0.^ -.8.^ : O           * F p.s.n.n.n.c.a.;.*                   ",
"                        o Z i.b.v.v.i.i.i.b.>.* X             . o * * * * * # #                     ",
"                          , 0.i.i.v.v.i.i.,.f #                         X X                         ",
"                          # Z v.i.v.0.=.a * O                                                       ",
"                            , 7.0.=., # o                                                           ",
"                            # a , $ X                                                               ",
"                              o                                                                     ",
"                                                                                                    "
};
