/* XPM */
static char *a6776823642515_563274cb134ac_1_1721859660[] = {
/* columns rows colors chars-per-pixel */
"50 50 179 2 ",
"   c None",
".  c #3D2A2A",
"X  c #75171E",
"o  c #741A1F",
"O  c #751B20",
"+  c #791C21",
"@  c #412E2E",
"#  c #492B2C",
"$  c #463736",
"%  c #563A3B",
"&  c #7B2224",
"*  c #5A4545",
"=  c #745A5A",
"-  c #736766",
";  c #9E0F1D",
":  c #9E111E",
">  c #A0111F",
",  c #841D23",
"<  c #8B1E25",
"1  c #9F1422",
"2  c #921D25",
"3  c #9C1E27",
"4  c #9D1F2B",
"5  c #A11523",
"6  c #A31A26",
"7  c #AB1926",
"8  c #A41F28",
"9  c #AB1C28",
"0  c #B11A26",
"q  c #B31D2A",
"w  c #BC1E2B",
"e  c #B71727",
"r  c #852A25",
"t  c #932028",
"y  c #9C222B",
"u  c #8E3922",
"i  c #893B34",
"p  c #983638",
"a  c #952F3A",
"s  c #AA2425",
"d  c #AB2926",
"f  c #A3232D",
"g  c #AB232E",
"h  c #B5212D",
"j  c #BB202C",
"k  c #AF2630",
"l  c #AA2B35",
"z  c #AB2D38",
"x  c #A72833",
"c  c #B62632",
"v  c #BA2732",
"b  c #B62932",
"n  c #B92A34",
"m  c #AC333D",
"M  c #A6363B",
"N  c #B9353C",
"B  c #B43D28",
"V  c #C21E2C",
"C  c #C4212E",
"Z  c #CC222F",
"A  c #C42430",
"S  c #CC2330",
"D  c #D12330",
"F  c #9C4424",
"G  c #9A4A23",
"H  c #944A3D",
"J  c #B04C33",
"K  c #B56B26",
"L  c #D1462D",
"P  c #C55A29",
"I  c #C95B29",
"U  c #DB592D",
"Y  c #CE7029",
"T  c #D47A29",
"R  c #CA6C3A",
"E  c #AD3640",
"W  c #AD3B44",
"Q  c #BF3E43",
"!  c #B03F49",
"~  c #9D5B48",
"^  c #B2424C",
"/  c #B94747",
"(  c #AF5953",
")  c #B55354",
"_  c #B35954",
"`  c #B95954",
"'  c #B6555B",
"]  c #AB4A4A",
"[  c #A6694E",
"{  c #AC7359",
"}  c #A56851",
"|  c #BC5B64",
" . c #857271",
".. c #BF646B",
"X. c #C44C4D",
"o. c #C14548",
"O. c #C65857",
"+. c #C86659",
"@. c #CC6660",
"#. c #CB6A67",
"$. c #C36C74",
"%. c #C6747B",
"&. c #D07C71",
"*. c #CD8B28",
"=. c #DA8129",
"-. c #EB9B2B",
";. c #E7982A",
":. c #EDAC2B",
">. c #E0A02A",
",. c #F1A62A",
"<. c #F4AB2B",
"1. c #EDB02B",
"2. c #F6B42C",
"3. c #F9B62C",
"4. c #FCBC2C",
"5. c #F6BD3B",
"6. c #FEC22D",
"7. c #FEC53B",
"8. c #BE9169",
"9. c #D4966F",
"0. c #DC937F",
"q. c #CD8B72",
"w. c #FBD35F",
"e. c #C97B82",
"r. c #928787",
"t. c #9E9595",
"y. c #CE878D",
"u. c #D79586",
"i. c #DD9783",
"p. c #D18E94",
"a. c #D5979D",
"s. c #E09F8B",
"d. c #DBA08B",
"f. c #D5B680",
"g. c #E3A68F",
"h. c #E3AD93",
"j. c #DCA9AE",
"k. c #DDABB0",
"l. c #C3B7B8",
"z. c #DFB3B7",
"x. c #EBBFA1",
"c. c #E2B7BA",
"v. c #E6CC90",
"b. c #EDD189",
"n. c #FCE384",
"m. c #F5E79D",
"M. c #FFF29D",
"N. c #EBC7A7",
"B. c #EFC9A6",
"V. c #E8C7A8",
"C. c #F0CFAB",
"Z. c #EDD5AE",
"A. c #F3D5AF",
"S. c #EDD7B0",
"D. c #EEDAB1",
"F. c #F2D9B2",
"G. c #FFFBAA",
"H. c #FCF3A6",
"J. c #FAE9BB",
"K. c #F9E6BB",
"L. c #F6EBA3",
"P. c #E5BFC2",
"I. c #CCC7C7",
"U. c #DCD0D1",
"Y. c #E5C1C3",
"T. c #E8C7CA",
"R. c #EACED0",
"E. c #EDD4D6",
"W. c #EFD9DB",
"Q. c #F1DFE1",
"!. c #E9E8E8",
"~. c #F4E4E5",
"^. c #F5E7E9",
"/. c #F7EDEE",
"(. c #F8EEEF",
"). c #F8EFF0",
"_. c #F5F3F3",
"`. c #F9F3F3",
"'. c #FEFEFE",
/* pixels */
"                                                                                                    ",
"                                                                                                    ",
"                                      +                                                             ",
"                                    + O O +                       + +                               ",
"                                  + + + + + +                 + O + +                               ",
"                                  O o + O + O +             O + + + O O                             ",
"                                + + o + X X X X & + & &   o o O o O O +                             ",
"                                o o X o & i H ~ [ { { [ J F u r + O O O +                           ",
"                                o + i } 8.f.v.m.L.m.w.w.w.1.>.*.K G r + O                           ",
"                              O o p q.v.H.G.G.M.n.w.7.6.4.4.6.6.6.1.*.F + O                         ",
"              + + + O + O o o 2 9 b / +.9.v.n.w.7.<.,.,.,.,.,.<.<.4.<.L q 2 +                       ",
"            + O O O + O o , 8 C Z C e e q J R =.;.-.-.-.-.;.;.;.-.-.U S D A 8 , o                   ",
"            + + + O O O , 9 Z D Z Z Z Z V e 7 d P ;.2.3.4.3.3.3.:.I q j C Z Z q , o                 ",
"              O O + O , q S Z Z Z Z Z Z S w 9 5 5 J =.2.6.4.4.4.T s 5 9 9 w Z D j < O               ",
"              + + O + s S Z Z Z Z Z Z C 9 6 6 6 5 5 s P ;.4.4.T d 5 6 6 6 5 7 V S q ,               ",
"              O O O 2 Z Z Z Z Z Z Z C 7 6 6 5 6 6 6 1 1 J =.Y s 1 6 6 6 5 5 5 5 q S s O             ",
"                o o j D C A v C Z C 9 > : : : ; ; ; > 5 > s 9 5 1 ; : 1 6 f z W x V S 2 o           ",
"                o y Z A v v v v C C g $.%.%.$.$.| | ' a ) a , t ' $.e.p.a.j.c.k.z V S q +           ",
"                o j Z A b v b b C C g k.~.^.^.~.Q.~.U.=  .* # % l.~./.`.`.'.'.T.z V S S 2           ",
"              O , Z A v b b v v S C 9 p.'.'.'.'.'.'.!.- $ . . % I.'.'.'.'.'.'.k.g V Z Z 9 +         ",
"          + O o 2 Z C b b v b v S Z 7 | /.'.'.'.'.'._.r.. . . * U.'.'.'.'.'.'.a.q Z Z D j ,         ",
"        + O O O 8 Z C b b v b C Z Z j l c.'.'.'.'.'.'.I.* . @ r._.'.'.'.'.'./...7 Z Z Z C <         ",
"      + + + o O s D A A v v A Z Z Z C 7 %.(.'.'.'.'.'._.l. .t.!.'.'.'.'.'.'.R.m w Z Z Z Z 2         ",
"      + O + + O 9 Z D A A A Z Z Z Z C q x k.`.'.'.'.'.'.'._._.'.'.'.'.'.'.`.y.9 V Z Z Z Z 3         ",
"        + + O + 9 Z C S v v v S Z Z Z C 6 ^ c.'.'.'.'.'.'.'.'.'.'.'.'.'.'.P.E 7 Z Z Z Z Z 8 O       ",
"          O o O 8 Z Z Z v v v S Z Z Z Z q 6 ^ c._.'.'.'.'.'.'.'.'.'.'.'.E.' 6 C Z Z Z Z Z 8 O       ",
"            + o 3 Z Z Z C C S Z Z Z Z Z Z 7 5 m y.E.).'.'.'.'.'.'.`.(.P.| 6 0 Z Z Z Z Z Z f         ",
"              o 2 Z Z Z Z Z Z Z S C Z Z Z C 9 5 6 ^ %.k.T.E.W.W.R.c.%.m 5 7 C Z Z Z Z Z Z 3         ",
"              O , C Z Z Z Z Z Z S D S Z S D V 0 5 5 5 8 l W ^ ^ E f 5 5 7 C Z Z Z Z Z Z Z 2         ",
"                + j D Z Z S Z D S S S S S S S Z w 9 6 5 5 5 5 5 5 5 6 q C Z Z S Z Z Z Z C ,         ",
"                O 8 Z Z Z Z Z Z Z Z S S D D Z S S C V q 0 9 7 7 7 q C Z Z Z Z A Z Z Z Z j +         ",
"                O < Z D Z Z Z Z Z D Z D V D Z Z D D Z Z S Z C A Z Z Z Z Z Z Z Z Z Z Z Z 8 O         ",
"              + O + q C C C C V V V V V V j j w w w w w j j w w q w q j q q q q q q q h ,           ",
"              O + O , f g g l ) ` ` ` ) l l ) ' ` _ ` ] f M _ _ _ _ ( W 4 ] _ _ ( M 4 < O           ",
"            + + o + o y c c N u.S.S.S.u.E N i.F.Z.Z.Z.0.b O.V.S.Z.Z.V.O.c &.S.D.h.Q k ,             ",
"            O O + O O , f v j X.h.A.g.o.v v O.B.J.J.N.X.v n i.K.K.K.i.n c Q g.x.+.c 2 +             ",
"              + + + o o , g b h Q #.Q h c c c @.N.C.#.h v c Q h.F.d.Q h c c Q X.n f +               ",
"                      + o t g v h q c c c c c c O.+.n c b b j / #.Q h c v c h h y +                 ",
"                          o r f n v n n c c n c v q c v v c b h j c c b c n c y + O                 ",
"                            O + 2 f c v v c n n v c c c c c v c b v v v c f < + O                   ",
"                              o O + t f l v n v v c v v v v n n v b k f 2 + O                       ",
"                                o O O + , 2 y f x k k k k k g f y t , + + O                         ",
"                              O O O O O O O + + , , , , , , + , + + O                               ",
"                              O O O O     O O O o o o o o O O                                       ",
"                            O O O &       o O o o                                                   ",
"                              O O         o O O o                                                   ",
"                                          & O O                                                     ",
"                                          O O O                                                     ",
"                                                                                                    ",
"                                                                                                    "
};
